<!DOCTYPE svg PUBLIC "-//W3C//DTD SVG 20010904//EN" "http://www.w3.org/TR/2001/REC-SVG-20010904/DTD/svg10.dtd">
<svg version="1.0" xmlns="http://www.w3.org/2000/svg" width="860px" height="1201px" viewBox="0 0 8600 12010" preserveAspectRatio="xMidYMid meet">
<g id="layer1" fill="#ed0311" stroke="none">
 <path d="M4717 11544 c-9 -10 -9 -44 1 -45 4 0 17 -2 30 -5 12 -2 22 0 22 5 0 5 9 7 20 4 18 -5 19 -2 12 18 -7 18 -18 25 -43 27 -19 2 -38 0 -42 -4z"/>
 <path d="M4850 11491 c0 -5 35 -37 78 -71 42 -34 92 -75 110 -91 19 -16 39 -29 44 -29 6 0 8 -9 5 -19 -4 -15 2 -20 32 -25 62 -10 71 -8 71 17 -1 28 -86 97 -160 128 -30 13 -57 25 -60 28 -3 4 -26 21 -52 39 -47 32 -68 40 -68 23z"/>
 <path d="M5324 11328 c-10 -16 12 -29 57 -35 l44 -5 -25 20 c-28 24 -68 34 -76 20z"/>
 <path d="M3820 11280 c-25 -22 -49 -40 -53 -40 -5 0 -40 -31 -79 -70 -39 -38 -76 -70 -84 -70 -7 0 -19 -9 -27 -20 -7 -11 -29 -26 -48 -34 -19 -8 -47 -28 -63 -45 -28 -29 -101 -59 -159 -65 -24 -2 -112 -57 -152 -93 -7 -7 -18 -13 -23 -13 -27 0 -62 -92 -88 -233 -8 -43 -26 -106 -39 -140 -20 -47 -29 -95 -38 -202 -17 -198 -13 -522 7 -677 9 -69 16 -130 15 -135 -3 -9 8 -172 17 -265 5 -45 10 -57 26 -61 51 -14 51 -10 45 222 -4 156 -10 236 -23 286 -14 56 -17 114 -16 295 0 124 5 257 11 295 21 137 41 227 51 241 7 8 10 46 9 96 -4 115 17 169 67 173 5 0 24 15 42 33 17 17 36 32 42 32 14 0 72 41 83 58 4 6 13 12 19 12 11 0 120 89 126 102 2 5 9 8 16 8 7 0 29 16 49 35 20 19 41 35 47 35 5 0 10 4 10 9 0 4 17 20 38 33 64 43 130 104 186 173 l24 30 13 -43 c14 -49 23 -52 37 -14 25 62 25 79 0 86 -37 9 -41 8 -88 -34z"/>
 <path d="M5424 11108 c4 -18 11 -69 16 -113 20 -176 29 -233 50 -310 31 -112 40 -476 15 -611 -20 -113 -43 -251 -56 -334 -16 -110 -30 -477 -17 -457 11 17 10 -106 -1 -135 -4 -13 -11 -47 -15 -75 -5 -42 -4 -53 7 -53 18 0 30 32 56 140 38 165 53 260 47 292 -6 35 17 300 34 383 6 28 14 88 19 135 5 47 12 96 15 110 12 47 13 89 6 182 -8 91 -17 134 -60 288 -13 47 -26 141 -35 255 -13 171 -27 246 -57 307 -18 38 -32 35 -24 -4z"/>
 <path d="M5560 10720 c0 -7 3 -10 7 -7 3 4 3 10 0 14 -4 3 -7 0 -7 -7z"/>
 <path d="M5534 9026 c-6 -17 2 -36 17 -36 12 0 12 37 -1 45 -6 3 -13 -1 -16 -9z"/>
 <path d="M5370 8924 c0 -3 5 -14 10 -25 15 -28 40 -24 40 6 0 20 -5 25 -25 25 -14 0 -25 -3 -25 -6z"/>
 <path d="M3857 5538 c-21 -29 -37 -61 -37 -71 0 -9 -4 -17 -8 -17 -5 0 -15 -19 -22 -42 -8 -24 -17 -45 -20 -48 -8 -7 -40 -103 -40 -119 0 -7 -11 -34 -23 -60 -13 -25 -27 -75 -31 -111 -3 -36 -13 -83 -21 -105 -14 -40 -21 -209 -9 -239 12 -32 22 -14 23 44 1 76 17 141 53 210 15 30 28 59 28 65 0 9 33 78 100 203 19 37 21 45 9 53 -11 7 -11 9 -1 9 9 0 11 7 7 23 -4 15 -3 18 3 8 14 -19 21 -2 33 71 8 47 16 68 34 83 16 13 26 32 27 55 3 34 1 35 -33 38 -33 3 -38 -1 -72 -50z"/>
 <path d="M4295 5005 c4 -11 11 -51 16 -89 5 -38 13 -74 18 -80 5 -6 12 -30 16 -54 4 -23 18 -63 31 -89 14 -25 23 -51 21 -57 -2 -6 9 -40 25 -74 15 -35 28 -71 28 -80 0 -72 93 -233 120 -206 17 17 -4 297 -24 326 -9 12 -16 29 -16 36 0 22 -89 192 -116 221 -27 29 -94 115 -113 146 l-13 20 7 -20z"/>
 <path d="M2559 4709 c-13 -25 -5 -123 17 -203 7 -28 19 -103 25 -166 6 -63 16 -119 20 -124 5 -6 9 -37 9 -70 0 -98 33 -121 37 -28 2 26 3 130 2 232 0 163 -3 194 -23 265 -13 43 -29 81 -35 83 -6 2 -11 10 -11 18 0 22 -28 17 -41 -7z"/>
 <path d="M3645 4660 c-8 -26 4 -48 16 -29 12 19 11 49 0 49 -5 0 -12 -9 -16 -20z"/>
 <path d="M1630 4200 c0 -7 8 -24 18 -38 10 -15 24 -42 31 -59 8 -18 17 -33 22 -33 10 0 0 81 -10 90 -3 3 -11 14 -17 25 -12 22 -44 33 -44 15z"/>
 <path d="M1600 4114 c0 -22 6 -59 14 -84 7 -25 17 -99 21 -165 4 -66 11 -125 16 -131 5 -7 13 -31 18 -55 l8 -44 19 40 c37 78 11 313 -41 375 -7 8 -16 29 -20 47 -3 17 -13 37 -21 44 -12 10 -14 5 -14 -27z"/>
 <path d="M5579 4073 c-6 -21 -14 -42 -17 -47 -7 -12 -7 -13 -25 -187 -8 -75 -20 -160 -25 -190 -16 -82 -22 -159 -13 -159 5 0 19 20 32 45 13 25 27 45 30 45 4 0 10 16 13 35 4 19 11 35 16 35 6 0 9 3 8 8 -3 12 14 56 38 93 13 20 20 40 17 43 -4 3 -1 6 5 6 6 0 19 25 27 55 9 30 21 57 26 60 15 10 10 62 -6 69 -8 3 -15 14 -15 24 0 10 -11 29 -25 42 -14 13 -25 29 -25 36 0 11 -21 24 -40 24 -5 0 -14 -17 -21 -37z"/>
 <path d="M1379 4063 c0 -16 -2 -134 -3 -263 -2 -184 -7 -249 -20 -298 -10 -34 -16 -73 -14 -85 3 -20 6 -19 26 13 52 81 83 251 85 457 1 184 -4 203 -49 203 -19 0 -24 -5 -25 -27z"/>
 <path d="M7891 3806 c-5 -6 -14 -31 -21 -55 -6 -24 -15 -51 -20 -60 -34 -63 -69 -259 -64 -361 3 -67 -4 -99 -17 -79 -15 24 -10 -63 5 -93 8 -15 17 -41 21 -58 12 -55 30 -16 31 68 2 92 10 160 28 227 8 28 19 80 26 118 7 37 16 70 21 73 5 3 9 19 9 35 0 16 6 40 14 52 8 12 17 47 21 78 6 55 5 57 -19 61 -14 3 -30 0 -35 -6z"/>
 <path d="M778 3793 c-3 -4 -2 -66 1 -138 5 -117 8 -130 25 -133 18 -4 19 1 12 89 -4 52 -8 111 -9 131 -2 37 -20 68 -29 51z"/>
 <path d="M1755 3728 c-6 -21 -11 -98 -5 -98 3 0 15 18 28 41 19 32 21 43 11 55 -14 17 -28 18 -34 2z"/>
 <path d="M775 3399 c-7 -52 -1 -74 15 -49 12 19 13 100 1 100 -5 0 -12 -23 -16 -51z"/>
 <path d="M6604 3436 c-17 -13 -19 -30 -22 -183 -3 -141 -1 -174 14 -208 l17 -40 14 50 c28 96 35 227 19 353 -4 34 -19 44 -42 28z"/>
 <path d="M7700 3430 c0 -5 5 -10 10 -10 6 0 10 5 10 10 0 6 -4 10 -10 10 -5 0 -10 -4 -10 -10z"/>
 <path d="M3867 3264 c-3 -4 -45 -10 -93 -15 -48 -5 -100 -16 -117 -24 -17 -8 -36 -15 -44 -15 -36 0 -193 -114 -193 -140 0 -5 -5 -10 -11 -10 -5 0 -7 -4 -4 -10 3 -5 1 -10 -4 -10 -12 0 -61 -92 -61 -115 0 -8 -4 -15 -8 -15 -5 0 -15 -19 -22 -42 -8 -24 -19 -50 -26 -58 -7 -8 -15 -35 -18 -59 -3 -25 -10 -47 -16 -51 -6 -4 -15 -38 -21 -76 -5 -38 -14 -84 -20 -102 -20 -61 11 -186 66 -269 29 -44 33 -55 20 -59 -28 -11 -17 -32 14 -28 28 3 30 1 37 -43 7 -45 32 -103 74 -168 11 -16 25 -41 30 -55 6 -13 14 -27 18 -30 4 -3 16 -25 27 -50 10 -25 27 -56 37 -69 10 -13 18 -29 18 -35 0 -6 16 -40 35 -76 19 -36 43 -81 52 -100 10 -19 21 -36 25 -38 4 -2 10 -20 14 -40 4 -20 11 -42 16 -49 5 -6 12 -52 15 -102 3 -50 9 -91 13 -91 7 0 21 38 24 62 1 3 4 10 9 14 4 4 7 20 7 35 0 15 4 30 9 34 5 3 12 19 16 35 13 58 67 63 98 10 10 -16 22 -30 27 -30 17 0 42 -73 41 -120 0 -25 -5 -70 -10 -100 -5 -30 -8 -152 -7 -270 2 -185 6 -227 25 -300 45 -172 74 -236 136 -303 25 -26 48 -47 51 -47 3 0 15 -11 26 -25 11 -14 23 -23 28 -20 12 7 12 198 0 325 -12 133 -23 304 -22 350 3 109 24 314 34 333 7 12 18 42 25 67 18 71 45 144 58 160 7 8 15 23 18 32 3 9 20 24 38 34 28 14 38 14 71 3 21 -6 38 -16 38 -21 0 -4 4 -8 9 -8 5 0 11 26 14 58 7 68 31 200 47 262 33 125 52 187 61 203 9 17 35 140 42 203 2 17 7 36 10 41 13 20 31 280 21 302 -4 9 -9 29 -11 46 -8 55 -64 214 -95 270 -6 10 -23 43 -39 73 -15 29 -40 65 -56 80 -38 36 -109 82 -127 82 -7 0 -19 6 -25 14 -7 8 -26 18 -42 21 -16 4 -31 11 -34 16 -4 5 -14 5 -26 -2 -26 -14 -44 -7 -44 17 0 21 -95 75 -167 94 -51 14 -123 21 -131 14z m200 -81 c18 -3 36 -10 41 -17 21 -26 45 -119 61 -231 9 -66 20 -126 25 -133 4 -6 9 -60 12 -119 3 -60 8 -124 11 -143 2 -19 7 -70 10 -113 4 -64 2 -82 -12 -97 -11 -13 -20 -48 -25 -107 -9 -94 -30 -215 -57 -328 -44 -187 -95 -382 -105 -400 -7 -11 -15 -36 -18 -55 -6 -29 -8 -32 -14 -15 -4 11 -11 29 -16 40 -4 11 -15 47 -25 80 -10 33 -22 65 -26 70 -12 19 -28 80 -31 125 -2 25 -7 51 -12 58 -4 6 -4 18 1 24 9 16 4 69 -8 84 -4 5 -8 30 -7 55 1 24 0 94 -1 154 -3 92 -7 116 -25 145 -42 69 -48 87 -44 136 5 50 28 125 55 179 19 37 31 139 38 320 8 199 15 265 28 265 7 0 4 7 -5 14 -22 16 -24 30 -3 23 8 -4 17 -3 19 2 3 4 27 4 53 -1 26 -5 62 -12 80 -15z"/>
 <path d="M7066 3181 c-3 -4 -5 -55 -5 -113 0 -58 -1 -109 -2 -114 -1 -5 0 -13 1 -19 1 -5 0 -55 -1 -110 -7 -245 -1 -338 26 -415 9 -24 16 -54 17 -67 2 -13 5 -23 9 -23 3 0 11 -15 17 -32 9 -27 10 -17 6 57 -4 50 -10 98 -16 108 -12 23 -15 386 -4 442 4 22 10 80 13 129 4 71 1 97 -13 128 -16 36 -36 48 -48 29z"/>
 <path d="M6682 2990 c0 -14 2 -19 5 -12 2 6 2 18 0 25 -3 6 -5 1 -5 -13z"/>
 </g>
<g id="layer2" fill="#0e5d8e" stroke="none">
 <path d="M4399 11943 c-9 -2 -21 -15 -27 -28 -9 -18 -19 -25 -41 -25 -16 0 -34 -6 -40 -14 -10 -12 -29 -17 -116 -32 -16 -3 -43 -11 -60 -19 -16 -7 -70 -23 -120 -35 -49 -12 -104 -28 -122 -36 -17 -8 -40 -14 -51 -14 -12 0 -24 -4 -27 -10 -3 -5 -15 -10 -26 -10 -30 0 -77 -27 -84 -49 -3 -10 -10 -45 -15 -77 -5 -33 -14 -60 -20 -62 -5 -2 -10 -10 -10 -17 0 -7 -9 -15 -20 -18 -11 -3 -24 -16 -29 -30 -14 -36 -118 -134 -221 -208 -49 -35 -95 -74 -101 -86 -7 -13 -18 -23 -25 -23 -7 0 -17 -6 -21 -13 -4 -8 -20 -22 -35 -32 -16 -9 -28 -23 -28 -29 0 -6 -15 -19 -32 -29 -18 -10 -55 -38 -83 -64 -76 -70 -145 -123 -161 -123 -7 0 -21 -12 -31 -27 -21 -34 -85 -116 -96 -124 -5 -3 -3 -60 4 -125 10 -106 8 -318 -7 -509 -7 -102 -17 -416 -20 -675 -2 -157 -5 -295 -6 -307 -2 -16 -15 -26 -52 -37 -26 -9 -55 -16 -63 -16 -24 0 -46 -69 -44 -140 0 -47 9 -85 31 -139 37 -91 37 -108 0 -151 -16 -19 -29 -40 -30 -45 0 -6 -16 -28 -35 -50 -19 -22 -35 -45 -35 -52 0 -6 -9 -15 -20 -18 -11 -3 -20 -10 -20 -15 0 -12 -33 -50 -120 -140 -41 -43 -102 -108 -135 -145 -101 -113 -319 -335 -330 -335 -5 0 -26 -19 -45 -41 -19 -23 -46 -51 -59 -63 -14 -11 -33 -29 -43 -38 -10 -10 -21 -18 -24 -18 -3 0 -39 -33 -79 -72 -40 -40 -99 -97 -131 -126 -33 -29 -86 -78 -119 -110 -33 -31 -74 -68 -91 -82 -130 -103 -304 -275 -304 -299 0 -30 19 -36 43 -14 47 43 66 36 61 -22 -1 -16 -5 -168 -8 -337 l-7 -307 -34 -51 c-19 -29 -35 -58 -35 -65 0 -7 -7 -15 -15 -18 -8 -4 -21 -21 -29 -39 -15 -32 -36 -68 -46 -78 -12 -12 -60 -111 -60 -124 0 -8 -7 -16 -15 -20 -8 -3 -15 -13 -15 -21 0 -9 -5 -26 -12 -38 -12 -21 -20 -43 -85 -222 -16 -45 -32 -86 -36 -91 -3 -6 -9 -69 -13 -140 -5 -109 -3 -137 12 -179 9 -27 21 -68 25 -90 9 -47 33 -119 53 -155 8 -14 17 -44 21 -67 4 -24 11 -43 15 -43 5 0 12 -20 16 -45 3 -25 10 -48 15 -51 5 -3 9 -14 9 -24 0 -11 11 -44 24 -74 13 -29 27 -73 31 -97 4 -24 11 -50 15 -59 8 -17 29 -64 40 -95 21 -54 50 -164 50 -188 0 -15 7 -44 16 -65 10 -22 18 -78 21 -137 3 -55 12 -112 19 -127 16 -32 18 -89 4 -137 -5 -19 -14 -70 -20 -115 -7 -45 -18 -97 -27 -116 -22 -51 -55 -114 -63 -120 -4 -3 -15 -20 -24 -37 -9 -18 -23 -33 -31 -33 -8 0 -15 -6 -15 -14 0 -8 -5 -18 -12 -22 -8 -5 -9 7 -4 47 9 63 8 271 0 346 -4 32 -14 60 -27 74 l-20 22 -9 -22 c-4 -12 -3 -41 2 -64 5 -23 10 -70 10 -105 0 -55 -2 -63 -18 -60 -15 3 -18 21 -25 133 -11 185 -11 183 -43 250 -25 55 -64 170 -64 192 0 13 -4 23 -9 23 -5 0 -13 10 -17 23 -15 50 -133 276 -167 320 -13 18 -27 43 -32 56 -11 37 -44 89 -60 95 -9 3 -15 19 -15 39 0 19 -9 46 -20 60 -11 14 -20 28 -20 32 0 4 -16 32 -35 63 -19 32 -36 66 -38 77 -1 11 -5 25 -9 30 -16 26 -59 228 -67 314 -15 157 -14 170 24 246 19 39 41 79 48 90 44 72 97 145 124 175 18 19 33 41 33 48 0 7 16 35 35 62 19 27 35 53 35 57 0 5 9 19 20 33 11 14 20 32 20 41 0 9 6 19 14 22 7 3 17 18 20 34 4 15 13 35 21 43 7 8 16 26 20 40 9 28 76 177 104 230 21 39 52 95 73 131 7 13 28 45 46 71 17 26 32 55 32 63 0 8 4 15 8 15 5 0 16 16 25 35 9 19 21 35 26 35 5 0 15 15 22 33 7 17 26 45 41 60 22 23 27 34 21 55 -3 15 -11 30 -16 34 -17 11 -52 -12 -65 -42 -7 -15 -28 -44 -47 -64 -18 -20 -36 -49 -40 -66 -4 -16 -13 -30 -21 -30 -8 0 -19 -11 -24 -25 -5 -14 -14 -25 -18 -25 -5 0 -17 -21 -27 -47 -9 -27 -27 -64 -39 -83 -21 -33 -73 -136 -95 -190 -6 -14 -15 -32 -20 -40 -19 -31 -61 -128 -61 -141 0 -8 -9 -25 -20 -39 -11 -14 -20 -29 -20 -33 0 -4 -15 -32 -34 -61 -18 -29 -37 -63 -41 -75 -4 -12 -19 -35 -34 -49 -15 -15 -43 -49 -62 -77 -19 -27 -39 -55 -46 -62 -20 -22 -80 -126 -88 -153 -4 -14 -13 -32 -20 -40 -26 -32 -65 -121 -65 -147 0 -16 4 -44 9 -63 5 -19 14 -69 21 -110 7 -41 20 -102 31 -136 10 -33 23 -91 29 -130 7 -41 21 -84 35 -106 14 -21 25 -44 25 -53 0 -8 4 -15 10 -15 5 0 12 -12 16 -27 14 -63 38 -133 46 -133 4 0 8 -7 8 -16 0 -9 8 -28 18 -42 10 -15 22 -35 25 -44 4 -10 12 -18 19 -18 8 0 29 -28 47 -62 19 -35 45 -77 59 -95 30 -41 62 -103 62 -123 0 -8 9 -26 20 -40 11 -14 20 -28 20 -33 0 -4 9 -26 19 -50 11 -23 25 -61 31 -84 6 -23 15 -45 20 -48 6 -3 10 -20 10 -36 0 -17 4 -49 9 -72 21 -95 31 -234 33 -441 1 -210 2 -219 23 -242 30 -32 69 -31 110 4 18 15 52 38 75 52 46 27 76 68 104 142 10 27 23 51 29 55 42 27 77 199 82 403 3 90 0 131 -9 145 -7 11 -19 45 -26 75 -7 30 -16 65 -21 78 -5 13 -9 37 -9 55 0 35 -65 246 -81 261 -5 6 -9 18 -9 28 0 10 -4 18 -9 18 -5 0 -11 22 -15 48 -3 27 -13 57 -21 68 -8 10 -15 31 -15 47 0 15 -4 35 -9 45 -17 33 -40 97 -47 132 -3 19 -10 41 -14 50 -4 8 -20 56 -35 105 -14 50 -35 113 -46 140 -38 101 -33 307 12 460 36 121 32 113 128 318 28 60 51 111 51 113 0 2 8 13 18 23 9 11 33 45 52 75 32 53 35 55 43 34 13 -35 10 -362 -4 -463 -8 -49 -14 -153 -15 -230 -1 -77 -5 -179 -9 -228 -4 -52 -3 -113 4 -152 16 -88 82 -251 112 -275 3 -3 12 -16 19 -29 13 -26 24 -40 53 -72 9 -10 17 -23 17 -28 0 -5 7 -14 15 -21 19 -16 19 -30 1 -30 -25 0 -26 -46 -4 -126 48 -178 72 -729 44 -989 -9 -82 -21 -163 -26 -180 -5 -16 -14 -56 -20 -88 -11 -54 -39 -138 -61 -179 -5 -10 -9 -24 -9 -32 0 -7 -10 -26 -21 -40 -19 -25 -20 -32 -10 -67 13 -44 37 -51 50 -16 5 13 16 29 25 36 9 7 16 20 16 28 0 11 7 13 26 9 22 -6 35 1 83 46 31 29 71 61 89 70 18 10 35 25 39 35 4 10 15 24 25 31 10 7 18 19 18 26 0 7 9 31 20 54 11 22 20 49 20 60 0 10 6 24 12 30 12 12 43 105 57 172 5 24 12 35 24 34 9 -1 17 2 17 6 0 4 11 20 25 36 14 16 25 37 25 47 0 9 5 17 10 17 6 0 10 19 10 43 0 24 5 48 10 53 14 14 -4 146 -32 239 -37 122 -77 195 -151 275 -28 30 -45 66 -52 108 -4 23 -11 42 -16 42 -12 0 -69 54 -69 65 0 5 -6 16 -14 24 -7 9 -26 48 -41 86 -15 39 -31 75 -35 80 -4 6 -11 21 -15 35 -4 13 -30 46 -56 72 -27 27 -49 54 -49 61 0 6 -9 23 -20 37 -11 14 -20 29 -20 33 0 4 -9 27 -19 50 -47 104 -53 257 -26 687 21 322 21 294 7 520 -13 206 -15 338 -9 577 5 185 14 212 86 250 43 23 254 83 293 83 25 0 171 34 186 44 5 3 44 6 88 6 80 1 170 24 178 45 2 7 1 17 -4 24 -6 11 -12 11 -31 0 -13 -7 -67 -18 -119 -25 -52 -7 -107 -15 -122 -17 -16 -3 -31 -1 -34 4 -4 6 -11 6 -19 -1 -8 -6 -27 -13 -44 -15 -16 -2 -50 -13 -76 -25 -25 -11 -64 -25 -88 -29 -23 -5 -55 -14 -72 -19 -51 -18 -148 -32 -181 -26 -22 3 -35 -1 -49 -16 -10 -11 -21 -20 -26 -20 -14 0 3 39 20 45 9 3 39 26 68 52 28 27 60 54 71 62 11 8 26 25 33 38 7 12 17 23 22 23 5 0 20 11 33 25 13 14 27 25 33 25 5 0 31 27 57 59 26 32 71 73 101 91 31 19 53 40 53 50 0 19 30 50 48 50 7 0 17 9 24 20 7 11 17 20 23 20 16 0 60 38 161 138 52 50 99 92 104 92 6 0 10 4 10 10 0 5 44 53 98 107 94 95 194 207 200 224 7 17 60 69 71 69 6 0 11 4 11 9 0 4 27 37 61 72 96 101 159 179 159 197 0 6 9 14 21 17 11 4 36 29 56 56 19 27 42 53 51 58 11 6 15 23 13 66 -2 56 -12 87 -51 155 -33 57 -23 151 14 137 9 -4 24 -3 34 2 43 23 56 26 167 40 61 8 81 8 87 -2 6 -9 8 -9 8 2 0 18 239 12 263 -7 9 -8 21 -11 27 -7 5 3 10 2 10 -3 0 -6 11 -13 25 -16 14 -4 25 -11 25 -17 0 -5 12 -20 27 -33 24 -21 27 -31 27 -78 -1 -51 -27 -118 -45 -118 -4 0 -14 -17 -22 -37 -9 -21 -29 -53 -46 -71 -24 -26 -29 -38 -25 -62 4 -16 15 -32 25 -35 11 -4 19 -11 19 -16 0 -5 5 -9 10 -9 12 0 59 -50 60 -63 0 -4 14 -22 30 -40 17 -18 33 -44 37 -59 3 -15 12 -33 19 -39 8 -6 14 -16 14 -21 0 -6 10 -23 23 -38 12 -15 30 -40 39 -56 32 -53 43 -68 69 -91 31 -26 139 -157 139 -167 0 -4 14 -36 30 -71 17 -35 30 -71 30 -80 0 -17 36 -102 70 -167 11 -20 20 -44 20 -52 0 -8 10 -27 23 -43 12 -15 28 -39 34 -53 32 -71 43 -99 43 -105 0 -8 36 -88 51 -115 5 -8 16 -31 26 -50 9 -19 20 -37 23 -40 4 -3 10 -18 14 -35 4 -16 11 -32 16 -35 17 -11 70 -142 70 -174 0 -19 4 -37 9 -40 7 -5 15 -69 27 -221 2 -22 3 -40 4 -40 7 0 7 -78 0 -105 -5 -19 -11 -55 -14 -80 -4 -39 -14 -77 -33 -130 -3 -8 -7 -31 -8 -51 -2 -19 -10 -56 -19 -82 -9 -26 -16 -56 -16 -65 0 -10 -6 -26 -14 -37 -7 -11 -16 -38 -20 -59 -4 -22 -14 -49 -22 -60 -8 -11 -14 -32 -14 -47 0 -15 -9 -55 -19 -90 -11 -35 -22 -80 -24 -99 -6 -41 -25 -93 -26 -69 -1 26 -48 69 -76 69 -14 0 -25 -4 -25 -9 0 -5 -9 -11 -20 -14 -11 -3 -25 -18 -32 -34 -7 -15 -18 -34 -25 -40 -6 -7 -21 -39 -32 -70 -12 -32 -26 -65 -31 -73 -6 -8 -13 -22 -16 -30 -3 -8 -14 -33 -25 -56 -10 -23 -19 -50 -19 -60 0 -10 -7 -28 -15 -38 -8 -11 -15 -34 -15 -52 0 -18 -4 -35 -9 -38 -4 -3 -11 -29 -14 -59 -4 -29 -16 -79 -27 -111 -14 -41 -21 -93 -24 -177 -2 -66 -6 -123 -10 -126 -4 -4 -20 7 -37 23 -25 25 -32 43 -39 95 -4 35 -13 76 -18 90 -6 15 -8 30 -5 33 4 3 8 61 10 128 4 153 18 253 42 292 30 51 73 223 73 291 0 26 19 107 28 120 4 6 10 24 13 40 12 59 27 131 42 200 23 104 19 405 -6 421 -4 2 -6 11 -3 19 3 8 1 29 -5 47 -6 18 -15 68 -20 110 -5 42 -16 91 -25 109 -9 18 -16 46 -16 62 0 16 -9 48 -19 71 -40 85 -61 136 -61 146 0 5 -4 10 -8 10 -4 0 -16 14 -26 31 -10 16 -29 34 -42 39 -13 5 -24 15 -24 22 0 7 -19 29 -42 48 -59 51 -78 72 -78 88 0 8 -16 30 -35 49 -34 33 -37 34 -60 19 -13 -9 -29 -16 -35 -16 -6 0 -37 -26 -69 -57 -32 -32 -87 -85 -122 -118 -58 -54 -82 -83 -114 -134 -5 -9 -12 -18 -15 -21 -14 -12 -53 -74 -81 -127 -17 -32 -36 -61 -42 -65 -14 -9 -13 -274 2 -292 5 -6 12 -31 16 -56 4 -25 14 -65 22 -89 13 -38 13 -57 3 -120 -11 -72 -47 -171 -62 -171 -3 0 -23 -15 -43 -34 -20 -19 -52 -42 -72 -51 -66 -32 -122 -115 -77 -115 20 0 73 37 98 68 10 13 21 21 24 17 3 -3 15 3 26 13 29 26 53 33 64 19 9 -11 41 -65 67 -114 6 -12 30 -45 52 -75 39 -50 56 -78 106 -173 12 -22 27 -47 33 -55 6 -8 15 -26 19 -40 4 -14 16 -31 26 -38 11 -7 19 -19 19 -27 0 -8 9 -30 21 -50 12 -19 19 -42 15 -50 -3 -8 1 -20 8 -28 8 -7 17 -29 21 -48 4 -19 11 -38 15 -44 4 -5 15 -37 24 -70 10 -33 24 -74 32 -92 8 -17 14 -38 14 -46 0 -9 6 -17 13 -19 7 -3 12 -26 13 -64 1 -79 -3 -90 -28 -67 -19 17 -20 17 -34 -2 -8 -10 -14 -26 -14 -36 0 -9 -8 -45 -19 -80 -10 -35 -24 -97 -31 -136 -7 -40 -16 -73 -20 -73 -4 0 -11 -24 -14 -52 -4 -29 -11 -57 -15 -63 -5 -5 -18 -37 -29 -71 -29 -85 -83 -195 -99 -201 -7 -3 -11 -8 -8 -12 7 -12 -62 -71 -83 -71 -11 0 -22 -7 -26 -15 -5 -14 -13 -14 -53 2 -10 3 -22 7 -28 7 -14 1 -22 65 -13 101 4 16 8 60 8 97 0 43 4 68 11 68 11 0 10 31 -10 190 -12 100 -18 124 -43 168 -10 18 -18 38 -18 44 0 19 -31 47 -46 41 -17 -6 -19 -60 -3 -65 6 -2 22 -40 35 -83 20 -71 23 -102 23 -265 1 -221 -1 -276 -12 -286 -12 -12 -27 17 -27 53 0 17 -4 35 -10 38 -5 3 -10 20 -9 38 0 52 -10 167 -17 190 -4 12 -8 38 -9 57 -4 51 -37 224 -44 230 -12 9 -41 77 -47 112 -4 18 -12 40 -18 48 -7 8 -18 29 -26 45 -8 17 -21 36 -27 43 -7 7 -13 20 -13 28 0 8 -4 14 -10 14 -5 0 -16 15 -25 33 -8 17 -19 39 -24 47 -13 23 -48 102 -56 129 -4 13 -20 44 -35 68 -15 24 -31 59 -34 77 -4 19 -13 39 -21 46 -7 6 -17 25 -20 41 -4 16 -11 29 -15 29 -5 0 -12 16 -16 35 -3 19 -12 39 -19 45 -8 6 -17 26 -21 43 -3 17 -12 41 -19 52 -7 11 -16 36 -20 55 -4 19 -11 40 -15 45 -4 6 -11 26 -15 45 -4 19 -16 51 -25 70 -22 42 -50 156 -50 200 0 46 70 252 91 270 10 8 21 27 25 43 3 15 10 30 15 33 5 3 9 12 9 21 0 8 8 27 19 41 10 15 22 38 26 52 4 14 10 27 14 30 19 16 61 89 61 108 0 12 9 31 20 42 11 11 20 29 20 39 0 10 7 22 16 25 8 3 13 10 10 15 -3 5 3 19 13 32 10 13 24 42 31 64 7 22 19 46 27 53 7 7 13 27 13 43 0 24 -4 29 -23 29 -15 0 -29 -9 -37 -25 -12 -23 -32 -35 -29 -17 7 43 0 49 -58 47 -69 -2 -105 4 -97 16 8 14 -19 10 -40 -6 -11 -8 -38 -15 -61 -15 -23 0 -50 -7 -61 -15 -10 -8 -28 -15 -39 -15 -11 0 -36 -13 -55 -29 -19 -15 -51 -36 -70 -46 -19 -10 -42 -26 -50 -35 -8 -9 -20 -19 -25 -21 -21 -8 -95 -97 -95 -113 0 -10 -5 -27 -12 -39 -7 -14 -12 -88 -14 -197 -1 -96 -8 -220 -15 -275 -6 -55 -13 -228 -15 -385 -1 -157 -7 -303 -12 -325 -14 -52 -17 -152 -7 -188 4 -15 15 -32 25 -37 10 -5 35 -44 56 -87 21 -43 41 -80 44 -83 4 -3 12 -20 19 -38 8 -18 29 -49 47 -70 53 -59 54 -61 54 -72 0 -5 4 -10 9 -10 5 0 9 -12 9 -27 0 -23 16 -44 42 -55 9 -4 100 -176 100 -189 0 -12 24 -69 46 -111 9 -16 13 -28 10 -28 -3 0 6 -16 19 -36 14 -20 24 -46 24 -58 -1 -18 -2 -18 -6 -3 -3 10 -12 17 -21 15 -15 -3 -17 -20 -19 -128 -1 -128 -16 -229 -38 -265 -6 -11 -15 -33 -19 -50 -4 -16 -27 -57 -50 -90 -23 -33 -53 -81 -67 -105 -13 -25 -28 -48 -32 -51 -5 -4 -14 -17 -20 -29 -7 -13 -16 -22 -21 -20 -5 1 -13 -6 -18 -14 -11 -19 9 -73 29 -81 12 -4 62 61 64 82 0 5 16 28 35 53 18 25 38 55 44 68 5 12 14 22 18 22 16 0 62 75 94 152 30 70 32 81 36 239 4 162 4 165 25 165 13 -1 22 5 23 14 0 8 4 23 9 33 5 11 -3 38 -24 78 -17 33 -31 65 -31 71 0 5 -8 22 -19 36 -10 15 -22 38 -26 52 -8 26 -84 182 -136 279 -31 58 -35 94 -19 163 5 24 21 97 35 163 15 66 30 121 35 123 11 4 62 102 53 102 -4 0 -2 5 5 12 7 7 12 20 12 29 0 9 7 22 15 29 12 10 15 10 15 -3 0 -8 22 -59 49 -114 60 -121 91 -189 91 -201 0 -6 7 -12 15 -16 8 -3 15 -12 15 -21 0 -8 11 -33 25 -55 14 -22 25 -42 25 -45 0 -15 84 -172 109 -204 36 -47 74 -138 66 -159 -8 -21 16 -102 31 -102 34 0 82 -235 90 -440 7 -185 9 -197 43 -214 18 -10 31 -12 38 -5 5 5 51 12 103 15 55 3 105 11 124 21 51 26 138 123 135 151 -3 36 2 51 25 80 27 31 69 134 80 197 4 22 12 46 18 53 6 6 7 12 3 12 -4 0 -2 6 4 14 7 8 11 20 10 28 -1 7 1 40 6 73 5 33 8 64 7 69 -2 4 2 23 8 41 9 26 15 32 31 28 25 -7 78 50 79 84 0 12 4 24 9 27 4 3 11 35 15 71 6 64 1 90 -35 157 -5 10 -9 26 -9 37 0 10 -6 24 -14 30 -8 7 -18 26 -21 42 -4 17 -13 42 -21 57 -8 15 -14 35 -14 45 0 10 -9 30 -19 45 -11 15 -22 43 -25 63 -4 21 -13 42 -21 49 -8 7 -15 19 -15 27 0 16 -38 87 -81 151 -16 24 -29 47 -29 51 0 4 -9 18 -20 31 -11 13 -20 32 -20 43 0 11 -16 39 -35 62 -36 45 -135 220 -135 240 0 7 9 32 19 57 11 24 22 61 25 83 2 22 5 42 6 45 1 3 2 42 1 86 0 70 -5 90 -30 138 -26 51 -28 63 -26 144 3 80 23 160 50 202 21 32 35 63 35 77 0 17 37 90 48 95 5 1 31 32 60 68 81 104 172 178 228 187 35 6 37 5 31 -18 -9 -33 -7 -35 76 -87 15 -9 30 -26 33 -37 4 -11 14 -27 23 -36 35 -35 54 -64 90 -133 20 -39 47 -85 60 -102 13 -18 25 -49 26 -71 2 -21 11 -57 21 -78 9 -22 19 -58 21 -80 2 -22 9 -55 15 -74 6 -19 10 -57 9 -84 0 -28 4 -54 9 -57 10 -6 15 -292 5 -330 -4 -14 -11 -49 -15 -78 -5 -29 -13 -58 -18 -65 -5 -7 -13 -28 -17 -47 -3 -19 -15 -60 -24 -90 -23 -70 -38 -140 -46 -212 -5 -43 -12 -62 -27 -72 -15 -11 -21 -25 -20 -48 1 -18 -8 -64 -20 -103 -11 -40 -22 -111 -25 -169 -2 -55 -8 -107 -12 -116 -4 -8 -6 -33 -5 -55 2 -22 4 -62 5 -88 1 -26 5 -50 9 -52 3 -2 7 -25 9 -51 2 -45 31 -104 51 -104 10 0 127 -115 150 -148 12 -16 22 -20 43 -15 25 5 28 9 24 32 -5 22 -1 29 23 40 28 12 29 14 25 72 -2 32 -7 63 -10 69 -3 5 -2 10 3 10 5 0 13 19 17 43 4 23 10 51 12 62 4 23 36 98 57 135 8 14 25 46 37 72 12 27 25 48 30 48 5 0 9 8 9 18 0 10 5 23 12 30 15 15 67 170 68 202 0 14 14 63 31 110 17 47 34 108 39 135 5 28 11 59 13 70 5 29 39 137 48 155 16 31 68 217 74 265 4 28 16 75 26 105 26 72 69 359 69 452 0 40 -5 91 -10 113 -6 22 -14 74 -20 115 -5 41 -18 93 -30 115 -11 21 -20 47 -20 57 0 21 -41 108 -51 108 -8 0 -43 71 -55 110 -11 39 -94 209 -104 215 -6 3 -10 13 -10 22 0 16 -8 33 -84 194 -20 42 -36 83 -36 90 0 8 -6 25 -13 39 -80 150 -104 191 -130 228 -17 23 -34 42 -38 42 -4 0 -10 8 -13 18 -4 9 -29 42 -57 72 -68 74 -107 132 -147 214 -18 38 -46 83 -63 100 -70 71 -72 109 -10 185 53 64 72 107 78 176 4 51 2 64 -16 84 -12 13 -21 28 -21 32 0 39 -177 139 -247 139 l-44 0 5 53 c5 48 8 121 21 442 3 66 10 154 15 195 6 41 12 224 15 406 2 182 7 338 10 346 4 9 14 18 23 20 19 5 37 37 47 82 5 26 155 186 174 186 4 0 28 19 52 43 24 24 51 47 59 51 36 17 61 34 91 64 18 18 38 32 44 32 6 0 21 10 33 23 51 55 82 63 82 22 0 -14 5 -25 10 -25 6 0 10 -8 10 -17 0 -10 11 -31 24 -46 14 -16 26 -33 28 -38 2 -6 28 -12 58 -15 58 -6 54 -7 130 54 15 12 33 22 39 22 5 0 15 9 21 20 6 11 18 20 26 20 9 0 28 6 42 14 42 22 94 44 125 52 16 3 31 12 34 20 2 7 17 16 33 19 16 3 34 13 41 21 15 19 83 54 103 54 14 0 43 27 70 64 12 18 16 18 47 6 19 -8 36 -16 39 -19 3 -3 25 -17 50 -30 25 -13 53 -31 62 -40 10 -9 28 -24 40 -33 13 -10 46 -35 73 -56 28 -22 71 -49 98 -60 26 -12 47 -26 47 -31 0 -6 6 -11 13 -11 8 0 24 -12 38 -26 13 -14 47 -36 76 -49 50 -23 52 -26 58 -72 3 -26 10 -73 16 -103 26 -130 29 -167 35 -395 3 -132 9 -267 13 -301 4 -33 4 -128 0 -210 -4 -82 -10 -239 -13 -349 -5 -170 -23 -342 -41 -394 -4 -10 -29 -12 -129 -6 -119 7 -126 6 -168 -16 -23 -13 -44 -27 -46 -31 -2 -4 -22 -30 -44 -59 -34 -42 -42 -61 -46 -103 -6 -69 28 -144 97 -216 48 -50 68 -100 40 -100 -12 0 -69 -58 -108 -110 -14 -19 -32 -39 -38 -43 -7 -4 -13 -14 -13 -21 0 -12 -25 -36 -112 -109 -15 -12 -27 -25 -27 -29 -1 -4 -29 -33 -63 -65 -92 -85 -150 -146 -178 -187 -14 -20 -33 -47 -44 -59 -10 -12 -36 -46 -58 -74 -21 -29 -42 -53 -47 -53 -4 0 -13 -10 -19 -22 -7 -13 -28 -43 -47 -68 -43 -56 -65 -98 -65 -122 0 -10 -5 -18 -11 -18 -15 0 -37 -58 -45 -118 -4 -36 -3 -52 5 -52 6 0 11 9 11 19 0 11 4 22 9 26 5 3 12 19 16 35 4 16 12 33 19 37 7 5 19 26 26 48 7 22 26 56 41 76 16 20 29 41 29 45 0 5 27 36 60 69 33 33 60 65 60 72 0 7 6 16 14 20 16 10 93 103 121 148 32 50 118 140 136 140 15 0 245 244 265 281 10 19 22 34 26 34 3 0 13 6 20 13 21 19 56 37 73 37 8 0 15 5 15 10 0 7 7 7 21 -1 27 -14 38 -3 46 44 4 30 2 38 -13 44 -11 3 -21 9 -24 12 -3 4 -30 26 -60 51 -64 52 -89 80 -90 98 0 7 -7 15 -15 18 -33 13 -5 152 39 193 29 28 168 40 212 19 16 -8 36 -13 46 -11 9 2 20 -1 24 -8 5 -8 3 -10 -7 -4 -8 5 -2 -7 13 -26 26 -34 30 -35 96 -25 22 4 42 0 55 -9 12 -8 29 -15 39 -15 21 0 26 -50 6 -50 -7 0 -1 -11 14 -25 24 -21 31 -22 57 -12 25 9 33 8 49 -6 10 -9 23 -17 28 -17 5 0 22 -14 38 -30 16 -17 33 -30 37 -30 17 0 38 -95 30 -140 -12 -73 -25 -90 -66 -83 -34 5 -35 4 -35 -25 0 -36 22 -62 54 -62 22 0 96 86 96 113 0 7 4 17 10 23 23 23 7 150 -28 219 -17 35 -54 69 -112 105 -31 19 -40 30 -40 52 0 16 -5 37 -12 48 -10 15 -10 34 0 90 7 39 12 84 12 100 0 16 4 31 9 34 5 3 12 23 15 43 4 21 11 63 16 93 5 30 14 80 20 110 15 79 48 329 57 435 10 113 10 430 0 468 -13 49 -39 122 -47 132 -4 6 -11 37 -15 70 -10 89 -22 152 -26 135 -2 -8 -6 53 -11 135 -10 210 -18 295 -28 295 -4 0 -10 14 -14 30 -3 17 -21 47 -41 67 -19 20 -35 40 -35 44 0 4 -15 5 -32 3 -43 -7 -90 11 -86 32 2 12 -9 21 -37 30 -52 18 -90 40 -120 70 -13 13 -32 24 -42 24 -10 0 -29 12 -42 25 -13 14 -31 25 -40 25 -10 0 -42 22 -72 50 -31 29 -63 50 -77 50 -24 0 -60 18 -77 37 -5 7 -20 14 -32 16 -11 2 -28 8 -35 15 -8 6 -30 15 -49 18 -55 10 -129 55 -135 81 -4 13 -10 23 -15 23 -5 0 -9 8 -9 19 0 10 -17 34 -38 52 -21 19 -47 46 -56 62 -10 15 -21 26 -25 26 -3 -1 -13 -3 -22 -6z m294 -355 c9 -5 17 -17 17 -26 0 -14 7 -17 40 -14 35 4 41 1 50 -22 5 -14 15 -26 21 -26 7 0 18 -8 25 -17 13 -17 14 -17 8 0 -4 10 -1 17 6 17 10 0 96 -55 110 -71 3 -3 30 -15 60 -28 72 -30 159 -100 160 -127 0 -17 7 -21 35 -22 19 -1 57 -13 84 -27 28 -14 57 -25 66 -25 14 0 20 -13 15 -35 -1 -5 1 -7 5 -3 8 7 34 -18 53 -52 28 -47 43 -130 57 -305 9 -112 22 -208 35 -255 11 -41 25 -93 31 -115 6 -22 14 -56 19 -75 16 -57 26 -322 14 -341 -5 -8 -7 -26 -25 -249 -16 -193 -23 -244 -53 -390 -59 -290 -79 -360 -102 -360 -8 0 -14 -5 -14 -12 0 -6 -7 -4 -18 5 -10 10 -31 17 -46 17 -41 0 -51 36 -37 140 32 253 46 766 28 1095 -18 333 -25 610 -17 625 8 13 10 13 11 0 1 -8 5 5 8 30 8 54 3 80 -14 80 -7 0 -18 7 -25 16 -16 18 -56 41 -46 26 19 -31 -102 -1 -156 38 -15 11 -31 20 -36 20 -5 0 -20 10 -34 23 -13 12 -41 33 -61 47 -20 14 -35 30 -33 37 6 14 -21 26 -36 16 -6 -3 -8 -1 -4 5 7 12 -71 79 -87 74 -6 -2 -16 3 -22 10 -5 7 -23 19 -38 26 -15 6 -25 17 -22 22 4 6 -7 10 -24 10 -25 0 -31 4 -31 23 0 14 -3 18 -8 10 -22 -35 -51 60 -52 170 0 38 0 39 33 32 17 -4 40 -11 50 -17z m-788 -85 c19 -21 35 -45 35 -54 0 -9 7 -33 15 -52 29 -70 13 -323 -23 -359 -11 -11 -33 14 -61 67 -17 33 -19 41 -7 43 21 5 24 40 7 91 l-14 44 -24 -29 c-55 -67 -121 -129 -185 -172 -21 -13 -38 -29 -38 -33 0 -5 -5 -9 -10 -9 -6 0 -27 -16 -47 -35 -20 -19 -42 -35 -49 -35 -7 0 -14 -3 -16 -8 -5 -11 -114 -102 -123 -102 -12 0 -52 -38 -121 -114 -31 -34 -38 -38 -55 -28 -15 10 -23 9 -39 0 -21 -13 -56 -101 -46 -116 7 -11 8 -551 1 -689 -2 -55 -9 -130 -15 -165 -5 -34 -10 -190 -10 -344 0 -248 -2 -283 -16 -288 -9 -3 -19 -4 -24 -1 -4 3 -29 1 -55 -4 -27 -5 -61 -5 -77 0 -22 6 -39 4 -60 -7 -16 -9 -33 -12 -36 -9 -11 11 -2 869 13 1234 8 200 8 203 26 180 l19 -24 0 36 c0 20 -7 51 -16 68 -22 44 -14 114 17 147 13 13 29 22 37 19 8 -3 16 3 19 15 3 11 9 17 14 15 4 -3 17 3 29 15 11 11 22 20 25 20 3 0 24 18 45 39 22 22 48 41 58 43 9 2 18 9 18 16 1 6 2 16 3 22 0 5 16 17 34 26 17 9 35 22 39 27 3 6 21 18 39 26 18 9 41 32 52 51 23 42 63 80 83 80 7 0 14 4 14 9 0 12 72 57 85 53 6 -2 7 0 2 4 -4 4 26 40 67 79 56 54 82 73 102 73 15 0 32 6 38 14 41 54 57 68 87 76 l34 9 -3 57 -4 57 41 -21 c23 -11 57 -37 76 -57z m-645 -458 c-7 -9 -15 -13 -19 -10 -3 3 1 10 9 15 21 14 24 12 10 -5z m-982 -4147 c12 1 22 0 22 -2 0 -2 -23 -48 -52 -102 -28 -55 -75 -144 -104 -199 -28 -55 -67 -130 -87 -166 -19 -36 -47 -97 -62 -135 -16 -38 -32 -71 -36 -74 -11 -7 -65 -138 -74 -178 -7 -32 45 -249 67 -278 26 -36 56 -137 51 -172 -8 -46 -43 -102 -64 -102 -12 0 -20 -21 -33 -82 -9 -46 -21 -96 -26 -113 -5 -16 -11 -46 -15 -65 -4 -19 -13 -64 -21 -100 -8 -36 -17 -75 -20 -87 -2 -13 -8 -23 -13 -23 -11 0 -92 110 -103 143 -6 15 -14 27 -18 27 -5 0 -14 26 -21 58 -7 31 -22 77 -33 102 -18 38 -20 54 -14 100 4 30 7 161 6 290 -1 271 8 370 38 397 11 10 29 44 39 77 10 32 24 60 31 63 7 2 15 15 18 29 4 13 11 24 16 24 6 0 10 5 10 12 0 6 17 38 38 70 33 52 40 58 64 54 31 -6 45 8 54 54 5 20 26 52 56 82 65 66 80 100 61 140 -15 28 -16 29 -32 11 -10 -10 -21 -31 -24 -45 -4 -15 -14 -33 -22 -42 -8 -8 -15 -20 -15 -26 0 -6 -7 -13 -15 -16 -8 -4 -15 -12 -15 -19 0 -7 -10 -25 -22 -40 -20 -26 -22 -26 -34 -10 -12 16 -14 16 -28 2 -9 -9 -16 -22 -16 -30 0 -8 -8 -25 -18 -38 -10 -13 -29 -45 -42 -71 -14 -27 -28 -48 -32 -48 -5 0 -8 -6 -8 -14 0 -12 -40 -46 -55 -46 -8 0 -6 90 5 202 10 99 42 194 61 182 5 -2 12 4 18 14 16 30 106 118 150 147 50 34 80 37 103 10 17 -19 19 -19 31 -3 16 20 150 49 187 41 14 -3 35 -5 48 -5z m1684 -1348 c-1 -23 -11 -42 -27 -55 -18 -15 -26 -36 -34 -83 -6 -35 -14 -69 -19 -75 -5 -7 -12 -26 -15 -43 -3 -17 -20 -55 -36 -83 -17 -29 -31 -60 -31 -70 0 -10 -11 -31 -25 -47 -14 -16 -25 -36 -25 -44 0 -9 -13 -40 -28 -70 -36 -69 -52 -134 -53 -210 -1 -58 -11 -76 -23 -44 -3 9 -6 33 -6 54 0 21 -4 41 -9 44 -11 7 -7 52 8 89 6 16 11 42 11 58 0 17 4 28 9 25 9 -6 21 63 21 120 0 18 5 36 11 39 6 4 8 12 6 19 -3 7 6 35 19 62 13 27 24 59 24 72 0 12 5 22 10 22 6 0 10 7 10 15 0 8 5 15 10 15 6 0 10 8 10 18 0 22 22 72 33 72 4 0 7 8 7 17 0 10 16 42 37 71 34 49 39 53 72 50 34 -3 36 -4 33 -38z m-292 -887 c0 -10 -4 -24 -9 -32 -12 -19 -24 3 -16 29 8 25 25 26 25 3z m-2330 -133 c0 -10 6 -25 13 -32 17 -19 33 -47 53 -88 9 -19 21 -45 26 -56 6 -12 7 -31 3 -43 -12 -39 2 -58 43 -57 35 1 37 0 46 -41 5 -24 12 -43 17 -43 4 0 13 -26 19 -57 7 -32 18 -78 25 -103 7 -25 16 -87 20 -138 3 -51 11 -103 16 -116 8 -17 8 -37 -1 -72 -6 -27 -15 -80 -20 -119 -9 -78 -54 -221 -99 -317 -21 -45 -37 -66 -58 -75 -33 -14 -59 -31 -87 -56 -12 -10 -22 -14 -24 -9 -4 12 69 234 97 295 12 26 24 62 28 80 3 17 9 37 14 42 4 6 11 46 14 90 3 44 8 105 11 135 3 30 7 111 9 180 3 137 -8 180 -46 180 -19 0 -20 -4 -13 -42 13 -74 6 -353 -11 -426 -9 -37 -20 -87 -26 -111 -11 -50 -43 -116 -60 -127 -9 -5 -10 7 -4 47 4 30 7 62 7 72 0 9 3 17 8 17 7 0 6 430 -1 450 -3 6 -4 41 -13 245 -6 142 -22 300 -32 317 -3 4 2 5 10 2 9 -3 16 -14 16 -24z m295 -433 c4 -18 13 -39 20 -47 51 -61 78 -296 42 -375 -17 -38 -19 -39 -32 -21 -9 11 -12 29 -9 43 4 13 2 29 -4 36 -5 6 -13 66 -17 132 -4 66 -14 140 -21 165 -8 25 -14 62 -14 84 0 32 2 37 14 27 8 -7 18 -27 21 -44z m-835 -689 c0 -44 -14 -78 -25 -66 -10 10 5 108 16 108 5 0 9 -19 9 -42z m537 -75 c-3 -10 -5 -4 -5 12 0 17 2 24 5 18 2 -7 2 -21 0 -30z"/>
 <path d="M5622 8414 c-16 -18 -15 -44 2 -44 8 0 16 -7 20 -15 3 -8 12 -15 21 -15 8 0 15 -4 15 -8 0 -5 10 -14 23 -21 13 -7 31 -25 40 -41 9 -15 40 -43 69 -61 29 -18 55 -36 58 -40 3 -4 43 -26 89 -50 45 -23 88 -51 94 -61 7 -10 16 -18 20 -18 14 0 180 -162 247 -240 19 -23 60 -67 90 -100 59 -62 66 -71 93 -110 10 -14 21 -25 25 -26 19 -2 42 -17 42 -29 0 -6 9 -20 20 -30 11 -10 18 -20 16 -23 -3 -2 7 -15 22 -29 15 -13 21 -22 15 -18 -8 4 -11 1 -7 -9 3 -8 14 -18 25 -21 10 -4 19 -10 19 -14 0 -15 62 -81 71 -75 8 5 13 -9 10 -28 0 -3 42 -50 94 -102 52 -53 95 -101 95 -106 0 -6 4 -10 9 -10 5 0 34 -24 64 -52 138 -131 254 -239 282 -262 49 -42 115 -115 115 -129 0 -5 4 -6 9 -3 5 3 11 -4 14 -15 3 -12 10 -18 16 -15 12 8 62 -44 55 -56 -3 -5 8 -13 24 -19 16 -5 34 -21 41 -35 6 -13 18 -27 26 -30 8 -4 15 -14 15 -24 0 -11 10 -22 23 -25 27 -9 77 -54 77 -71 0 -6 6 -14 14 -17 29 -11 101 -181 136 -317 12 -48 16 -61 48 -130 12 -25 24 -65 28 -90 3 -25 20 -83 36 -130 16 -47 32 -98 35 -115 3 -16 10 -33 15 -36 18 -11 30 -444 25 -844 -6 -400 -18 -582 -43 -620 -7 -11 -18 -51 -25 -90 -6 -38 -19 -83 -27 -100 l-16 -30 -4 25 c-4 26 -57 80 -78 80 -14 0 -19 -14 -29 -77 -4 -23 -13 -44 -20 -47 -8 -3 -23 -38 -35 -78 -11 -40 -25 -83 -30 -96 -6 -13 -12 -46 -15 -75 -3 -29 -9 -63 -12 -77 -4 -14 -6 -28 -5 -31 1 -4 -3 -21 -8 -39 -26 -91 -32 -222 -10 -244 5 -5 10 -24 10 -41 0 -16 7 -43 15 -59 8 -15 12 -32 9 -37 -3 -6 0 -16 6 -24 10 -12 9 -15 -3 -15 -18 0 -47 26 -47 42 0 5 -24 51 -54 102 -30 51 -57 109 -61 129 -4 20 -11 37 -16 37 -4 0 -11 17 -14 38 -4 20 -14 66 -23 102 -16 66 -17 156 -3 175 5 5 12 26 16 45 4 19 17 48 29 65 12 16 37 66 55 110 18 44 37 88 42 97 21 41 59 165 65 212 8 66 33 136 49 136 7 0 15 7 19 15 8 23 -5 75 -19 75 -8 0 -16 14 -20 30 -12 54 -45 27 -45 -37 0 -23 -4 -52 -9 -65 -6 -13 -13 -41 -16 -63 -6 -35 -8 -37 -18 -20 -18 30 -37 136 -48 265 -10 119 -9 161 14 345 16 123 14 177 -9 321 -9 55 -20 122 -24 149 -9 59 -33 130 -65 200 -13 28 -29 61 -34 75 -6 14 -15 32 -21 40 -16 25 -58 126 -76 182 -10 29 -23 62 -31 73 -7 11 -13 27 -13 36 0 8 -11 38 -25 65 -14 27 -26 62 -27 77 -1 15 -6 31 -12 35 -6 4 -20 17 -31 30 -16 20 -17 25 -5 34 12 8 12 9 -2 4 -10 -3 -18 -1 -18 3 0 5 -8 7 -19 4 -16 -4 -19 3 -24 49 -4 29 -6 80 -6 113 0 33 -5 87 -10 120 -5 33 -10 85 -10 116 -1 31 -8 73 -16 93 -9 20 -13 41 -10 46 3 5 1 11 -5 15 -5 3 -10 22 -10 41 0 24 -5 34 -15 34 -9 0 -19 10 -24 22 -6 17 -17 22 -53 23 -25 1 -59 10 -75 20 -22 13 -40 16 -67 11 -43 -8 -44 -15 -8 -47 28 -26 60 -43 102 -55 28 -7 70 -42 70 -58 0 -6 7 -24 15 -40 8 -15 19 -66 25 -112 5 -47 11 -88 14 -92 2 -4 5 -68 7 -142 1 -80 8 -151 16 -174 22 -65 43 -165 43 -206 0 -21 4 -41 9 -44 16 -11 24 -141 10 -164 -11 -17 -11 -30 -2 -64 12 -46 7 -275 -7 -293 -5 -5 -13 -36 -19 -69 -6 -32 -15 -64 -19 -70 -5 -6 -15 -38 -22 -71 -14 -62 -23 -81 -53 -126 -24 -35 -46 -111 -57 -198 -5 -41 -14 -79 -19 -85 -10 -13 -20 -54 -25 -111 -3 -22 -27 -109 -55 -194 -28 -85 -51 -160 -51 -168 0 -20 -35 -120 -59 -170 -12 -23 -21 -48 -21 -56 0 -7 -4 -17 -8 -22 -5 -6 -15 -26 -22 -45 -7 -19 -29 -69 -47 -110 -19 -41 -37 -87 -40 -102 -3 -16 -8 -28 -12 -28 -3 0 -7 -12 -8 -27 -5 -64 -20 -143 -27 -150 -4 -4 -20 7 -35 26 -40 48 -43 39 -56 -164 -4 -54 -10 -106 -14 -115 -11 -22 -14 -192 -3 -199 5 -3 11 -30 14 -59 5 -51 -3 -66 -19 -38 -4 8 -23 18 -42 23 -25 7 -35 15 -38 33 -2 14 -9 27 -15 29 -24 8 -58 51 -58 71 0 13 -8 24 -20 27 -11 3 -20 14 -20 24 0 10 -9 23 -20 29 -11 6 -20 16 -20 23 -1 7 -14 28 -30 47 -17 19 -30 42 -30 52 0 9 -4 20 -10 23 -5 3 -10 16 -10 27 0 12 -8 30 -17 40 -9 10 -17 33 -18 51 -1 18 -9 59 -19 92 -14 47 -17 81 -13 155 5 98 13 121 83 235 38 63 96 190 108 238 4 16 17 45 29 65 13 20 29 56 35 80 7 23 17 42 22 42 6 0 10 6 10 13 0 6 6 24 14 39 8 14 19 58 26 97 6 39 15 71 20 71 7 0 14 39 26 155 8 82 8 79 -1 265 -9 191 -9 177 -2 300 3 52 10 106 15 120 6 14 16 40 22 58 7 17 16 32 20 32 8 0 13 22 26 105 3 22 10 47 14 55 4 8 11 35 14 60 4 25 13 77 21 115 34 168 40 334 16 435 -6 25 -11 60 -11 78 0 17 -4 32 -10 32 -5 0 -10 6 -10 14 0 27 -133 152 -175 166 -22 7 -45 18 -50 25 -6 7 -29 14 -50 16 -22 1 -57 11 -77 21 -21 10 -42 18 -48 18 -6 0 -20 9 -32 19 -11 11 -26 17 -34 14 -9 -3 -14 2 -14 13 0 14 -2 16 -9 6 -5 -9 -25 -13 -52 -12 -70 3 -77 1 -84 -20 -4 -13 1 -30 14 -46 12 -15 21 -35 21 -45 0 -10 5 -21 10 -24 6 -3 10 -21 10 -40 0 -47 41 -246 60 -290 18 -43 40 -136 35 -146 -4 -5 -2 -16 4 -23 7 -8 7 -23 1 -47 -6 -18 -10 -50 -10 -70 0 -41 -18 -101 -29 -94 -7 4 -24 -78 -37 -175 -2 -19 -7 -42 -11 -50 -7 -17 -10 -29 -18 -80 -3 -19 -14 -59 -26 -90 -12 -30 -23 -66 -25 -80 -10 -51 -33 -118 -63 -183 -17 -36 -31 -72 -31 -79 0 -7 -7 -33 -16 -58 -9 -25 -16 -54 -17 -65 0 -11 -9 -31 -19 -44 -10 -13 -18 -34 -18 -47 0 -12 -4 -26 -10 -29 -5 -3 -10 -26 -10 -50 0 -24 -4 -47 -10 -50 -5 -3 -10 -23 -10 -44 0 -20 -4 -41 -9 -46 -5 -6 -11 -46 -12 -90 -1 -44 -6 -93 -10 -110 -4 -16 -10 -59 -14 -95 -3 -36 -8 -81 -11 -100 -3 -19 -6 -74 -8 -121 -1 -47 -6 -91 -10 -97 -4 -7 -4 -16 -1 -22 5 -9 8 -28 18 -135 2 -16 0 -37 -4 -45 -7 -14 -31 -65 -93 -202 -16 -34 -33 -58 -42 -58 -8 0 -13 -4 -9 -10 5 -8 -11 -48 -26 -60 -3 -3 -16 -24 -29 -47 -13 -24 -27 -43 -31 -43 -9 0 -3 78 13 159 5 30 17 115 25 190 17 168 18 169 32 206 32 82 37 115 19 115 -4 0 -8 7 -8 15 0 22 -31 18 -37 -5 -3 -11 -8 -20 -12 -20 -3 0 -7 -17 -8 -38 -1 -39 -29 -187 -37 -200 -2 -4 -7 -27 -11 -52 -4 -25 -9 -49 -12 -54 -3 -5 -8 -34 -10 -65 -2 -31 -8 -69 -14 -86 -5 -16 -10 -58 -12 -93 -5 -84 -19 -97 -57 -52 -17 19 -37 55 -46 80 -8 25 -22 59 -30 75 -8 17 -17 43 -20 59 -3 16 -11 41 -19 57 -8 15 -15 34 -15 41 -1 7 -9 31 -20 53 -11 22 -19 43 -20 47 0 4 -5 19 -12 35 -6 15 -13 37 -14 48 -2 11 -16 53 -30 94 -18 50 -23 75 -16 80 7 4 8 12 2 21 -6 8 -10 25 -10 38 0 12 -4 22 -9 22 -4 0 -16 27 -25 60 -9 33 -24 77 -33 98 -9 20 -15 52 -14 70 2 18 -2 38 -7 45 -29 37 -32 327 -3 327 4 0 13 19 20 43 14 47 37 104 52 127 5 8 14 27 20 43 6 15 15 27 19 27 4 0 22 21 39 48 17 26 44 58 61 71 43 34 97 110 105 151 12 63 16 70 39 70 12 0 31 8 42 18 12 11 34 17 59 17 55 -1 78 8 81 32 4 24 -26 36 -60 24 -11 -5 -54 -14 -94 -21 -40 -8 -75 -17 -78 -22 -3 -4 -14 -8 -24 -8 -28 0 -44 59 -35 138 10 91 13 109 34 172 10 30 23 73 29 95 34 123 57 192 68 205 26 32 83 170 108 265 15 55 31 114 36 130 20 64 23 158 6 205 -9 25 -16 51 -16 58 0 7 -11 25 -25 40 -14 15 -25 31 -25 37 0 6 -18 32 -40 59 -22 26 -40 53 -40 60 0 6 -22 34 -48 62 -26 28 -58 69 -72 92 -14 23 -28 42 -32 42 -10 0 -58 46 -58 55 0 9 -52 55 -62 55 -4 0 -22 14 -40 30 -18 17 -38 30 -44 30 -7 0 -14 5 -16 11 -2 6 -17 11 -33 11 -17 0 -42 7 -58 14 -26 14 -53 14 -87 1 -34 -12 -61 -15 -94 -7 -30 7 -42 3 -83 -25 -85 -59 -142 -127 -204 -245 -24 -46 -38 -93 -48 -163 -14 -96 -14 -267 0 -327 5 -25 10 -52 11 -60 0 -8 13 -55 29 -105 16 -49 29 -101 29 -115 0 -14 9 -49 20 -78 11 -29 20 -65 20 -80 0 -15 4 -32 8 -38 5 -5 15 -43 21 -84 7 -41 26 -116 41 -166 16 -51 31 -111 33 -135 3 -24 10 -57 16 -72 6 -16 11 -41 11 -57 0 -16 5 -32 10 -35 6 -3 10 -20 10 -36 0 -17 4 -38 9 -48 5 -9 12 -42 15 -72 2 -30 5 -54 6 -54 5 0 9 -146 10 -370 1 -192 -2 -272 -15 -345 -9 -52 -20 -117 -24 -145 -4 -27 -12 -59 -18 -70 -6 -11 -8 -25 -6 -32 2 -6 -1 -14 -6 -18 -6 -3 -11 2 -12 12 -5 156 -16 216 -60 331 -5 13 -9 29 -9 37 0 19 -57 108 -134 210 -106 140 -148 185 -174 185 -15 0 -22 11 -31 44 -6 25 -11 57 -11 71 0 14 -6 36 -14 48 -8 12 -17 51 -21 87 -4 36 -11 70 -16 75 -4 6 -8 64 -9 130 0 66 -1 128 -1 137 0 21 -19 35 -20 16 -2 -33 -11 -73 -21 -91 -19 -37 14 -297 49 -377 4 -8 7 -19 8 -25 10 -77 20 -126 30 -151 7 -17 16 -51 20 -75 4 -24 12 -52 17 -62 5 -10 14 -46 19 -79 6 -34 18 -87 29 -117 10 -31 20 -69 23 -86 2 -16 6 -37 9 -45 6 -16 41 -132 43 -140 1 -3 5 -27 9 -55 4 -27 12 -54 16 -60 5 -5 21 -41 36 -80 25 -61 70 -119 90 -115 4 1 10 -4 15 -12 11 -18 92 -17 110 2 41 43 68 83 63 91 -3 6 -1 16 5 23 19 23 59 218 70 341 12 124 9 636 -4 690 -3 17 -6 39 -6 50 0 11 -9 54 -21 95 -19 69 -26 102 -43 200 -4 19 -10 44 -15 55 -4 11 -14 43 -21 70 -6 28 -15 55 -18 60 -18 27 -34 95 -41 171 -4 47 -12 90 -18 96 -6 6 -8 16 -5 23 2 8 0 23 -7 34 -6 11 -17 53 -24 93 -8 40 -25 125 -37 188 -19 92 -23 148 -24 285 0 166 1 172 29 240 16 39 39 84 51 100 12 17 27 44 33 60 13 33 55 70 112 101 35 19 41 20 118 25 23 1 42 5 42 9 0 4 25 -2 55 -12 31 -10 60 -16 65 -13 6 4 10 1 10 -4 0 -6 6 -11 14 -11 8 0 17 -7 20 -16 3 -8 10 -13 15 -9 6 3 15 -4 21 -15 6 -11 14 -19 19 -17 10 2 91 -98 91 -112 0 -6 6 -8 13 -5 8 3 27 -15 47 -43 18 -26 50 -64 70 -83 21 -19 50 -63 66 -97 16 -35 32 -63 36 -63 5 0 8 -11 8 -24 0 -13 6 -29 14 -35 7 -6 16 -30 19 -53 3 -22 11 -44 18 -49 11 -6 11 -19 0 -66 -8 -32 -15 -70 -16 -86 -1 -15 -5 -30 -8 -34 -4 -3 -7 -19 -7 -35 0 -34 -28 -126 -41 -134 -5 -3 -9 -14 -9 -25 0 -19 -10 -43 -77 -183 -12 -28 -23 -59 -23 -70 0 -12 -7 -34 -15 -50 -8 -15 -15 -36 -15 -45 0 -9 -7 -29 -15 -44 -8 -15 -17 -45 -21 -65 -3 -20 -12 -55 -21 -78 -18 -49 -23 -221 -7 -232 6 -4 14 -19 18 -34 5 -21 12 -28 31 -28 14 0 25 -4 25 -10 0 -5 -4 -10 -10 -10 -5 0 -10 -5 -10 -11 0 -11 -45 -70 -94 -124 -12 -13 -29 -34 -38 -47 -26 -34 -80 -99 -100 -120 -10 -10 -18 -24 -18 -32 0 -8 -5 -18 -11 -21 -6 -4 -8 -14 -5 -22 5 -13 -37 -111 -53 -123 -4 -3 -8 -25 -10 -50 -1 -25 -3 -47 -4 -50 0 -3 3 -16 6 -30 4 -14 12 -65 17 -115 13 -111 26 -191 36 -207 4 -6 9 -37 10 -68 1 -37 11 -77 28 -112 14 -30 26 -62 26 -71 0 -9 4 -18 9 -21 5 -3 12 -32 15 -63 6 -53 33 -155 60 -228 6 -16 11 -36 13 -44 4 -29 55 -187 74 -228 10 -24 19 -47 19 -53 0 -5 4 -10 10 -10 5 0 9 -3 7 -8 -1 -4 8 -18 21 -32 12 -13 22 -31 22 -39 0 -19 92 -101 113 -101 8 0 20 -7 27 -15 23 -27 48 -17 77 32 15 26 29 56 30 67 2 11 7 23 11 26 4 3 14 19 22 35 7 17 27 45 44 63 16 17 27 32 22 32 -4 0 4 15 17 33 23 31 51 91 52 112 1 6 15 39 33 75 18 36 32 75 32 88 0 12 5 22 10 22 7 0 8 15 4 43 -18 109 3 549 29 617 5 13 15 64 22 110 2 8 6 46 10 84 5 39 14 81 22 95 7 14 13 32 13 39 0 8 6 28 14 45 8 18 19 53 26 80 7 26 17 50 21 53 5 3 9 16 9 28 0 13 8 34 18 47 10 13 18 33 17 44 0 11 10 42 23 68 12 26 20 52 16 58 -3 5 -1 15 5 22 17 21 69 188 80 258 6 37 18 80 26 95 8 16 15 39 15 52 0 63 37 -9 65 -128 8 -36 25 -96 36 -135 20 -65 28 -85 50 -140 21 -51 40 -123 53 -193 7 -42 21 -97 30 -122 10 -25 21 -59 25 -75 4 -17 13 -40 19 -52 22 -41 25 -125 7 -208 -10 -44 -21 -103 -24 -131 -4 -29 -12 -58 -18 -65 -5 -8 -13 -26 -17 -41 -3 -16 -13 -28 -20 -28 -8 0 -17 -12 -20 -27 -10 -40 -48 -123 -57 -123 -4 0 -10 -16 -14 -36 -3 -20 -10 -44 -15 -53 -18 -36 -75 -156 -75 -161 0 -3 -13 -24 -28 -47 -15 -24 -27 -49 -27 -56 0 -7 -9 -22 -19 -34 -10 -11 -27 -44 -36 -74 -16 -50 -16 -63 -1 -183 9 -71 20 -134 24 -140 5 -6 15 -39 22 -74 7 -34 17 -65 21 -68 5 -3 9 -16 9 -29 0 -13 4 -26 9 -29 5 -4 25 -35 44 -70 35 -63 124 -188 139 -194 5 -2 8 -10 8 -18 0 -21 36 -57 51 -52 7 2 27 -16 43 -41 17 -25 37 -47 44 -47 6 -1 17 -2 22 -3 6 0 10 -8 10 -18 0 -9 3 -13 7 -10 3 4 15 -1 25 -10 17 -15 20 -15 28 -3 6 8 10 24 10 35 0 15 3 16 12 7 22 -22 37 -13 44 26 4 20 9 42 13 47 3 6 11 39 17 75 7 36 19 92 28 125 20 77 20 167 0 230 -23 72 -16 207 14 285 8 21 8 22 16 55 16 62 59 180 69 186 5 4 7 19 5 33 -4 18 0 31 11 39 22 16 38 54 45 101 3 22 11 43 17 47 6 4 13 25 14 46 1 23 12 53 25 70 12 17 20 35 17 40 -3 5 -1 29 5 54 6 24 10 54 9 67 0 12 6 25 14 28 8 4 15 11 15 18 0 6 6 23 13 37 8 14 17 45 21 69 4 24 12 51 19 59 7 8 14 63 17 132 4 72 11 124 18 131 7 7 12 19 12 29 0 9 13 32 28 52 42 52 132 293 132 351 0 11 5 45 12 77 l12 57 18 -34 c10 -19 18 -42 18 -51 0 -10 7 -27 15 -37 8 -10 22 -42 31 -70 8 -28 22 -65 30 -83 18 -41 18 -124 -1 -193 -20 -69 -34 -144 -45 -237 -5 -40 -16 -94 -25 -120 -9 -26 -19 -70 -21 -98 -3 -27 -11 -83 -20 -123 -8 -40 -16 -112 -19 -160 -4 -75 -14 -151 -29 -227 -12 -57 -34 -234 -41 -340 -4 -44 -8 -87 -11 -95 -2 -9 -6 -42 -9 -75 -5 -64 -11 -125 -24 -219 -5 -32 -9 -124 -10 -204 -1 -80 -6 -153 -10 -161 -13 -25 -16 -85 -14 -279 1 -100 7 -190 12 -200 5 -9 11 -57 15 -107 4 -74 3 -84 -6 -57 -6 17 -14 32 -17 32 -4 0 -7 10 -9 23 -1 13 -8 43 -17 67 -28 78 -34 182 -25 417 2 57 2 105 -1 107 -2 3 -2 31 1 63 3 32 2 92 -1 133 -7 88 -3 110 21 110 24 0 33 46 11 56 -9 4 -20 8 -26 8 -5 1 -11 11 -13 24 -4 26 -8 27 -30 6 -17 -18 -26 -114 -10 -114 5 0 6 -10 2 -22 -4 -13 -9 -106 -10 -208 -2 -102 -5 -205 -8 -230 -7 -64 -7 -160 -1 -171 3 -5 7 -28 9 -51 5 -75 30 -218 38 -218 4 0 8 -11 8 -25 0 -29 -5 -30 -53 -10 -61 25 -53 -2 22 -76 72 -70 91 -100 91 -145 0 -13 4 -24 9 -24 5 0 13 -9 16 -20 7 -24 13 -24 39 -5 16 12 17 18 8 27 -15 15 -16 48 -1 48 6 0 8 8 4 18 -3 11 -7 81 -10 158 -2 77 -9 162 -16 189 -14 59 -22 444 -10 459 5 6 11 85 15 176 7 175 9 212 27 356 6 51 12 107 13 125 1 19 4 39 7 44 3 6 7 39 8 75 1 36 10 111 21 168 11 57 20 116 20 133 0 16 5 29 11 29 8 0 9 14 5 43 -6 36 -3 47 16 67 19 20 23 37 24 100 1 41 5 86 8 98 3 13 11 70 17 125 7 56 20 129 30 161 11 33 26 98 35 145 18 101 29 142 55 196 10 23 22 62 25 87 5 39 3 52 -16 79 l-23 32 21 41 c32 62 36 90 16 111 -10 10 -28 40 -41 68 -13 27 -37 64 -53 80 -17 17 -30 35 -30 40 0 5 -11 22 -24 38 -33 39 -66 130 -66 183 0 25 -7 80 -15 123 -8 43 -15 93 -15 111 0 18 -5 42 -10 52 -7 13 -7 21 0 25 5 3 10 -2 10 -12 0 -10 9 -31 20 -48 27 -39 71 -140 162 -370 10 -27 32 -77 49 -110 16 -34 32 -76 35 -95 4 -19 11 -42 15 -52 15 -28 60 -276 59 -325 0 -27 0 -70 -1 -98 0 -27 -2 -66 -5 -85 -2 -19 -7 -89 -10 -155 -7 -139 25 -439 56 -538 18 -53 18 -61 4 -110 -9 -28 -24 -70 -35 -92 -10 -22 -19 -47 -19 -56 0 -9 -7 -22 -14 -29 -16 -12 -38 -58 -76 -153 -32 -82 -33 -230 -1 -343 17 -63 70 -186 87 -206 9 -9 27 -39 40 -65 50 -99 77 -143 89 -143 7 0 15 -7 19 -15 3 -8 16 -15 29 -15 18 0 23 -6 25 -31 3 -33 17 -65 38 -87 12 -11 17 -11 35 1 13 9 16 17 10 22 -16 9 -13 25 3 19 12 -5 14 20 14 153 0 159 24 359 57 478 16 58 48 195 65 277 6 32 16 60 21 63 5 4 9 25 9 47 0 37 10 80 41 184 23 76 30 209 36 634 3 300 1 521 -7 650 -18 301 -22 326 -62 405 -24 46 -38 89 -41 126 -3 31 -10 65 -15 75 -5 11 -15 31 -21 47 -6 15 -15 37 -21 50 -5 12 -14 44 -20 70 -6 27 -17 58 -24 70 -8 12 -17 37 -21 55 -4 17 -10 32 -15 32 -4 0 -10 15 -14 33 -8 44 -59 147 -72 147 -6 0 -16 12 -22 26 -7 14 -17 22 -22 19 -10 -6 -68 49 -105 101 -27 37 -44 54 -56 54 -5 0 -9 7 -9 15 0 8 -4 15 -9 15 -17 0 -145 112 -267 235 -68 68 -141 137 -162 152 -20 15 -45 38 -55 51 -10 12 -24 22 -30 22 -7 0 -23 18 -37 39 -24 38 -97 121 -210 239 -77 81 -160 179 -160 189 0 4 -27 33 -60 63 -88 81 -200 194 -200 202 0 4 -27 35 -60 67 -33 33 -60 63 -60 68 0 4 -16 19 -35 33 -19 14 -37 32 -40 41 -3 9 -18 22 -33 30 -15 8 -34 22 -43 31 -9 10 -21 18 -26 18 -5 0 -24 11 -41 24 -18 13 -50 26 -72 30 -22 3 -40 11 -40 16 0 5 -17 21 -37 34 -21 13 -55 40 -77 60 -21 20 -42 36 -45 36 -4 0 -18 10 -31 22 -51 48 -85 66 -98 52z m528 -1761 c14 -5 41 -17 61 -26 20 -9 46 -13 58 -10 14 3 23 0 27 -11 3 -9 15 -16 25 -16 10 0 27 -7 38 -16 18 -16 18 -20 5 -57 -17 -49 -17 -65 0 -98 7 -14 16 -38 20 -54 4 -15 18 -42 32 -60 13 -17 24 -44 24 -59 0 -15 7 -29 15 -32 8 -4 15 -12 15 -19 0 -7 7 -18 15 -25 8 -7 12 -16 9 -21 -3 -5 0 -9 5 -9 6 0 11 -7 11 -15 0 -8 4 -15 9 -15 5 0 13 -9 16 -20 3 -11 11 -20 17 -20 6 0 8 9 3 23 -3 12 -10 39 -14 60 -5 20 -24 61 -43 90 -19 28 -37 60 -41 70 -4 10 -11 15 -17 12 -6 -3 -12 1 -15 9 -3 9 -8 24 -12 34 -8 21 -14 122 -7 122 3 0 18 -7 34 -15 24 -12 30 -13 30 -2 0 7 -5 18 -11 24 -6 6 -8 16 -5 22 10 16 116 -91 116 -117 0 -11 4 -23 9 -26 21 -13 34 -152 27 -291 -12 -255 -52 -473 -98 -536 -27 -36 -37 -127 -39 -344 -1 -160 -3 -187 -14 -172 -7 10 -16 42 -20 70 -4 29 -15 79 -25 112 -10 33 -22 80 -25 105 -6 40 -17 71 -46 132 -5 9 -11 35 -14 56 -2 22 -9 51 -15 66 -5 15 -10 39 -10 54 0 30 -17 81 -43 129 -18 34 -23 103 -8 119 5 5 5 18 1 29 -5 11 -9 14 -9 8 -1 -7 -5 -13 -10 -13 -19 0 -21 35 -6 88 11 37 14 74 10 120 -5 64 -30 167 -45 187 -21 28 -70 221 -70 276 0 16 -5 38 -12 48 -11 19 -5 55 9 49 5 -2 19 -9 33 -15z m280 -123 c0 -5 -5 -10 -11 -10 -5 0 -7 5 -4 10 3 6 8 10 11 10 2 0 4 -4 4 -10z m-2078 -1595 c21 -27 49 -62 62 -76 27 -29 116 -199 116 -221 0 -7 7 -24 16 -36 12 -17 19 -63 25 -169 11 -168 5 -186 -41 -136 -17 18 -30 35 -30 39 0 4 -9 17 -19 28 -17 19 -75 181 -76 216 -1 8 -6 25 -13 37 -7 12 -12 34 -12 50 0 16 -6 37 -14 48 -7 11 -17 40 -21 65 -4 25 -11 50 -16 56 -5 6 -13 42 -18 80 -5 38 -12 78 -16 89 l-7 20 13 -20 c7 -11 30 -42 51 -70z m3594 -1174 c-11 -77 -17 -101 -27 -101 -5 0 -9 -15 -9 -34 0 -19 -4 -37 -9 -40 -5 -3 -14 -36 -21 -73 -7 -38 -18 -90 -26 -118 -18 -67 -26 -135 -28 -227 -1 -84 -19 -123 -31 -69 -4 17 -14 45 -22 62 -17 34 -17 28 16 269 18 133 38 219 61 261 5 9 14 36 20 60 15 57 25 67 56 61 25 -4 26 -7 20 -51z m-1300 -353 c16 -126 9 -257 -19 -353 l-14 -50 -16 37 c-18 42 -25 257 -12 341 11 68 54 86 61 25z"/>
 <path d="M4440 4500 c0 -7 3 -10 7 -7 3 4 3 10 0 14 -4 3 -7 0 -7 -7z"/>
 <path d="M6200 7182 c-26 -21 -22 -44 14 -83 20 -21 34 -27 73 -27 35 -1 52 -7 65 -22 9 -11 21 -20 27 -20 6 0 11 -7 11 -15 0 -12 13 -15 60 -15 l60 0 -13 31 c-9 22 -29 40 -72 62 -33 18 -61 35 -63 40 -2 4 -11 7 -21 7 -10 0 -35 13 -57 30 -46 35 -54 36 -84 12z"/>
 <path d="M6535 6990 c-8 -13 3 -30 21 -30 18 0 18 14 0 29 -10 8 -16 9 -21 1z"/>
 <path d="M6640 6918 c0 -7 4 -19 9 -26 7 -11 10 -10 15 3 3 9 4 21 0 26 -8 13 -24 11 -24 -3z"/>
 <path d="M5690 4000 c0 -7 3 -10 7 -7 3 4 3 10 0 14 -4 3 -7 0 -7 -7z"/>
 <path d="M5610 3710 c0 -7 3 -10 7 -7 3 4 3 10 0 14 -4 3 -7 0 -7 -7z"/>
 <path d="M6938 3568 c-2 -7 -2 -75 0 -150 3 -103 7 -138 17 -138 16 0 15 292 -2 297 -6 2 -12 -2 -15 -9z"/>
 <path d="M3776 3362 c-27 -2 -58 -9 -70 -17 -11 -7 -50 -21 -86 -29 -87 -22 -134 -52 -223 -140 -69 -67 -119 -136 -100 -136 5 0 0 -5 -9 -11 -10 -5 -18 -15 -18 -20 0 -27 -71 -170 -87 -176 -9 -4 -10 -10 -2 -25 6 -12 7 -24 1 -31 -5 -7 -12 -27 -15 -44 -4 -18 -15 -52 -26 -76 -30 -65 -35 -199 -12 -295 22 -89 30 -112 41 -112 8 0 70 -122 70 -139 0 -6 4 -11 8 -11 5 0 15 -19 22 -42 8 -24 17 -45 21 -48 12 -9 49 -93 49 -111 0 -10 5 -21 10 -24 6 -3 19 -23 29 -43 10 -20 36 -68 56 -107 79 -148 105 -203 105 -219 0 -9 7 -16 17 -16 9 0 13 -3 10 -7 -4 -3 -1 -16 6 -27 18 -28 40 -137 40 -192 0 -25 4 -47 9 -50 5 -3 6 -14 3 -24 -3 -10 -1 -21 5 -25 5 -3 10 -19 10 -35 0 -16 4 -40 9 -53 8 -20 15 -23 40 -19 18 2 37 12 44 21 6 10 20 20 30 24 9 3 17 16 17 27 0 11 4 20 10 20 5 0 7 6 4 14 -3 8 0 25 7 38 7 13 14 29 15 37 7 43 16 62 27 58 8 -3 11 -28 9 -88 -6 -139 -5 -473 0 -494 5 -19 22 -129 23 -150 0 -5 3 -12 7 -15 3 -3 8 -20 11 -38 3 -18 10 -38 15 -45 6 -7 19 -43 31 -81 26 -86 63 -145 108 -174 18 -12 53 -47 76 -77 38 -50 45 -55 72 -49 42 9 80 47 95 97 15 49 15 229 0 381 -20 206 -22 248 -22 373 0 146 7 210 23 230 7 7 9 16 6 20 -4 3 -1 15 6 27 6 11 12 26 12 31 1 23 40 125 48 125 4 0 6 4 3 8 -2 4 4 13 15 20 17 11 20 8 34 -24 8 -20 15 -39 15 -43 0 -17 53 -61 73 -61 13 0 28 -5 35 -12 9 -9 14 -4 24 19 8 17 19 28 26 25 10 -3 12 8 9 45 -2 27 -6 54 -9 59 -3 5 -5 59 -4 119 1 95 8 135 49 299 27 104 54 207 61 230 7 22 19 68 25 101 6 33 18 89 26 125 15 69 23 251 13 285 -4 11 -12 47 -18 80 -6 33 -16 68 -21 77 -5 10 -9 26 -9 37 0 11 -3 21 -7 23 -11 4 -52 89 -58 117 -2 14 -8 27 -12 30 -10 7 -26 34 -53 87 -27 55 -100 128 -154 154 -25 11 -50 28 -56 36 -7 7 -19 14 -26 14 -7 0 -38 11 -69 25 -30 13 -56 24 -58 23 -1 0 -23 11 -48 25 -77 44 -158 66 -234 64 -38 0 -79 1 -90 4 -11 3 -42 3 -69 1z m222 -112 c72 -19 167 -73 167 -94 0 -24 18 -31 44 -17 12 7 22 7 26 2 3 -5 18 -12 34 -16 16 -3 35 -13 42 -21 6 -8 18 -14 25 -14 18 0 89 -46 127 -82 16 -15 41 -51 56 -80 16 -30 33 -63 39 -73 31 -56 87 -215 95 -270 2 -17 7 -37 11 -46 10 -22 -8 -282 -21 -302 -3 -5 -8 -24 -10 -41 -7 -63 -33 -186 -42 -203 -9 -16 -28 -78 -61 -203 -16 -62 -40 -194 -47 -262 -3 -32 -9 -58 -14 -58 -5 0 -9 4 -9 8 0 5 -17 15 -38 21 -33 11 -43 11 -71 -3 -18 -10 -35 -25 -38 -34 -3 -9 -11 -24 -18 -32 -13 -16 -40 -89 -58 -160 -7 -25 -18 -55 -25 -67 -7 -12 -17 -82 -22 -155 -5 -73 -11 -149 -13 -168 -2 -19 0 -46 4 -60 13 -40 19 -138 24 -387 3 -137 1 -234 -4 -237 -5 -4 -18 5 -29 19 -11 14 -23 25 -26 25 -3 0 -26 21 -51 47 -62 67 -91 131 -136 303 -19 73 -23 115 -25 300 -1 118 2 240 7 270 5 30 10 75 10 100 1 47 -24 120 -41 120 -5 0 -17 14 -27 30 -31 53 -85 48 -98 -10 -4 -16 -11 -32 -16 -35 -5 -4 -9 -19 -9 -34 0 -15 -3 -31 -7 -35 -5 -4 -8 -11 -9 -14 -3 -24 -17 -62 -24 -62 -4 0 -10 41 -13 91 -3 50 -10 96 -15 102 -5 7 -12 29 -16 49 -4 20 -10 38 -14 40 -4 2 -15 19 -25 38 -9 19 -33 64 -52 100 -19 36 -35 70 -35 76 0 6 -8 22 -18 35 -10 13 -27 44 -37 69 -11 25 -23 47 -27 50 -4 3 -12 17 -18 30 -5 14 -19 39 -30 55 -42 65 -67 123 -74 168 -7 44 -9 46 -37 43 -31 -4 -42 17 -14 28 13 4 9 15 -20 59 -55 83 -86 208 -66 269 6 18 15 64 20 102 6 38 15 72 21 76 6 4 13 26 16 51 3 24 11 51 18 59 7 8 18 34 26 58 7 23 17 42 22 42 4 0 8 7 8 15 0 23 49 115 61 115 5 0 7 5 4 10 -3 6 -1 10 4 10 6 0 11 5 11 10 0 26 157 140 193 140 8 0 27 7 44 15 17 8 69 19 117 24 48 5 90 11 93 15 8 7 80 0 131 -14z"/>
 <path d="M3942 2649 c-52 -26 -91 -65 -98 -98 -3 -14 -14 -48 -25 -75 -35 -88 -23 -150 47 -243 44 -59 48 -60 134 -62 102 -2 142 15 167 70 9 21 20 39 25 39 4 0 8 8 8 19 0 10 7 24 15 31 22 18 20 142 -3 200 -24 62 -44 90 -64 90 -9 0 -20 5 -23 10 -3 6 -15 10 -25 10 -10 0 -20 5 -22 11 -7 21 -92 20 -136 -2z"/>
 <path d="M3871 2094 c0 -11 3 -14 6 -6 3 7 2 16 -1 19 -3 4 -6 -2 -5 -13z"/>
 <path d="M3871 2034 c0 -11 3 -14 6 -6 3 7 2 16 -1 19 -3 4 -6 -2 -5 -13z"/>
 <path d="M3872 1935 c0 -16 2 -22 5 -12 2 9 2 23 0 30 -3 6 -5 -1 -5 -18z"/>
 <path d="M6793 3268 c-7 -12 -11 -37 -27 -158 -5 -36 -19 -320 -20 -400 -1 -60 14 -172 23 -185 5 -5 14 -28 21 -49 7 -22 17 -45 21 -50 5 -6 24 -30 43 -53 18 -23 36 -39 40 -36 3 4 6 -6 6 -20 0 -16 6 -27 13 -27 7 0 13 11 13 25 0 14 -3 25 -7 25 -4 0 -11 9 -14 20 -4 11 -10 18 -15 15 -5 -3 -14 13 -20 35 -6 22 -14 40 -18 40 -4 0 -18 33 -30 74 -24 77 -24 82 -23 424 0 68 4 128 8 135 4 6 8 27 10 46 5 42 19 61 45 61 14 0 18 5 14 16 -3 9 -6 17 -6 19 0 1 -15 14 -34 29 -26 19 -37 23 -43 14z"/>
 <path d="M6939 3263 c0 -4 -2 -16 -4 -25 -4 -23 2 -23 15 1 7 13 7 22 0 26 -5 3 -10 3 -11 -2z"/>
 <path d="M6470 370 c0 -7 3 -10 7 -7 3 4 3 10 0 14 -4 3 -7 0 -7 -7z"/>
 </g>
<g id="layer3" fill="#f6a400" stroke="none">
 <path d="M4694 11490 c-25 -10 -36 -46 -28 -89 6 -27 10 -31 41 -31 21 0 36 -6 39 -15 4 -8 15 -15 25 -15 10 0 19 -7 19 -15 0 -8 5 -15 11 -15 10 0 68 -43 137 -101 8 -6 33 -16 55 -21 23 -5 56 -15 74 -23 17 -8 36 -15 42 -15 6 0 11 -4 11 -10 0 -5 15 -16 33 -24 17 -8 44 -25 58 -39 14 -13 35 -27 46 -31 11 -4 28 -15 38 -26 10 -11 24 -20 32 -20 12 0 18 -20 14 -44 -6 -34 21 -527 33 -591 17 -91 23 -424 12 -655 -7 -161 -38 -428 -62 -535 -8 -38 -14 -85 -12 -105 3 -31 6 -35 32 -35 31 0 35 8 52 90 3 16 10 50 15 75 5 25 14 142 19 260 5 118 13 242 18 275 5 33 17 109 26 169 10 60 16 134 13 165 -12 146 -38 341 -48 367 -8 19 -13 119 -15 296 l-3 268 -37 56 c-20 30 -48 60 -62 65 -13 5 -40 23 -60 39 -20 17 -42 30 -48 30 -7 0 -23 13 -37 30 -20 23 -41 33 -96 45 -38 9 -85 27 -103 40 -18 14 -43 29 -55 34 -13 6 -23 15 -23 21 0 5 -4 10 -10 10 -5 0 -18 8 -28 18 -10 9 -32 29 -49 44 -17 14 -35 34 -40 43 -11 19 -50 27 -79 15z"/>
 <path d="M3760 11458 c-23 -6 -45 -23 -64 -49 -17 -21 -35 -39 -42 -39 -6 0 -28 -16 -48 -35 -21 -19 -41 -35 -45 -35 -4 0 -37 -30 -72 -66 -102 -106 -143 -143 -176 -162 -53 -29 -111 -76 -116 -93 -4 -15 -89 -79 -105 -79 -4 0 -26 -18 -50 -40 -24 -22 -45 -40 -47 -40 -3 0 -14 -8 -24 -17 -10 -10 -30 -27 -44 -39 -20 -17 -26 -33 -32 -88 -4 -36 -11 -69 -16 -72 -5 -3 -9 -24 -9 -47 0 -23 -9 -98 -20 -167 -18 -110 -21 -170 -21 -490 0 -214 4 -379 10 -399 6 -18 13 -95 16 -170 8 -204 13 -220 59 -221 18 0 19 6 12 118 -3 64 -11 180 -17 257 -15 197 -20 667 -8 745 5 36 16 122 24 191 7 69 20 141 29 160 8 19 18 55 21 82 3 26 10 47 16 47 5 0 9 6 9 14 0 8 14 24 31 37 17 13 38 31 47 39 8 8 18 15 21 16 13 2 47 19 58 28 6 6 41 31 77 56 36 25 65 49 66 53 0 10 52 56 63 57 10 0 48 34 126 111 31 30 74 68 96 84 36 26 89 77 97 94 2 3 21 16 43 27 50 27 74 58 82 107 6 40 6 40 -47 25z"/>
 <path d="M4979 9033 c-21 -2 -45 -13 -56 -26 -45 -50 -70 -178 -38 -191 8 -3 15 -11 15 -18 1 -18 26 -46 90 -98 30 -25 57 -47 60 -51 3 -3 13 -9 24 -12 15 -6 17 -14 13 -44 -8 -47 -19 -58 -46 -44 -17 10 -21 9 -21 -5 0 -9 -9 -18 -20 -21 -11 -3 -20 -8 -20 -12 0 -15 -63 -71 -81 -71 -10 0 -36 -19 -56 -42 -21 -24 -108 -115 -195 -203 -86 -88 -175 -182 -198 -210 -22 -27 -54 -65 -71 -82 -16 -18 -29 -40 -29 -49 0 -9 -26 -42 -58 -73 -32 -31 -71 -74 -88 -96 -33 -42 -59 -108 -50 -124 3 -5 -2 -19 -12 -32 -10 -13 -21 -32 -25 -41 -3 -10 -11 -18 -17 -18 -5 0 -10 -6 -10 -14 0 -8 -7 -16 -15 -20 -20 -7 -19 -32 0 -40 20 -7 48 -73 41 -93 -4 -9 -13 -13 -22 -9 -14 5 -15 1 -9 -31 3 -21 14 -47 24 -58 26 -30 81 -140 81 -162 0 -10 9 -37 20 -58 12 -22 25 -74 30 -115 13 -97 24 -146 47 -187 17 -33 17 -35 1 -47 -14 -10 -18 -28 -18 -79 0 -36 -5 -78 -11 -94 -6 -15 -15 -93 -20 -172 -5 -79 -16 -169 -24 -200 -14 -55 -22 -327 -17 -583 2 -88 5 -108 17 -108 11 0 15 -11 15 -40 0 -22 7 -74 17 -117 15 -72 20 -82 66 -125 27 -27 53 -48 58 -48 5 0 9 -6 9 -14 0 -7 28 -51 63 -97 80 -106 137 -195 137 -214 0 -8 4 -24 9 -37 44 -115 55 -175 60 -331 1 -10 6 -15 12 -12 5 4 8 12 6 18 -2 7 1 21 7 32 6 11 14 56 18 100 11 129 20 189 31 203 11 14 12 167 2 332 -3 52 -7 150 -9 218 -2 68 -9 135 -15 150 -13 34 -31 136 -31 178 0 18 -5 34 -10 36 -6 2 -14 37 -19 78 -5 41 -22 118 -39 171 -17 53 -34 120 -38 150 -4 30 -10 59 -14 64 -7 8 -21 77 -22 102 0 5 -6 24 -13 43 -8 19 -16 56 -20 82 -3 26 -12 51 -19 55 -7 5 -16 31 -20 58 -9 66 -14 91 -25 145 -6 25 -10 125 -11 223 0 170 1 180 23 210 12 18 27 41 33 52 65 123 121 191 207 250 41 28 53 32 83 25 33 -8 60 -5 94 7 33 13 56 13 82 2 23 -9 33 -8 53 5 23 15 25 15 25 1 0 -17 23 -45 37 -45 5 0 23 -14 41 -30 18 -17 36 -30 40 -30 10 0 62 -46 62 -55 0 -10 48 -55 59 -55 4 0 13 -11 19 -25 7 -14 19 -28 27 -31 8 -4 15 -13 15 -21 0 -8 18 -34 41 -58 22 -24 48 -58 57 -77 11 -21 24 -33 37 -33 13 0 20 -7 21 -20 0 -11 7 -33 15 -50 15 -33 49 -47 49 -21 0 9 5 16 10 16 6 0 10 -18 10 -39 0 -22 5 -43 10 -46 6 -3 10 -16 10 -29 0 -12 5 -27 12 -34 14 -14 -5 -106 -34 -164 -10 -21 -18 -44 -18 -52 0 -9 -14 -62 -31 -118 -17 -57 -38 -130 -48 -163 -9 -33 -18 -62 -21 -65 -8 -7 -50 -144 -50 -161 0 -8 -6 -26 -14 -41 -8 -14 -17 -45 -21 -69 -4 -23 -14 -57 -21 -76 -8 -18 -19 -59 -24 -91 -5 -31 -15 -81 -22 -110 -11 -46 -10 -54 5 -69 16 -16 19 -16 54 4 21 11 44 18 50 16 7 -2 37 1 66 7 39 8 58 17 66 33 8 14 10 15 6 4 -3 -13 1 -20 14 -24 30 -8 22 -44 -11 -55 -20 -7 -28 -17 -28 -33 0 -13 -11 -36 -25 -51 -28 -30 -33 -15 -10 30 8 15 15 34 15 40 0 18 -43 14 -64 -6 -11 -10 -29 -18 -41 -18 -16 0 -23 -10 -32 -51 -7 -28 -28 -72 -48 -99 -19 -26 -35 -53 -35 -59 0 -6 -9 -11 -21 -11 -18 0 -20 -4 -15 -26 6 -21 -1 -39 -29 -81 -19 -29 -38 -67 -42 -84 -3 -17 -12 -33 -19 -36 -8 -3 -14 -12 -14 -19 0 -27 -32 -64 -55 -64 -26 0 -35 -17 -35 -69 0 -20 -7 -46 -15 -58 -15 -21 -19 -71 -13 -138 3 -28 5 -30 41 -27 44 4 48 -12 17 -71 l-21 -39 21 -5 c23 -6 28 -43 5 -43 -9 0 -15 -10 -15 -26 0 -14 7 -32 15 -40 8 -9 16 -31 16 -50 1 -32 3 -43 9 -61 1 -5 2 -11 1 -15 0 -5 4 -8 9 -8 6 0 10 -10 10 -22 0 -13 4 -30 10 -38 6 -9 5 -17 -2 -21 -7 -5 -2 -30 16 -80 14 -41 28 -83 30 -94 1 -11 8 -33 14 -48 7 -16 12 -31 12 -35 1 -4 9 -25 20 -47 11 -22 19 -48 20 -57 0 -9 6 -23 13 -30 8 -7 16 -25 19 -38 3 -14 14 -47 23 -75 10 -27 24 -68 31 -90 8 -22 27 -56 44 -75 38 -45 52 -32 57 52 4 77 7 95 16 104 11 11 8 143 -3 164 -12 22 18 124 61 208 15 29 26 66 25 82 -1 17 1 30 6 30 4 0 8 7 8 15 0 22 24 29 50 15 17 -9 20 -17 15 -40 -5 -23 -2 -30 14 -35 12 -3 21 -12 21 -19 0 -7 10 -22 23 -34 l23 -22 19 71 c11 45 17 102 17 157 -1 48 5 132 13 187 7 55 17 129 20 165 4 36 18 108 31 160 13 52 24 105 24 117 0 12 5 25 10 28 6 3 10 17 10 29 0 13 8 34 18 47 13 17 19 45 21 99 1 42 8 82 15 90 18 21 46 101 50 141 2 19 13 54 24 79 11 25 23 70 27 100 9 68 21 93 44 87 14 -3 17 6 20 66 1 43 8 75 16 84 8 7 17 28 20 46 3 18 10 55 16 82 26 129 30 168 27 276 -2 64 -8 122 -14 130 -9 12 -23 66 -55 216 -5 23 -9 58 -9 77 0 19 -4 38 -10 41 -5 3 -10 14 -10 24 0 10 -9 30 -21 45 -13 16 -18 33 -14 46 7 21 13 23 86 20 34 -1 48 3 52 14 8 19 27 21 27 3 0 -15 45 -57 60 -57 6 0 27 -8 48 -18 20 -10 55 -20 77 -21 22 -2 43 -9 47 -16 4 -7 27 -18 52 -25 28 -7 57 -26 81 -51 20 -21 42 -39 49 -39 15 0 36 42 36 73 0 18 2 19 10 7 5 -8 6 -50 3 -92 -3 -44 -2 -78 3 -78 16 0 36 -60 31 -93 -2 -18 2 -49 10 -70 10 -23 13 -49 8 -70 -3 -17 -8 -52 -9 -77 -5 -86 -18 -185 -31 -240 -7 -30 -16 -77 -20 -105 -4 -27 -11 -57 -15 -65 -4 -8 -11 -33 -14 -55 -13 -83 -18 -105 -26 -105 -4 0 -13 -15 -20 -32 -6 -18 -16 -44 -22 -58 -8 -21 -20 -161 -20 -235 0 -112 10 -227 20 -237 6 -6 12 -26 12 -44 0 -17 5 -44 10 -60 8 -22 7 -47 -4 -94 -29 -129 -79 -294 -100 -335 -9 -16 -16 -36 -16 -42 0 -7 -4 -13 -9 -13 -5 0 -11 -13 -14 -30 -4 -16 -16 -50 -27 -76 -12 -25 -30 -75 -41 -112 -12 -37 -27 -74 -34 -82 -7 -8 -16 -26 -20 -40 -8 -25 -38 -74 -62 -98 -7 -7 -13 -21 -13 -31 0 -9 -4 -21 -9 -26 -5 -6 -19 -41 -31 -80 -30 -91 -34 -221 -7 -236 13 -8 17 -23 17 -73 0 -44 5 -67 15 -76 8 -7 15 -23 15 -36 0 -12 5 -26 10 -29 6 -3 10 -14 10 -24 0 -9 16 -36 35 -58 19 -22 32 -43 29 -46 -3 -3 4 -10 15 -17 12 -6 21 -19 21 -29 0 -10 9 -21 20 -24 12 -3 20 -14 20 -27 0 -20 34 -63 58 -71 6 -2 13 -15 15 -29 3 -16 13 -27 28 -31 41 -12 49 -10 49 11 0 11 5 20 10 20 6 0 10 9 10 20 0 11 -5 20 -11 20 -12 0 -11 175 2 200 4 9 10 61 14 115 9 134 11 157 20 179 7 17 11 16 36 -15 15 -19 31 -30 35 -26 7 7 22 86 27 150 1 15 5 27 8 27 4 0 9 12 12 28 3 15 21 61 40 102 18 41 40 91 47 110 7 19 17 39 22 45 4 5 8 15 8 22 0 8 9 33 21 56 23 48 59 150 59 169 0 7 12 51 26 98 42 139 43 142 54 211 5 37 17 80 25 95 8 16 15 36 15 44 0 9 5 21 10 26 6 6 14 41 19 80 11 86 37 175 59 206 25 32 38 65 52 123 7 28 15 57 18 65 5 14 34 186 49 290 11 77 3 194 -16 243 -6 16 -11 70 -11 121 0 69 -6 110 -22 157 -17 52 -23 99 -29 249 -8 212 -22 335 -44 376 -8 16 -15 34 -15 40 0 16 -42 51 -70 58 -42 12 -74 29 -102 55 -36 32 -35 39 8 47 27 5 45 2 68 -12 20 -12 51 -18 91 -18 53 -1 61 -4 72 -26 7 -14 13 -40 13 -58 0 -17 11 -55 25 -84 21 -44 23 -56 14 -87 -8 -26 -8 -59 0 -116 7 -44 17 -126 24 -183 12 -99 22 -121 53 -122 11 0 45 -71 63 -130 17 -58 52 -154 60 -165 5 -5 16 -34 25 -63 18 -56 60 -157 76 -182 6 -8 15 -26 21 -40 5 -14 21 -47 34 -75 47 -101 58 -143 90 -354 23 -143 24 -196 6 -321 -18 -136 -18 -371 0 -415 7 -16 15 -64 18 -105 5 -57 10 -75 21 -75 16 0 28 43 37 130 8 77 33 98 51 43 5 -18 10 -25 11 -15 1 21 17 22 25 1 14 -35 6 -83 -17 -106 -13 -13 -29 -36 -35 -53 -15 -44 -24 -127 -12 -120 6 4 10 -10 10 -34 0 -34 -3 -41 -20 -41 -13 0 -24 -10 -31 -27 -6 -16 -17 -41 -24 -58 -60 -136 -85 -207 -85 -238 0 -20 -5 -48 -11 -64 -6 -15 -13 -64 -16 -107 -2 -43 -8 -87 -13 -96 -10 -20 7 -140 20 -140 4 0 11 -17 15 -37 4 -20 29 -75 57 -122 27 -47 54 -96 59 -109 5 -13 14 -20 20 -16 13 8 3 132 -12 151 -13 15 -16 117 -5 173 5 25 9 59 10 75 0 17 4 35 7 40 5 8 22 102 21 112 -1 2 4 17 9 35 37 119 47 158 39 158 -4 0 -3 11 3 24 7 14 14 24 17 24 22 -2 29 7 35 45 10 63 15 77 29 77 21 0 74 -54 78 -80 l4 -25 16 30 c8 17 21 62 27 100 7 39 18 79 25 90 31 48 40 230 41 795 0 503 -2 563 -18 635 -11 44 -23 91 -29 105 -23 58 -56 168 -62 210 -4 25 -15 63 -26 85 -10 22 -21 49 -25 60 -4 14 -8 16 -14 7 -11 -19 -41 29 -41 65 0 16 -6 37 -14 48 -7 11 -17 39 -21 62 -3 23 -15 53 -26 67 -10 13 -19 29 -19 35 0 6 -4 11 -9 11 -5 0 -14 28 -20 62 -11 65 -43 111 -85 122 -11 3 -25 13 -31 24 -34 62 -53 82 -93 97 -26 10 -48 27 -56 43 -8 15 -22 37 -33 48 -10 12 -31 38 -48 59 -32 40 -34 42 -80 81 -28 23 -145 132 -282 262 -30 28 -59 52 -64 52 -5 0 -9 5 -9 11 0 5 -31 41 -70 79 -57 56 -124 131 -185 208 -5 7 -16 18 -23 25 -13 11 -25 25 -79 85 -13 14 -23 28 -23 31 0 3 -15 22 -33 42 -17 19 -41 48 -52 64 -11 15 -45 54 -75 86 -30 32 -71 76 -90 99 -67 78 -233 240 -247 240 -4 0 -13 8 -20 18 -6 10 -49 38 -94 61 -46 24 -86 46 -89 50 -3 4 -29 22 -58 40 -29 18 -60 46 -69 61 -9 16 -27 34 -40 41 -13 7 -23 16 -23 21 0 4 -7 8 -15 8 -9 0 -18 7 -21 15 -4 8 -12 15 -20 15 -18 0 -18 28 1 46 22 22 18 34 -9 34 -33 0 -56 25 -56 62 0 29 1 30 35 25 33 -5 37 -3 52 28 20 42 11 80 -25 97 -34 16 -35 40 -3 48 35 8 36 25 5 52 -15 13 -34 31 -43 41 -8 9 -20 17 -25 17 -5 0 -18 8 -28 17 -16 14 -24 15 -49 6 -27 -11 -33 -9 -64 18 -19 17 -37 39 -40 50 -4 10 -14 19 -22 19 -9 0 -24 7 -33 15 -15 13 -22 14 -45 3 -26 -12 -30 -10 -56 21 -50 61 -113 77 -240 64z m558 -635 c-3 -8 -6 -5 -6 6 -1 11 2 17 5 13 3 -3 4 -12 1 -19z m-503 -772 c-21 -15 -30 -14 -19 3 3 6 14 11 23 11 13 0 13 -2 -4 -14z m-503 -329 c-10 -9 -11 -8 -5 6 3 10 9 15 12 12 3 -3 0 -11 -7 -18z m-127 -52 c-4 -8 -8 -15 -10 -15 -2 0 -4 7 -4 15 0 8 4 15 10 15 5 0 7 -7 4 -15z m91 -14 c-3 -12 -13 -21 -21 -21 -13 0 -13 2 0 16 9 8 16 20 16 26 0 6 3 9 6 5 3 -3 3 -15 -1 -26z m1789 -61 c22 -17 47 -30 57 -30 10 0 19 -3 21 -7 2 -5 30 -22 63 -40 43 -22 63 -40 72 -62 l13 -31 -75 0 c-72 0 -75 1 -75 24 0 33 -21 47 -75 48 -37 0 -52 6 -71 27 -36 39 -40 62 -14 83 30 24 38 23 84 -12z m286 -201 c0 -12 -27 -11 -35 1 -11 17 5 32 21 19 8 -6 14 -15 14 -20z m94 -48 c4 -5 3 -17 0 -26 -5 -13 -8 -14 -15 -3 -5 7 -9 19 -9 26 0 14 16 16 24 3z m-14 -106 l-7 -50 -2 46 c0 25 2 49 6 52 10 11 11 5 3 -48z m-289 -21 c-5 -16 -10 -21 -10 -12 -1 18 10 51 15 45 2 -1 -1 -16 -5 -33z m-369 -352 c-7 -2 -12 -11 -12 -19 0 -9 -2 -14 -5 -11 -3 3 -2 20 1 38 6 28 8 30 17 14 7 -13 7 -19 -1 -22z m-528 -371 c-4 -17 -9 -30 -11 -27 -3 2 -2 19 2 36 4 17 9 30 11 27 2 -2 1 -18 -2 -36z m-1117 -118 c-4 -3 -7 0 -7 7 0 7 3 10 7 7 3 -4 3 -10 0 -14z m1050 -80 c-4 -3 -7 0 -7 7 0 7 3 10 7 7 3 -4 3 -10 0 -14z m403 -89 c0 -14 -4 -23 -9 -20 -5 3 -7 15 -4 26 7 28 13 25 13 -6z m-351 -476 c-8 -16 -14 -19 -17 -9 -2 7 2 24 9 39 11 19 15 21 17 9 2 -9 -2 -26 -9 -39z m-1052 -35 c-3 -10 -5 -2 -5 17 0 19 2 27 5 18 2 -10 2 -26 0 -35z m3440 -30 c-3 -10 -5 -4 -5 12 0 17 2 24 5 18 2 -7 2 -21 0 -30z m-2336 -50 c-8 -15 -10 -15 -11 -2 0 17 10 32 18 25 2 -3 -1 -13 -7 -23z m-1094 0 c-4 -3 -7 0 -7 7 0 7 3 10 7 7 3 -4 3 -10 0 -14z m3280 -30 c-3 -10 -5 -2 -5 17 0 19 2 27 5 18 2 -10 2 -26 0 -35z m147 -62 c-7 -70 -24 -100 -24 -40 0 33 20 122 26 116 3 -2 1 -36 -2 -76z m-2417 -108 c-4 -3 -7 0 -7 7 0 7 3 10 7 7 3 -4 3 -10 0 -14z m-21 -39 c-4 -14 -9 -24 -12 -21 -3 2 -2 17 2 31 3 15 9 25 11 22 3 -3 2 -17 -1 -32z m-684 -14 c3 -20 0 -30 -9 -30 -8 0 -13 12 -13 30 0 17 4 30 9 30 5 0 11 -13 13 -30z m2975 -117 c-2 -16 -4 -5 -4 22 0 28 2 40 4 28 2 -13 2 -35 0 -50z m-3039 4 c4 -29 -12 -37 -22 -11 -10 26 -7 46 7 42 6 -3 13 -17 15 -31z m622 23 c0 -5 -5 -10 -11 -10 -5 0 -7 5 -4 10 3 6 8 10 11 10 2 0 4 -4 4 -10z m43 -284 c8 -19 -4 -95 -15 -103 -18 -10 -25 17 -17 60 4 23 8 45 9 50 0 12 18 8 23 -7z m306 -343 c0 -25 -1 -25 -8 -8 -5 11 -7 23 -4 28 8 14 13 7 12 -20z m2148 10 c-4 -3 -7 0 -7 7 0 7 3 10 7 7 3 -4 3 -10 0 -14z m-2300 -55 c-3 -7 -5 -2 -5 12 0 14 2 19 5 13 2 -7 2 -19 0 -25z m-2 -50 c-4 -18 -13 -40 -21 -48 -12 -12 -12 -9 -2 20 6 19 12 41 14 48 7 28 15 10 9 -20z m975 -339 c-6 -19 -19 -53 -30 -75 -19 -38 -19 -38 -20 -11 0 16 6 41 14 55 8 15 17 40 21 56 4 18 10 25 15 20 6 -6 6 -23 0 -45z m-93 -26 c-4 -3 -7 0 -7 7 0 7 3 10 7 7 3 -4 3 -10 0 -14z"/>
 <path d="M2913 8969 c-29 -14 -54 -24 -57 -22 -3 4 -44 -4 -146 -29 -25 -6 -51 -16 -58 -21 -18 -14 -9 -57 22 -104 28 -42 50 -126 42 -158 -3 -12 -19 -37 -36 -56 -70 -79 -120 -144 -120 -155 0 -7 -6 -17 -13 -21 -7 -4 -21 -27 -31 -51 -11 -23 -29 -53 -40 -65 -12 -13 -32 -36 -46 -53 -14 -16 -54 -53 -90 -83 -36 -30 -71 -65 -79 -79 -7 -13 -26 -37 -42 -53 -16 -16 -29 -33 -29 -38 0 -5 -9 -13 -20 -16 -11 -3 -20 -11 -20 -16 0 -6 -17 -17 -37 -25 -35 -15 -143 -117 -143 -136 0 -4 -4 -8 -10 -8 -5 0 -52 -42 -103 -92 -52 -51 -109 -104 -128 -118 -18 -14 -61 -52 -95 -85 -116 -110 -164 -155 -169 -155 -3 0 -24 -21 -47 -47 -70 -77 -119 -123 -148 -138 -15 -8 -49 -35 -76 -60 -27 -25 -56 -48 -65 -50 -17 -6 -34 -45 -20 -45 5 0 16 9 27 21 14 15 27 19 49 16 32 -6 131 8 180 25 17 5 49 14 72 19 24 4 63 17 87 29 25 11 49 20 54 20 5 0 22 13 38 30 35 36 56 39 52 8 -3 -26 -12 -26 147 -5 55 7 111 19 124 26 19 11 25 11 31 0 5 -7 6 -17 4 -24 -8 -21 -98 -44 -178 -45 -44 0 -83 -3 -88 -6 -15 -10 -161 -44 -186 -44 -39 0 -250 -60 -293 -83 -71 -38 -80 -64 -85 -249 -7 -234 -6 -368 8 -578 6 -102 11 -201 11 -220 -2 -111 -24 -493 -31 -535 -12 -66 -6 -275 8 -350 7 -33 20 -79 31 -102 10 -23 19 -46 19 -50 0 -4 9 -19 20 -33 11 -14 20 -30 20 -37 0 -12 46 -63 56 -63 11 0 43 -46 49 -70 3 -14 13 -34 21 -45 12 -16 16 -17 23 -6 13 21 27 -12 35 -82 3 -32 12 -68 19 -80 15 -28 64 -77 76 -77 5 0 12 -19 16 -42 7 -43 24 -79 54 -110 9 -9 22 -24 29 -33 13 -15 15 -15 32 0 17 15 19 13 40 -30 12 -25 28 -85 35 -133 8 -48 18 -100 24 -117 6 -16 15 -65 21 -109 5 -43 13 -82 16 -87 3 -5 18 -9 34 -9 23 0 33 7 45 30 8 16 35 58 59 92 25 35 48 77 52 93 4 17 13 39 19 50 22 36 36 137 39 285 4 146 -5 210 -40 287 -8 17 -14 35 -14 40 1 22 -97 193 -116 201 -12 6 -26 28 -33 52 -7 23 -17 48 -22 54 -5 6 -25 28 -43 48 -18 21 -39 52 -47 70 -7 18 -15 35 -18 38 -4 3 -24 41 -47 85 -34 67 -44 80 -65 80 -24 0 -24 0 -21 90 1 50 7 111 13 138 6 26 12 174 14 330 1 155 8 327 14 382 7 55 14 179 15 275 2 109 7 183 14 197 7 12 12 29 12 39 0 14 27 50 96 125 7 9 14 21 14 27 0 7 12 12 26 12 30 0 57 13 104 52 19 15 44 28 55 28 11 0 29 7 39 15 11 8 38 15 61 15 22 0 49 6 60 13 32 22 59 25 74 9 11 -11 29 -13 74 -9 l59 5 -4 -34 c-5 -40 3 -44 22 -9 8 16 22 25 37 25 19 0 23 -5 23 -29 0 -16 -6 -36 -14 -44 -8 -7 -20 -33 -27 -56 -7 -22 -18 -46 -26 -52 -7 -6 -13 -19 -13 -29 0 -10 -7 -23 -15 -30 -8 -7 -15 -19 -15 -27 0 -8 -9 -26 -20 -40 -11 -14 -20 -33 -20 -43 0 -10 -8 -28 -17 -41 -10 -13 -24 -33 -30 -44 -23 -36 -103 -202 -103 -213 0 -5 -8 -16 -19 -23 -21 -16 -91 -221 -91 -269 0 -44 28 -158 50 -200 9 -19 21 -51 25 -70 4 -19 11 -39 15 -45 4 -5 11 -26 15 -45 4 -19 13 -44 20 -55 7 -11 16 -35 19 -52 4 -17 13 -37 21 -43 7 -6 16 -26 19 -45 4 -19 11 -35 16 -35 4 0 11 -13 15 -29 3 -16 13 -35 20 -41 8 -7 17 -27 21 -46 3 -18 19 -53 34 -77 15 -24 31 -55 35 -68 8 -27 43 -106 56 -129 5 -8 16 -30 24 -47 9 -18 20 -33 25 -33 6 0 10 -6 10 -14 0 -8 6 -21 13 -28 7 -7 21 -30 30 -50 10 -20 22 -40 27 -43 6 -3 10 -15 10 -25 0 -22 42 -130 50 -130 3 0 11 14 17 30 6 17 18 30 27 30 9 0 16 6 16 14 0 22 27 26 44 7 9 -10 16 -23 16 -29 0 -6 12 -33 27 -59 14 -26 31 -66 37 -88 13 -51 12 -373 -1 -412 -14 -40 21 -119 55 -126 14 -3 26 1 29 9 3 8 15 14 27 14 11 0 37 16 56 35 19 19 31 35 27 35 -3 0 4 11 17 25 12 13 28 43 35 67 7 24 17 53 21 64 5 12 12 42 15 68 4 25 13 50 20 54 18 11 45 67 45 97 0 14 4 25 8 25 5 0 14 30 21 68 13 75 48 214 62 250 6 15 15 22 24 18 12 -4 15 4 17 37 3 70 -2 119 -17 151 -7 17 -19 48 -25 69 -6 20 -15 37 -20 37 -8 0 -49 80 -85 165 -9 22 -23 54 -30 70 -7 17 -19 47 -25 67 -6 20 -22 53 -36 73 -13 20 -24 39 -24 43 0 4 -6 19 -14 34 -8 15 -17 41 -21 58 -4 17 -29 60 -56 95 -27 35 -49 69 -49 75 0 5 -4 10 -9 10 -5 0 -12 8 -15 18 -3 9 -19 25 -36 34 -18 10 -30 25 -30 38 0 26 -22 26 -45 0 -10 -11 -21 -17 -26 -15 -4 3 -16 -5 -26 -18 -28 -34 -74 -67 -94 -67 -48 0 5 82 75 115 35 17 87 63 128 113 33 41 68 203 49 226 -7 8 -11 18 -10 22 5 21 -15 106 -28 120 -24 24 -35 138 -23 239 6 49 15 92 20 95 5 3 22 31 39 63 34 64 71 120 83 125 4 2 8 8 8 12 0 8 31 59 57 96 5 5 13 19 19 30 6 10 20 20 31 22 16 2 160 135 200 186 20 23 72 12 105 -23 15 -16 28 -36 28 -44 0 -15 20 -37 78 -87 23 -19 42 -41 42 -48 0 -7 11 -17 25 -22 14 -5 28 -17 31 -25 5 -11 10 -13 19 -5 9 8 14 2 18 -23 5 -31 21 -72 68 -173 10 -23 19 -55 19 -71 0 -16 7 -44 16 -62 9 -18 20 -62 26 -99 5 -37 11 -78 14 -92 3 -14 7 -38 8 -55 2 -16 6 -37 9 -45 23 -65 24 -310 2 -416 -9 -43 -18 -80 -20 -82 -2 -2 0 -14 5 -27 6 -15 4 -29 -4 -41 -8 -11 -17 -39 -20 -64 -4 -25 -11 -54 -16 -65 -11 -28 -38 -140 -46 -195 -8 -57 -39 -157 -59 -186 -20 -31 -35 -136 -38 -282 -2 -67 -6 -125 -10 -128 -3 -3 1 -24 9 -46 8 -22 14 -59 14 -82 1 -33 3 -37 11 -23 7 12 17 15 33 11 18 -4 25 -1 30 18 8 33 7 91 -3 106 -9 14 4 96 19 123 5 9 14 44 21 78 7 33 17 61 21 61 9 0 58 105 58 124 0 6 9 28 20 49 11 20 20 42 20 49 0 6 6 19 14 27 7 9 21 39 30 66 23 71 74 156 97 162 10 3 19 9 19 14 0 22 53 7 79 -22 32 -35 41 -29 48 30 3 20 13 65 24 100 10 35 19 75 19 90 0 15 6 36 14 47 8 11 18 38 22 60 4 21 13 48 20 59 8 11 14 27 14 37 0 9 7 39 16 65 9 26 17 63 19 82 1 20 5 43 8 51 19 53 29 91 33 130 3 25 9 61 14 80 7 29 7 87 0 110 -3 8 -6 50 -8 102 -1 27 -9 53 -18 62 -10 11 -18 47 -23 113 -8 94 -34 174 -65 195 -5 3 -11 19 -14 35 -2 15 -6 30 -10 33 -14 10 -33 47 -80 152 -11 23 -20 32 -24 25 -4 -7 -7 5 -6 26 1 21 -4 43 -10 49 -7 7 -12 19 -12 28 0 9 -9 26 -19 37 -22 23 -61 92 -61 107 0 11 -32 84 -60 138 -11 20 -20 46 -20 58 0 11 -13 50 -30 85 -16 35 -30 68 -30 72 0 15 -145 178 -161 181 -9 2 -22 -12 -33 -35 -16 -34 -19 -36 -26 -18 -4 11 -6 51 -5 88 2 60 0 72 -21 95 -13 15 -24 21 -24 15 0 -7 -7 -13 -15 -13 -12 0 -15 13 -15 55 0 46 -4 60 -25 81 -14 14 -25 29 -25 34 0 6 -4 10 -10 10 -5 0 -10 6 -10 13 -1 16 -46 67 -60 67 -5 0 -10 4 -10 9 0 5 -9 13 -20 16 -11 3 -20 13 -20 21 0 8 -4 14 -10 14 -12 0 -13 40 -1 59 6 9 11 10 15 2 8 -13 50 32 60 65 4 12 15 32 26 44 11 13 20 33 20 46 0 12 5 24 10 26 6 2 11 25 12 51 0 44 -3 52 -40 88 -23 21 -46 39 -52 39 -5 0 -10 4 -10 10 0 6 -9 6 -25 0 -18 -7 -28 -5 -39 5 -19 19 -45 19 -52 0 -7 -18 -45 -20 -62 -3 -22 22 -122 15 -179 -13z m147 -444 c0 -15 -24 -54 -31 -49 -10 6 10 54 23 54 4 0 8 -2 8 -5z m108 -169 c-24 -48 -38 -58 -38 -28 0 17 51 85 58 77 2 -1 -7 -23 -20 -49z m-461 -73 c-4 -3 -7 0 -7 7 0 7 3 10 7 7 3 -4 3 -10 0 -14z m554 -226 c-6 -15 -15 -27 -21 -27 -14 0 -13 14 8 56 13 29 18 33 20 17 2 -10 -2 -31 -7 -46z m234 -332 c-3 -25 -15 -65 -26 -88 l-20 -42 6 45 c7 46 34 130 42 130 3 0 2 -20 -2 -45z m142 -147 c-4 -24 -16 -65 -27 -93 l-21 -50 5 40 c7 50 35 145 43 145 3 0 3 -19 0 -42z m-387 -72 c-11 -25 -23 -46 -26 -46 -9 0 5 61 24 105 16 38 17 39 20 13 2 -14 -6 -47 -18 -72z m-150 -86 c0 -5 -5 -10 -11 -10 -5 0 -7 5 -4 10 3 6 8 10 11 10 2 0 4 -4 4 -10z m320 -37 c0 -24 -17 -49 -26 -40 -4 4 -1 18 6 32 16 30 20 31 20 8z m-33 -80 c-4 -3 -7 0 -7 7 0 7 3 10 7 7 3 -4 3 -10 0 -14z m-1850 -10 c-4 -3 -7 0 -7 7 0 7 3 10 7 7 3 -4 3 -10 0 -14z m-57 -58 c0 -8 -9 -19 -20 -25 -21 -11 -25 -4 -14 24 8 20 34 21 34 1z m-95 -427 c-8 -37 -12 -44 -21 -35 -9 9 6 67 18 67 6 0 7 -13 3 -32z m-48 -280 c-3 -7 -5 -2 -5 12 0 14 2 19 5 13 2 -7 2 -19 0 -25z m-10 -119 c-3 -56 -10 -106 -16 -112 -8 -8 -11 3 -11 37 0 51 20 176 28 176 3 0 2 -46 -1 -101z m2470 -171 c-3 -7 -5 -2 -5 12 0 14 2 19 5 13 2 -7 2 -19 0 -25z m-1577 -135 c0 -5 -5 -15 -10 -23 -8 -12 -10 -11 -10 8 0 12 5 22 10 22 6 0 10 -3 10 -7z m-20 -92 c0 -40 -5 -56 -26 -78 -14 -15 -24 -21 -21 -13 25 90 41 140 44 140 2 0 3 -22 3 -49z m-1013 -73 c-3 -8 -6 -5 -6 6 -1 11 2 17 5 13 3 -3 4 -12 1 -19z m2710 -115 c-3 -10 -5 -4 -5 12 0 17 2 24 5 18 2 -7 2 -21 0 -30z m-108 -35 c-7 -29 -16 -55 -20 -58 -3 -3 -9 -12 -12 -20 -4 -8 -4 3 0 25 3 22 9 42 13 45 4 3 11 20 15 38 4 18 9 31 12 28 3 -3 -1 -29 -8 -58z m-106 -130 c-3 -24 -10 -47 -16 -53 -6 -7 -8 1 -3 24 3 18 6 42 6 52 0 11 4 19 9 19 5 0 7 -19 4 -42z m-13 -93 c0 -8 -4 -15 -10 -15 -5 0 -10 7 -10 15 0 8 5 15 10 15 6 0 10 -7 10 -15z m-2008 -935 c1 -9 -1 -17 -7 -18 -5 -1 -11 10 -13 25 -4 29 13 23 20 -7z m115 -62 c-3 -8 -6 -5 -6 6 -1 11 2 17 5 13 3 -3 4 -12 1 -19z m10 -50 c-3 -8 -6 -5 -6 6 -1 11 2 17 5 13 3 -3 4 -12 1 -19z m-160 -145 c-3 -10 -5 -4 -5 12 0 17 2 24 5 18 2 -7 2 -21 0 -30z"/>
 <path d="M3330 8588 c0 -22 17 -41 29 -34 19 12 13 46 -9 46 -11 0 -20 -6 -20 -12z"/>
 <path d="M5721 8587 c-20 -20 -13 -57 14 -67 14 -5 25 -14 25 -20 0 -12 77 -13 84 -1 11 17 -5 40 -42 63 -54 33 -68 38 -81 25z"/>
 <path d="M4095 7599 c-4 -6 -5 -12 -2 -15 2 -3 7 2 10 11 7 17 1 20 -8 4z"/>
 <path d="M3966 7518 c3 -18 15 -44 25 -57 l19 -24 0 37 c0 45 -15 76 -36 76 -12 0 -14 -7 -8 -32z"/>
 <path d="M4855 7274 c-5 -1 -27 -5 -47 -9 -28 -4 -38 -11 -38 -24 0 -24 43 -36 68 -20 37 23 49 63 17 53z"/>
 <path d="M5020 7225 c0 -8 9 -15 20 -15 13 0 18 5 14 15 -4 8 -12 15 -20 15 -8 0 -14 -7 -14 -15z"/>
 <path d="M3184 7205 c-7 -18 2 -45 15 -45 5 0 16 14 25 30 14 29 14 30 -10 30 -14 0 -27 -7 -30 -15z"/>
 <path d="M5092 7172 c2 -9 11 -18 22 -20 12 -3 17 1 14 14 -1 9 -11 18 -21 20 -12 2 -17 -3 -15 -14z"/>
 <path d="M3086 7145 c-30 -27 -32 -35 -11 -35 8 0 21 14 30 30 19 36 16 37 -19 5z"/>
 <path d="M3242 7079 c2 -56 6 -73 20 -80 14 -8 26 -2 54 26 38 38 40 69 5 80 -10 3 -26 14 -36 25 -35 38 -45 26 -43 -51z"/>
 <path d="M1070 6970 c0 -7 3 -10 7 -7 3 4 3 10 0 14 -4 3 -7 0 -7 -7z"/>
 <path d="M2131 6894 c-42 -9 -80 -22 -86 -31 -7 -9 -17 -13 -24 -9 -7 5 -21 -2 -33 -16 l-20 -23 6 32 c4 17 3 34 -2 37 -27 17 -232 -170 -232 -211 0 -7 -7 -13 -15 -13 -9 0 -20 -10 -25 -22 -13 -32 -27 -202 -22 -270 l4 -57 24 16 c13 8 24 22 24 29 0 8 3 14 8 14 4 0 18 21 32 48 13 26 32 58 42 71 10 13 18 30 18 38 0 8 7 21 16 30 14 14 16 14 28 -2 12 -16 14 -16 34 10 12 15 22 33 22 40 0 7 7 15 15 19 8 3 15 12 15 21 0 8 4 15 8 15 9 0 32 44 32 60 0 5 -10 10 -23 12 -19 3 -22 7 -16 33 5 27 7 28 14 10 13 -30 28 -36 46 -19 15 14 18 12 32 -14 19 -40 4 -74 -61 -140 -30 -30 -51 -62 -56 -82 -9 -46 -23 -60 -54 -54 -24 4 -31 -2 -64 -54 -21 -32 -38 -64 -38 -70 0 -7 -4 -12 -9 -12 -19 0 -24 -42 -7 -52 15 -8 15 -12 -4 -35 -11 -14 -20 -32 -20 -39 0 -8 -4 -14 -10 -14 -5 0 -10 7 -10 15 0 8 -4 15 -10 15 -5 0 -10 -16 -10 -35 0 -19 -4 -35 -10 -35 -5 0 -10 -15 -10 -34 0 -18 -9 -44 -19 -58 -35 -44 -41 -93 -33 -294 4 -117 3 -227 -3 -284 -10 -81 -9 -95 6 -114 9 -11 24 -56 33 -98 10 -43 21 -78 25 -78 4 0 15 -18 25 -40 21 -48 73 -102 94 -98 17 3 25 25 47 133 8 39 19 86 24 105 5 19 17 72 27 118 13 61 21 82 33 82 9 0 27 17 40 37 18 29 22 45 18 80 -2 24 -12 52 -21 62 -9 10 -16 33 -16 52 0 19 -4 39 -8 44 -5 6 -13 28 -19 50 -49 175 -54 199 -48 227 9 40 63 171 74 178 4 3 20 36 36 74 15 38 43 99 62 135 20 36 59 111 87 166 29 55 76 144 104 199 29 54 52 100 52 102 0 2 -10 3 -22 2 -13 0 -34 2 -48 5 -14 3 -58 -1 -99 -9z m-322 -278 c-11 -32 -23 -55 -26 -52 -11 11 9 96 25 105 9 5 18 8 20 7 1 -2 -7 -29 -19 -60z m48 -563 c-4 -3 -7 0 -7 7 0 7 3 10 7 7 3 -4 3 -10 0 -14z"/>
 <path d="M990 6859 c0 -11 5 -17 10 -14 6 3 10 13 10 21 0 8 -4 14 -10 14 -5 0 -10 -9 -10 -21z"/>
 <path d="M1058 6868 c-9 -7 -24 -31 -34 -53 -16 -34 -19 -37 -22 -17 -3 22 -3 22 -31 -5 -15 -16 -33 -43 -40 -60 -7 -18 -17 -33 -22 -33 -5 0 -17 -16 -26 -35 -9 -19 -20 -35 -25 -35 -4 0 -8 -7 -8 -15 0 -8 -15 -37 -32 -63 -18 -26 -39 -58 -46 -71 -21 -36 -52 -92 -73 -131 -28 -53 -95 -202 -104 -230 -4 -14 -13 -32 -20 -40 -8 -8 -17 -28 -21 -43 -3 -16 -13 -31 -20 -34 -8 -3 -14 -13 -14 -22 0 -9 -9 -27 -20 -41 -11 -14 -20 -28 -20 -33 0 -4 -16 -30 -35 -57 -19 -27 -35 -55 -35 -62 0 -7 -15 -29 -33 -48 -66 -72 -211 -310 -187 -310 5 0 2 -22 -6 -50 -12 -41 -13 -68 -5 -149 11 -101 55 -299 72 -315 5 -6 9 -19 9 -31 0 -11 16 -45 35 -75 19 -30 35 -59 35 -63 0 -5 9 -20 20 -34 11 -14 20 -41 20 -59 0 -22 6 -37 18 -43 17 -9 62 -87 62 -108 0 -5 18 -28 40 -52 22 -23 40 -51 40 -62 0 -26 37 -90 71 -120 16 -14 29 -35 29 -47 0 -12 9 -27 20 -34 16 -10 20 -24 20 -70 0 -45 5 -63 20 -78 11 -11 20 -33 20 -49 0 -16 6 -31 14 -34 7 -3 16 -25 19 -50 7 -48 53 -133 77 -142 34 -11 43 -48 48 -185 2 -74 9 -140 14 -147 5 -7 9 -29 8 -50 -3 -55 -1 -63 10 -63 18 0 60 102 60 145 1 47 15 75 51 104 l26 20 -1 258 c-1 222 -4 263 -19 295 -9 21 -17 50 -17 65 0 25 -30 139 -51 191 -22 54 -32 78 -39 92 -4 9 -11 35 -15 59 -4 24 -18 68 -31 97 -13 30 -24 63 -24 74 0 10 -4 21 -9 24 -5 3 -12 26 -15 51 -4 25 -11 45 -16 45 -4 0 -11 19 -15 43 -4 23 -13 53 -21 67 -20 36 -44 108 -53 155 -4 22 -16 63 -25 90 -15 42 -17 70 -12 180 4 71 11 134 15 140 5 5 11 33 14 61 6 50 40 136 65 162 6 7 12 19 12 25 0 7 9 29 20 50 11 20 20 44 20 52 0 9 7 18 15 21 8 4 15 12 15 20 0 13 48 112 60 124 10 10 31 46 46 78 8 18 21 35 29 39 8 3 15 11 15 18 0 7 16 36 35 65 l34 51 5 300 c3 164 4 299 3 299 -2 0 -10 -6 -19 -12z m-61 -465 c-3 -10 -5 -2 -5 17 0 19 2 27 5 18 2 -10 2 -26 0 -35z m-567 -991 c0 -23 -29 -64 -40 -57 -10 6 20 74 33 75 4 0 7 -8 7 -18z m-130 -151 c-15 -28 -33 -27 -24 2 3 12 12 28 18 36 9 12 11 12 14 -2 2 -9 -2 -25 -8 -36z"/>
 <path d="M3495 6789 c-11 -58 -3 -94 21 -97 19 -3 22 3 26 38 3 30 -2 47 -18 68 l-22 27 -7 -36z"/>
 <path d="M3539 6656 c-11 -24 -10 -30 9 -49 33 -33 47 -10 22 37 l-19 39 -12 -27z"/>
 <path d="M6258 6613 c0 -5 -2 -12 -3 -18 -2 -5 -3 -13 -4 -18 0 -4 -20 2 -42 14 -27 13 -50 18 -67 14 -24 -6 -25 -8 -18 -66 6 -64 25 -114 55 -146 30 -32 48 -133 56 -313 3 -69 9 -141 12 -160 7 -38 7 -38 16 -60 3 -8 8 -35 10 -60 7 -66 35 -229 41 -239 3 -5 8 -28 11 -50 3 -23 9 -50 14 -59 5 -9 12 -25 15 -35 12 -37 26 -4 26 58 0 37 5 67 11 71 9 5 10 -17 3 -87 -9 -98 -8 -188 2 -198 3 -3 12 3 20 13 14 19 14 19 14 -1 0 -17 17 -33 36 -33 9 0 4 79 -5 85 -6 3 -8 42 -6 88 10 199 23 258 39 171 10 -48 29 -32 49 44 27 97 31 172 13 250 -9 39 -16 102 -16 141 0 48 -5 74 -15 85 -8 8 -15 19 -15 25 0 6 -11 13 -24 17 -14 3 -27 12 -30 20 -3 8 -13 14 -22 14 -12 0 -15 5 -9 23 18 58 17 68 -8 101 -14 18 -29 46 -33 61 -4 16 -13 40 -20 54 -8 14 -14 44 -14 66 0 42 -14 76 -46 113 -18 22 -43 29 -46 15z m162 -797 c0 -12 -7 -31 -15 -42 -13 -18 -14 -15 -15 28 0 38 3 46 15 42 8 -4 15 -16 15 -28z"/>
 <path d="M7744 6454 c3 -9 6 -18 6 -20 0 -2 4 -4 9 -4 5 0 7 9 4 20 -3 11 -10 20 -15 20 -6 0 -7 -7 -4 -16z"/>
 <path d="M6410 6415 c-10 -12 -10 -21 -2 -38 6 -12 12 -28 14 -36 2 -8 12 -15 21 -17 24 -3 23 56 -2 85 -16 19 -20 19 -31 6z"/>
 <path d="M3610 6321 c0 -6 5 -13 10 -16 6 -3 10 1 10 9 0 9 -4 16 -10 16 -5 0 -10 -4 -10 -9z"/>
 <path d="M6030 5550 c0 -7 3 -10 7 -7 3 4 3 10 0 14 -4 3 -7 0 -7 -7z"/>
 <path d="M2005 5460 c-3 -5 -1 -10 4 -10 6 0 11 5 11 10 0 6 -2 10 -4 10 -3 0 -8 -4 -11 -10z"/>
 <path d="M7292 5348 c-7 -7 -12 -19 -12 -27 0 -8 -13 -35 -30 -61 -27 -42 -42 -91 -73 -241 -7 -32 -20 -66 -29 -76 -10 -11 -18 -25 -18 -31 0 -6 -8 -19 -19 -29 -23 -23 -32 -54 -47 -160 -5 -36 -3 -53 4 -53 8 0 9 -8 3 -22 -5 -13 -15 -23 -22 -23 -9 0 -19 -22 -27 -60 -7 -33 -15 -71 -18 -85 -3 -14 -10 -71 -16 -127 -10 -100 -11 -102 -38 -108 -30 -7 -41 -23 -45 -69 -2 -16 -8 -32 -14 -36 -7 -3 -14 -24 -17 -46 -7 -47 -23 -85 -45 -101 -11 -8 -15 -21 -11 -39 2 -14 0 -29 -5 -33 -6 -3 -20 -34 -32 -68 -19 -55 -22 -83 -22 -244 -1 -189 3 -206 42 -194 14 5 16 -3 11 -65 l-5 -71 37 -33 c40 -37 46 -56 17 -56 -36 0 -48 -36 -58 -178 -4 -48 -1 -69 12 -89 13 -20 18 -55 22 -152 4 -119 23 -240 60 -373 9 -32 19 -58 23 -58 3 0 6 -11 6 -25 0 -15 -6 -25 -14 -25 -11 0 -13 -9 -8 -42 4 -23 12 -45 18 -49 17 -11 38 1 38 21 0 10 6 20 13 23 8 3 6 9 -8 20 -25 19 -14 31 28 32 28 1 32 4 35 32 2 17 -4 68 -12 113 -9 45 -14 85 -11 90 2 4 0 22 -5 41 -11 36 -12 114 -4 189 3 25 6 128 8 230 1 102 6 195 10 208 4 12 3 22 -2 22 -16 0 -7 96 10 114 22 21 26 20 30 -6 2 -13 8 -23 15 -23 6 0 15 -3 19 -7 4 -5 11 -8 16 -8 13 0 38 65 38 99 0 16 4 32 9 36 6 3 10 22 10 43 -1 48 46 438 67 567 5 28 27 239 40 378 4 38 2 57 -5 57 -8 0 -7 10 2 33 8 18 15 71 16 117 1 47 8 103 16 125 7 22 16 66 20 98 7 55 27 93 45 82 11 -7 40 116 40 174 0 84 -29 131 -49 79 -5 -13 -16 -39 -25 -58 l-16 -35 4 58 c3 32 9 64 14 70 18 24 22 78 7 107 -19 36 -29 42 -43 28z m35 -395 c-4 -3 -7 0 -7 7 0 7 3 10 7 7 3 -4 3 -10 0 -14z m-260 -370 c-4 -3 -10 -3 -14 0 -3 4 0 7 7 7 7 0 10 -3 7 -7z m-15 -35 c-6 -6 -15 -8 -19 -4 -4 4 -1 11 7 16 8 5 17 7 19 4 3 -2 -1 -10 -7 -16z m85 -853 c-6 -24 -13 -42 -17 -40 -9 5 11 85 21 85 3 0 2 -20 -4 -45z m-307 -20 c0 -14 -4 -25 -9 -25 -6 0 -12 -15 -14 -32 -2 -20 -4 -11 -5 25 -2 45 1 57 13 57 9 0 15 -9 15 -25z m136 -248 c1 -113 -2 -147 -11 -147 -10 0 -14 35 -17 138 -4 144 -2 165 15 159 7 -2 11 -57 13 -150z m-16 -188 c-13 -24 -19 -24 -15 -1 2 9 4 21 4 25 1 5 6 5 11 2 7 -4 7 -13 0 -26z"/>
 <path d="M5090 5257 c0 -28 33 -62 51 -51 9 5 8 10 -3 18 -9 6 -17 20 -19 30 -6 29 -29 32 -29 3z"/>
 <path d="M80 5248 c0 -6 -10 -22 -22 -35 -28 -30 -14 -60 26 -55 14 1 26 -2 26 -8 0 -5 5 -10 10 -10 13 0 13 35 -1 83 -9 34 -39 53 -39 25z"/>
 <path d="M3415 4701 c-8 -37 5 -57 29 -48 21 8 20 26 -3 56 l-19 24 -7 -32z"/>
 <path d="M1339 4498 c-4 -55 5 -194 16 -243 7 -33 16 -83 20 -111 6 -48 9 -52 36 -56 20 -3 29 0 29 9 0 28 38 12 60 -24 21 -36 22 -43 12 -148 -5 -60 -8 -141 -6 -180 8 -137 7 -215 -3 -227 -6 -7 -14 -36 -18 -65 -4 -29 -14 -67 -24 -86 -26 -50 -62 -98 -70 -93 -4 3 -13 -23 -19 -57 -13 -68 -4 -91 26 -69 9 7 30 18 45 25 21 9 37 30 58 75 45 96 90 239 99 317 5 39 14 92 20 119 9 35 9 55 1 72 -5 13 -13 65 -16 116 -4 51 -11 108 -17 126 -6 19 -16 62 -23 97 -10 47 -22 72 -47 98 -18 19 -39 42 -46 51 -7 9 -17 14 -22 11 -12 -8 -23 31 -15 56 4 12 3 31 -3 43 -5 11 -17 37 -26 56 -31 67 -65 112 -67 88z"/>
 <path d="M6735 3710 c-3 -5 -1 -10 4 -10 6 0 11 5 11 10 0 6 -2 10 -4 10 -3 0 -8 -4 -11 -10z"/>
 <path d="M6721 3664 c0 -11 3 -14 6 -6 3 7 2 16 -1 19 -3 4 -6 -2 -5 -13z"/>
 <path d="M7056 3214 c-8 -32 -6 -35 22 -27 15 3 22 13 22 29 0 34 -36 33 -44 -2z"/>
 <path d="M3929 3194 c-6 -7 -8 -18 -4 -24 3 -5 2 -10 -3 -10 -6 0 -13 -26 -16 -57 -9 -84 -11 -403 -2 -439 l7 -31 36 18 c39 20 124 20 131 0 2 -6 9 -11 17 -11 8 0 16 28 23 88 l10 87 -1 -95 c-2 -87 0 -95 18 -98 22 -5 41 -25 56 -61 15 -36 22 -18 10 27 -6 21 -9 52 -6 68 3 16 1 58 -5 94 -6 36 -19 119 -29 185 -18 113 -43 205 -63 231 -5 7 -23 14 -41 17 -18 3 -53 10 -80 15 -35 7 -50 6 -58 -4z m45 -332 c-4 -17 -10 -29 -15 -26 -11 6 -12 58 -2 68 13 13 23 -11 17 -42z"/>
 <path d="M1500 3150 c-8 -5 -11 -12 -7 -16 4 -4 13 -2 19 4 15 15 7 24 -12 12z"/>
 <path d="M7595 3080 c3 -14 9 -43 12 -65 5 -37 25 -65 45 -65 12 0 9 32 -5 56 -52 90 -58 98 -52 74z"/>
 <path d="M6351 3034 c0 -11 3 -14 6 -6 3 7 2 16 -1 19 -3 4 -6 -2 -5 -13z"/>
 <path d="M6437 2944 c-14 -14 -7 -81 9 -95 14 -11 18 -10 30 6 8 10 14 24 14 29 -1 17 -45 67 -53 60z"/>
 <path d="M4167 2243 c-26 -60 -66 -76 -178 -71 l-89 4 -1 -111 c-1 -60 -2 -148 -4 -193 -1 -59 2 -88 12 -97 7 -8 13 -29 13 -48 0 -18 9 -62 20 -96 12 -34 18 -66 15 -71 -4 -6 -1 -10 4 -10 6 0 11 -7 11 -15 0 -9 7 -18 16 -22 9 -3 19 -14 23 -25 7 -18 8 -18 18 4 13 26 80 284 111 428 41 188 53 266 50 314 l-3 49 -18 -40z m-194 -461 c-6 -24 -23 -30 -23 -9 0 13 21 39 26 34 2 -2 1 -13 -3 -25z"/>
 </g>

</svg>