<!DOCTYPE svg PUBLIC "-//W3C//DTD SVG 20010904//EN" "http://www.w3.org/TR/2001/REC-SVG-20010904/DTD/svg10.dtd">
<svg version="1.0" xmlns="http://www.w3.org/2000/svg" width="798px" height="954px" viewBox="0 0 7980 9540" preserveAspectRatio="xMidYMid meet">
<g id="layer1" fill="#e50d26" stroke="none">
 <path d="M4893 7193 c9 -2 25 -2 35 0 9 3 1 5 -18 5 -19 0 -27 -2 -17 -5z"/>
 <path d="M4198 6773 c-7 -16 -87 -73 -102 -73 -9 0 -16 -3 -16 -7 0 -9 -49 -33 -67 -33 -7 0 -13 -5 -13 -10 0 -6 -12 -10 -27 -9 -16 0 -54 -4 -86 -9 -63 -10 -164 1 -212 23 -55 24 -100 28 -115 10 -26 -32 -19 -44 48 -77 l67 -33 165 0 c125 0 173 4 198 15 17 8 32 18 32 22 0 5 9 8 20 8 12 0 30 9 42 20 12 11 31 20 42 20 12 0 29 7 39 15 11 7 25 11 32 9 7 -3 15 2 18 10 4 9 12 16 18 16 7 0 21 8 31 17 18 16 22 16 69 -1 27 -10 52 -16 55 -13 3 3 -8 8 -25 12 -17 4 -31 11 -31 16 0 5 -5 9 -11 9 -5 0 -27 11 -47 25 -36 24 -116 36 -124 18z"/>
 <path d="M4463 6673 c4 -3 10 -3 14 0 3 4 0 7 -7 7 -7 0 -10 -3 -7 -7z"/>
 <path d="M4520 6640 c19 -13 30 -13 30 0 0 6 -10 10 -22 10 -19 0 -20 -2 -8 -10z"/>
 <path d="M4597 6636 c-11 -29 -8 -33 18 -28 26 5 35 22 11 22 -8 0 -16 5 -18 12 -3 7 -7 5 -11 -6z"/>
 <path d="M4690 6600 c0 -5 -7 -10 -15 -10 -8 0 -15 -7 -15 -15 0 -19 -68 -84 -96 -91 -12 -3 -25 -12 -27 -19 -3 -7 -23 -16 -44 -20 -21 -4 -40 -10 -43 -14 -10 -15 -220 -45 -337 -49 -68 -2 -123 -7 -123 -13 0 -5 -19 -9 -43 -9 -24 0 -47 -4 -53 -10 -14 -14 -154 -15 -209 -1 -56 14 -188 15 -193 0 -2 -5 -13 -4 -24 2 -12 6 -60 14 -107 16 -48 3 -89 10 -93 17 -6 8 -11 7 -18 -4 -6 -10 -10 -11 -10 -2 0 6 -6 12 -14 12 -8 0 -27 5 -43 11 -27 10 -28 11 -8 25 17 13 18 16 5 25 -8 5 -26 8 -40 7 -14 -1 -31 1 -38 5 -6 5 -12 4 -12 -1 0 -5 -12 -14 -26 -21 -22 -10 -25 -16 -19 -39 7 -28 23 -44 37 -36 5 3 7 0 6 -7 -2 -7 2 -14 7 -14 6 -1 17 -4 25 -7 59 -20 90 -28 117 -28 17 0 33 -4 35 -10 2 -6 88 -12 209 -14 114 -3 228 -10 255 -16 82 -19 191 -16 274 8 50 14 118 23 205 27 72 3 150 9 175 15 87 17 140 33 140 42 0 4 13 8 29 8 32 0 119 45 139 72 7 10 17 18 23 18 15 0 49 39 49 56 0 8 5 12 11 8 6 -3 15 -1 19 6 9 15 66 4 73 -14 4 -10 -1 -12 -15 -8 -14 3 -19 1 -14 -6 5 -8 21 -10 44 -6 33 5 39 2 61 -27 13 -17 18 -28 11 -24 -8 5 -11 3 -8 -6 3 -8 14 -14 25 -15 12 -1 30 -5 40 -9 17 -7 17 -8 -2 -15 -19 -7 -19 -7 4 -19 15 -8 21 -9 17 -2 -4 6 -2 11 4 11 7 0 10 7 6 15 -3 9 0 15 8 15 8 0 16 -6 19 -12 2 -7 8 -10 12 -6 11 11 -16 40 -32 34 -7 -3 -13 1 -13 8 0 14 -30 26 -67 26 -24 0 -33 20 -10 20 6 1 -8 8 -33 16 -25 9 -50 22 -56 30 -6 8 -23 14 -38 14 -14 0 -26 5 -26 10 0 6 -11 10 -25 10 -14 0 -25 5 -25 10 0 6 -12 10 -26 10 -14 0 -23 4 -19 10 3 6 -1 10 -9 10 -9 0 -16 -4 -16 -10z"/>
 <path d="M4813 6513 c4 -3 10 -3 14 0 3 4 0 7 -7 7 -7 0 -10 -3 -7 -7z"/>
 <path d="M4213 6483 c4 -3 10 -3 14 0 3 4 0 7 -7 7 -7 0 -10 -3 -7 -7z"/>
 <path d="M4880 6470 c0 -6 7 -10 15 -10 8 0 15 2 15 4 0 2 -7 6 -15 10 -8 3 -15 1 -15 -4z"/>
 <path d="M4048 6463 c7 -3 16 -2 19 1 4 3 -2 6 -13 5 -11 0 -14 -3 -6 -6z"/>
 <path d="M3413 6443 c4 -3 10 -3 14 0 3 4 0 7 -7 7 -7 0 -10 -3 -7 -7z"/>
 <path d="M5073 6388 c-13 -6 -23 -14 -23 -18 0 -16 78 -92 84 -81 5 7 15 7 32 1 32 -13 44 -13 44 0 0 6 -9 10 -19 10 -11 0 -27 9 -35 21 -8 12 -19 18 -25 15 -6 -4 -19 -2 -28 4 -16 9 -15 10 5 5 13 -4 22 -2 22 4 0 6 -4 11 -10 11 -5 0 -10 9 -10 20 0 22 -5 23 -37 8z"/>
 <path d="M4973 6274 c-3 -8 -12 -13 -19 -10 -8 3 -14 1 -14 -5 0 -6 -7 -9 -15 -5 -8 3 -15 0 -15 -7 0 -7 -17 -21 -37 -31 -21 -10 -50 -25 -65 -32 -14 -8 -36 -14 -48 -14 -11 0 -42 -10 -68 -21 -40 -18 -67 -22 -179 -23 -102 -1 -134 -4 -138 -15 -4 -9 -9 -10 -18 -4 -13 11 -68 10 -86 -1 -5 -4 -12 -2 -16 4 -9 15 -25 12 -25 -5 0 -11 -11 -15 -39 -15 -22 0 -43 -4 -46 -10 -3 -5 -16 -10 -28 -10 -151 1 -392 -10 -426 -20 -31 -8 -47 -8 -54 -1 -6 6 -25 11 -42 11 -17 0 -35 4 -40 9 -6 5 -77 14 -160 21 -82 7 -170 19 -194 27 -24 8 -53 16 -64 19 -11 2 -25 8 -31 14 -5 5 -16 10 -24 10 -12 0 -78 27 -91 37 -2 1 2 9 9 18 15 18 13 20 -17 29 -14 5 -23 3 -23 -4 0 -7 -6 -8 -17 -2 -30 15 -111 23 -115 11 -2 -6 -2 -26 0 -44 4 -35 26 -49 152 -93 85 -31 125 -47 130 -52 14 -15 60 -28 66 -19 4 7 10 7 18 0 15 -13 78 -21 187 -25 47 -1 90 -5 95 -8 5 -4 26 -9 47 -13 20 -4 40 -11 43 -16 5 -9 128 -7 459 7 72 3 144 7 160 10 144 22 201 32 205 34 3 2 68 4 145 5 155 2 195 9 305 54 100 41 249 114 249 123 1 8 -20 35 -47 64 -18 19 -61 18 -69 -2z"/>
 <path d="M5140 6266 c0 -8 7 -16 15 -20 9 -3 15 0 15 8 0 8 -7 16 -15 20 -9 3 -15 0 -15 -8z"/>
 <path d="M5223 6245 c-10 -11 -9 -15 7 -20 11 -4 20 -13 20 -21 0 -8 4 -14 8 -14 5 0 15 -11 22 -25 7 -14 22 -25 32 -25 10 0 18 -4 18 -10 0 -9 -14 -14 -32 -11 -14 2 -8 -16 9 -30 11 -10 14 -10 9 -1 -4 6 -2 12 3 12 14 0 14 -23 0 -37 -8 -8 -8 -13 0 -17 18 -12 32 4 25 27 -7 22 -6 22 15 3 11 -11 21 -24 21 -30 0 -6 -5 -4 -10 4 -8 13 -10 12 -10 -2 0 -10 -4 -18 -9 -18 -4 0 -6 -11 -3 -25 2 -14 8 -25 12 -25 5 0 12 -9 15 -20 3 -11 13 -20 21 -20 8 0 12 -4 9 -10 -3 -5 1 -10 10 -10 9 0 13 -4 10 -10 -3 -6 4 -10 17 -10 18 0 20 -2 9 -9 -12 -8 -10 -12 10 -21 23 -11 38 -50 19 -50 -5 0 -7 -6 -4 -14 3 -8 12 -12 20 -9 8 3 14 -1 14 -11 0 -9 -6 -16 -12 -17 -7 0 -4 -4 7 -9 11 -5 14 -9 8 -9 -7 -1 -13 -8 -13 -17 0 -12 6 -15 21 -11 17 5 20 1 18 -21 -2 -33 18 -85 30 -78 5 3 9 0 8 -7 -1 -40 3 -48 23 -42 16 5 20 2 20 -14 0 -14 -5 -19 -15 -15 -8 4 -15 1 -15 -5 0 -6 3 -11 8 -11 4 0 16 -29 27 -66 11 -36 28 -72 37 -81 10 -9 18 -20 18 -24 0 -4 5 -20 11 -36 l12 -28 8 29 c6 23 4 33 -11 46 -11 10 -20 29 -20 44 0 23 -9 31 -32 27 -17 -2 -7 55 12 69 21 15 27 40 10 40 -5 0 -10 -7 -10 -15 0 -8 -4 -15 -10 -15 -5 0 -10 9 -10 20 0 11 5 20 10 20 18 0 10 29 -9 35 -13 4 -21 17 -23 38 l-4 32 -11 -25 c-7 -14 -12 -19 -12 -12 -1 6 -8 12 -16 12 -18 0 -21 61 -4 93 9 16 9 22 0 25 -6 2 -11 17 -11 33 0 16 -4 29 -10 29 -5 0 -10 7 -10 15 0 14 -35 92 -47 105 -2 2 -8 -2 -14 -10 -6 -10 -7 -5 -3 18 4 20 2 32 -4 32 -6 0 -13 8 -17 19 -3 10 -19 33 -35 50 -17 17 -30 35 -30 41 0 5 -9 10 -20 10 -12 0 -20 7 -20 16 0 8 -6 22 -14 30 -8 8 -22 14 -30 14 -9 0 -16 7 -16 15 0 8 5 15 10 15 6 0 0 10 -12 23 -44 42 -52 46 -65 32z m193 -245 c-3 14 -3 19 0 13 3 -7 12 -13 20 -13 16 0 19 -26 3 -35 -17 -11 -53 3 -67 25 -21 35 -2 45 25 14 l25 -29 -6 25z m114 -170 c0 -5 -4 -10 -10 -10 -5 0 -10 5 -10 10 0 6 5 10 10 10 6 0 10 -4 10 -10z m67 -247 c-4 -3 -7 0 -7 7 0 7 3 10 7 7 3 -4 3 -10 0 -14z"/>
 <path d="M5200 6206 c0 -2 7 -9 15 -16 13 -11 14 -10 9 4 -5 14 -24 23 -24 12z"/>
 <path d="M5256 6155 c4 -8 11 -15 16 -15 6 0 5 6 -2 15 -7 8 -14 15 -16 15 -2 0 -1 -7 2 -15z"/>
 <path d="M2570 6071 c0 -6 -7 -11 -16 -11 -33 0 -43 -23 -27 -63 8 -20 21 -37 29 -37 8 0 14 -4 14 -10 0 -5 6 -10 13 -10 6 0 24 -10 39 -23 61 -51 69 -57 76 -57 4 0 20 -11 36 -25 16 -14 35 -25 41 -25 7 0 26 -7 41 -15 16 -8 37 -15 46 -15 9 0 20 -4 23 -10 3 -5 15 -10 25 -10 11 0 34 -8 53 -19 29 -16 77 -32 112 -36 6 -1 17 -4 25 -7 59 -24 200 -61 247 -65 32 -3 63 -11 70 -18 6 -7 38 -16 69 -20 32 -4 69 -11 82 -16 13 -5 43 -10 65 -11 23 0 54 -7 68 -14 14 -7 53 -17 85 -21 77 -10 344 -6 358 6 15 11 107 21 301 32 184 10 245 17 245 30 0 5 21 9 47 9 57 0 172 27 194 46 8 8 23 14 32 14 9 0 17 4 17 8 0 4 12 15 28 24 30 19 72 51 111 87 49 44 88 71 104 71 10 0 17 5 17 10 0 6 14 10 30 10 28 0 30 2 30 38 0 49 -15 68 -69 87 -55 19 -76 19 -106 -1 -31 -20 -31 -31 -3 -40 22 -7 21 -8 -12 -35 -19 -16 -39 -29 -45 -29 -6 0 -21 -10 -32 -22 -11 -13 -40 -39 -63 -58 -23 -19 -54 -45 -69 -57 -30 -27 -123 -58 -201 -68 -30 -3 -64 -8 -75 -10 -135 -23 -217 -32 -380 -41 -44 -2 -102 -8 -130 -13 -27 -6 -71 -10 -97 -10 -25 -1 -48 -6 -50 -12 -5 -16 -148 -17 -157 -2 -4 7 -36 13 -84 14 -42 2 -77 6 -77 9 0 10 -73 30 -107 30 -16 0 -33 3 -37 7 -3 4 -17 8 -29 10 -12 2 -40 9 -62 17 -22 8 -64 18 -93 21 -30 4 -66 13 -80 21 -15 8 -39 14 -54 14 -16 0 -28 4 -28 9 0 6 -21 13 -47 16 -51 7 -63 10 -135 44 -25 12 -50 21 -55 19 -12 -3 -87 38 -102 56 -8 9 -19 16 -26 16 -8 0 -22 11 -33 25 -11 14 -25 25 -31 25 -6 0 -11 5 -11 10 0 6 -6 10 -13 10 -22 0 -72 55 -72 80 0 10 -12 16 -32 18 -19 2 -33 -1 -33 -7z"/>
 <path d="M1010 5815 c0 -8 4 -15 10 -15 5 0 7 7 4 15 -4 8 -8 15 -10 15 -2 0 -4 -7 -4 -15z"/>
 <path d="M2303 5748 c-45 -9 -49 -16 -34 -46 5 -9 16 -32 23 -50 12 -29 17 -33 48 -31 38 3 80 -8 80 -20 0 -4 12 -6 28 -3 19 2 35 -4 54 -21 15 -14 40 -28 55 -31 16 -4 44 -20 63 -36 19 -17 41 -30 48 -30 6 0 12 -4 12 -8 0 -8 50 -32 128 -62 17 -7 32 -16 32 -21 0 -5 13 -9 29 -9 17 0 32 -4 35 -9 3 -4 20 -11 37 -15 17 -3 45 -12 62 -20 50 -21 141 -46 170 -46 15 0 27 -4 27 -10 0 -9 75 -27 93 -22 4 1 21 -5 37 -13 16 -8 49 -15 75 -15 25 0 45 -4 45 -10 0 -6 30 -10 68 -11 37 0 88 -4 114 -8 26 -4 51 -4 55 0 5 5 31 1 58 -7 31 -10 68 -13 99 -10 27 3 56 1 65 -3 9 -5 57 -12 106 -15 132 -9 600 -11 613 -2 6 4 58 11 114 16 56 5 104 13 106 19 2 6 12 11 22 11 10 0 22 5 25 10 3 6 26 15 51 21 24 6 44 15 44 19 0 7 24 14 98 27 18 3 32 11 32 19 0 8 6 14 14 14 8 0 36 11 63 24 26 13 66 32 88 42 57 26 135 110 135 145 0 15 5 31 11 35 6 3 17 22 25 40 17 40 2 74 -31 74 -12 0 -26 5 -32 11 -8 8 -13 8 -17 0 -4 -6 -15 -11 -26 -11 -13 0 -17 -5 -13 -20 5 -20 -17 -80 -29 -80 -5 0 -8 -8 -8 -18 0 -18 -29 -52 -43 -52 -3 0 -17 -11 -31 -25 -14 -14 -34 -25 -46 -25 -11 0 -20 -4 -20 -10 0 -5 -7 -10 -15 -10 -8 0 -15 -4 -15 -10 0 -5 -7 -10 -15 -10 -8 0 -15 -4 -15 -10 0 -5 -13 -10 -30 -10 -16 0 -30 -4 -30 -10 0 -5 -8 -10 -17 -10 -10 0 -29 -6 -43 -13 -14 -8 -48 -19 -74 -26 -27 -7 -60 -20 -72 -30 -15 -12 -50 -21 -97 -26 -41 -3 -87 -8 -103 -10 -16 -2 -50 -5 -76 -6 -27 -1 -48 -6 -48 -11 0 -10 -452 -1 -460 10 -3 4 -27 9 -53 10 -38 3 -51 0 -63 -15 -13 -17 -15 -17 -28 0 -10 13 -15 15 -19 5 -3 -10 -9 -11 -25 -1 -11 7 -53 13 -94 14 -40 1 -93 6 -118 11 -25 5 -92 12 -149 14 -58 3 -112 9 -120 13 -9 5 -42 12 -73 15 -32 4 -61 13 -65 19 -5 7 -24 13 -43 14 -77 4 -90 7 -106 24 -9 10 -20 16 -25 14 -4 -3 -10 -1 -13 4 -3 5 -24 7 -46 4 -26 -4 -40 -2 -40 6 0 6 -8 11 -18 11 -10 0 -39 14 -65 30 -26 17 -53 30 -59 30 -5 0 -25 12 -43 28 -66 55 -76 62 -95 62 -11 0 -20 5 -20 10 0 6 -6 10 -13 10 -7 0 -23 9 -35 20 -12 11 -26 20 -31 20 -20 0 -101 55 -101 69 0 11 -3 11 -16 0 -11 -9 -18 -10 -22 -2 -4 6 -30 20 -57 31 -39 15 -59 17 -92 10z"/>
 <path d="M2143 5563 c4 -3 10 -3 14 0 3 4 0 7 -7 7 -7 0 -10 -3 -7 -7z"/>
 <path d="M5700 5430 c0 -19 3 -21 12 -12 9 9 9 15 0 24 -9 9 -12 7 -12 -12z"/>
 <path d="M4063 5333 c4 -3 10 -3 14 0 3 4 0 7 -7 7 -7 0 -10 -3 -7 -7z"/>
 <path d="M5716 5271 c-4 -5 -2 -20 3 -33 11 -26 12 -25 17 15 3 26 -9 37 -20 18z"/>
 <path d="M5750 5270 c0 -7 3 -10 7 -7 3 4 3 10 0 14 -4 3 -7 0 -7 -7z"/>
 <path d="M2232 5262 c-9 -6 -10 -16 -3 -34 8 -21 20 -28 61 -37 28 -6 58 -11 65 -11 8 0 15 -4 15 -9 0 -12 239 -128 300 -146 14 -4 36 -16 50 -25 14 -10 51 -26 83 -35 31 -9 57 -20 57 -25 0 -5 13 -8 29 -8 16 1 44 -10 62 -24 43 -31 85 -44 179 -59 41 -6 89 -17 105 -24 43 -18 205 -47 261 -46 27 0 65 -7 84 -16 30 -15 78 -17 348 -17 208 0 316 3 320 10 4 6 14 11 22 12 18 0 119 9 215 18 39 3 84 12 100 19 17 8 57 17 90 20 57 7 135 28 159 43 6 4 13 7 16 7 36 6 167 39 175 45 6 4 28 10 51 13 36 4 86 21 135 47 8 4 44 15 80 24 35 9 82 26 105 36 22 11 52 20 66 20 14 0 31 7 38 15 7 8 24 15 38 15 23 0 24 3 19 36 -3 20 -9 39 -12 43 -4 3 -35 6 -70 6 -57 0 -65 -3 -85 -27 -15 -19 -31 -28 -51 -28 -16 0 -29 -4 -29 -10 0 -5 -15 -10 -34 -10 -19 0 -38 -4 -41 -10 -3 -5 -15 -10 -26 -10 -10 0 -27 -4 -37 -9 -74 -38 -162 -69 -212 -75 -25 -3 -66 -14 -90 -25 -25 -11 -59 -21 -77 -21 -17 0 -35 -4 -38 -10 -3 -5 -28 -10 -55 -10 -26 0 -50 -5 -52 -11 -2 -6 -28 -12 -58 -15 -30 -2 -82 -6 -115 -9 -33 -2 -76 -7 -95 -11 -19 -4 -41 -6 -48 -5 -8 1 -20 -3 -28 -10 -7 -6 -20 -9 -28 -6 -7 3 -18 1 -23 -4 -10 -10 -263 -23 -433 -23 -145 1 -291 11 -330 24 -19 6 -60 13 -90 16 -30 3 -59 9 -65 15 -13 13 -65 11 -65 -2 0 -6 -7 -3 -16 5 -8 9 -20 14 -25 10 -6 -3 -16 -1 -24 6 -7 6 -19 10 -27 9 -36 -5 -88 2 -100 14 -7 7 -33 19 -58 26 -25 7 -61 22 -80 32 -19 10 -69 35 -110 54 -41 20 -83 41 -92 46 -10 5 -26 9 -35 9 -10 0 -40 14 -68 30 -27 16 -59 30 -70 30 -11 0 -33 11 -49 25 -16 13 -37 27 -47 30 -11 4 -19 11 -19 16 0 5 -11 9 -24 9 -13 0 -26 5 -28 12 -5 15 -146 23 -166 10z"/>
 <path d="M5751 5222 c-1 -13 -5 -21 -10 -18 -5 3 -12 -1 -15 -10 -9 -23 -8 -24 13 -24 12 0 20 -9 23 -24 4 -18 1 -22 -13 -19 -14 4 -16 0 -12 -16 5 -22 23 -29 23 -10 0 5 5 7 10 4 15 -9 11 75 -5 110 -12 27 -13 28 -14 7z"/>
 <path d="M2303 5123 c4 -3 10 -3 14 0 3 4 0 7 -7 7 -7 0 -10 -3 -7 -7z"/>
 <path d="M5772 5056 c-6 -22 -9 -43 -7 -47 3 -4 1 -9 -4 -11 -5 -1 -3 -12 6 -23 11 -14 14 -15 10 -4 -4 11 0 16 11 15 12 -1 18 8 20 32 2 17 -1 32 -7 32 -5 0 -11 10 -13 23 -3 18 -6 15 -16 -17z"/>
 <path d="M5770 4930 c0 -4 9 -10 20 -13 11 -3 20 -2 20 3 0 4 -9 10 -20 13 -11 3 -20 2 -20 -3z"/>
 <path d="M5796 4894 c-9 -8 -13 -20 -10 -26 4 -6 10 -5 15 3 5 8 9 9 9 4 0 -6 -5 -16 -11 -22 -6 -6 -8 -17 -3 -24 4 -7 8 -29 9 -48 3 -108 6 -125 14 -112 5 7 13 11 18 8 5 -3 10 1 10 9 0 8 -6 13 -14 10 -8 -4 -13 2 -13 16 0 17 2 18 15 8 13 -11 15 -8 15 13 0 14 -5 27 -11 29 -8 3 -11 30 -10 76 1 73 -5 84 -33 56z"/>
 <path d="M2090 4780 c0 -5 -9 -10 -20 -10 -11 0 -20 -3 -20 -6 0 -17 64 -63 97 -69 20 -4 44 -15 53 -25 9 -10 29 -22 46 -26 16 -3 39 -17 52 -30 14 -15 34 -24 52 -24 17 0 30 -4 30 -9 0 -5 21 -12 48 -16 26 -4 52 -10 57 -14 6 -4 30 -13 55 -20 25 -7 63 -18 85 -24 22 -7 46 -10 53 -9 8 2 19 -1 25 -7 7 -5 50 -14 97 -21 47 -6 101 -16 120 -22 19 -6 46 -11 59 -10 13 1 29 -2 35 -7 6 -5 43 -12 81 -15 39 -3 84 -10 100 -15 17 -5 70 -12 118 -15 78 -6 136 -20 125 -31 -3 -4 -157 -14 -288 -20 -30 -1 -62 -5 -70 -8 -22 -9 -201 -30 -232 -28 -16 1 -28 -4 -28 -10 0 -6 -9 -9 -20 -6 -11 3 -37 1 -57 -5 -21 -5 -47 -9 -58 -9 -11 1 -38 -3 -60 -9 -22 -5 -74 -11 -115 -14 -41 -2 -83 -7 -92 -11 -11 -4 -18 -3 -18 5 0 7 -11 9 -32 5 -46 -8 -52 -10 -63 -17 -5 -3 -58 -4 -117 -3 -60 2 -108 0 -108 -4 0 -5 -13 -14 -29 -21 -38 -15 -46 -36 -25 -67 17 -27 28 -27 144 -5 81 16 204 31 295 37 44 3 91 8 105 10 44 9 254 32 285 32 39 0 136 13 155 20 28 11 73 12 567 13 271 0 521 -4 555 -9 35 -5 110 -17 168 -25 58 -9 197 -18 310 -21 234 -5 345 -16 427 -40 32 -9 76 -21 98 -27 22 -6 47 -13 55 -16 8 -3 43 -13 77 -22 34 -10 69 -24 77 -33 9 -8 29 -18 46 -22 16 -4 30 -10 30 -15 0 -16 57 -30 117 -27 42 1 63 6 63 15 0 6 4 12 9 12 15 0 22 33 9 41 -7 5 -51 21 -98 35 -47 15 -95 33 -108 41 -31 19 -113 43 -124 37 -4 -3 -8 -1 -8 4 0 6 -22 13 -50 17 -27 4 -52 11 -55 15 -3 4 -29 11 -58 15 -28 4 -56 11 -62 15 -37 28 -131 40 -345 45 -223 5 -378 16 -475 34 -27 6 -71 10 -97 10 -26 1 -49 5 -52 10 -11 17 66 22 237 15 178 -6 223 -2 477 51 41 8 91 18 110 21 19 3 44 9 55 14 11 4 61 13 110 19 50 6 113 16 140 21 28 5 86 9 131 9 64 1 90 6 132 26 29 14 56 25 62 25 5 0 10 4 10 10 0 5 18 13 40 16 22 4 40 10 40 15 0 5 8 9 18 9 45 0 57 58 18 83 -13 9 -34 17 -47 19 -13 2 -28 6 -34 9 -18 11 -119 8 -132 -3 -20 -16 -16 -23 23 -37 l36 -13 -28 -15 c-16 -8 -44 -24 -64 -36 -41 -26 -34 -24 -185 -33 -66 -4 -126 -11 -132 -16 -7 -6 -23 -8 -35 -5 -13 3 -72 -3 -133 -14 -60 -11 -130 -23 -155 -26 -25 -3 -52 -11 -61 -19 -9 -8 -18 -11 -21 -8 -4 3 -28 -3 -55 -13 -44 -17 -91 -18 -588 -18 -297 -1 -558 3 -580 8 -22 5 -51 8 -65 8 -14 0 -32 3 -40 6 -8 3 -53 8 -100 10 -47 3 -90 9 -96 14 -7 6 -29 9 -51 9 -39 -2 -99 8 -240 41 -45 10 -96 19 -112 19 -16 0 -33 5 -36 11 -4 6 -13 8 -20 5 -7 -2 -22 2 -33 10 -11 7 -46 17 -78 20 -35 5 -66 15 -78 26 -11 10 -27 18 -35 18 -25 0 -141 43 -141 52 0 4 -6 8 -13 8 -18 0 -67 24 -67 33 0 4 -9 7 -20 7 -11 0 -20 4 -20 8 0 10 -66 35 -107 39 -18 2 -33 -1 -33 -7z m1467 -433 c-2 -7 -10 -11 -18 -10 -95 11 -118 31 -29 25 33 -3 50 -8 47 -15z m317 3 c8 -8 -110 -22 -169 -20 -16 1 -47 1 -67 0 -58 -3 -84 25 -30 32 47 7 257 -3 266 -12z"/>
 <path d="M5841 4637 c0 -16 -5 -26 -11 -22 -6 4 -10 -7 -10 -25 0 -17 4 -29 9 -26 5 3 12 -1 15 -10 9 -24 7 -31 -4 -14 -8 13 -10 13 -10 -2 0 -9 -6 -19 -12 -21 -10 -4 -10 -7 -1 -14 8 -5 11 -23 8 -43 -2 -19 1 -40 7 -48 9 -10 9 -15 -1 -22 -8 -4 -12 -13 -10 -19 3 -6 9 -7 18 -2 18 11 25 151 12 236 -5 33 -9 47 -10 32z"/>
 <path d="M5538 4503 c7 -3 16 -2 19 1 4 3 -2 6 -13 5 -11 0 -14 -3 -6 -6z"/>
 <path d="M5835 4350 c-3 -5 -1 -10 4 -10 6 0 11 5 11 10 0 6 -2 10 -4 10 -3 0 -8 -4 -11 -10z"/>
 <path d="M1962 4330 c0 -14 2 -19 5 -12 2 6 2 18 0 25 -3 6 -5 1 -5 -13z"/>
 <path d="M5841 4290 c0 -40 2 -42 11 -22 8 16 8 28 0 45 -9 19 -11 17 -11 -23z"/>
 <path d="M5820 4290 c0 -7 3 -10 7 -7 3 4 3 10 0 14 -4 3 -7 0 -7 -7z"/>
 <path d="M5810 4256 c0 -8 5 -18 10 -21 6 -3 10 1 10 9 0 8 -4 18 -10 21 -5 3 -10 -1 -10 -9z"/>
 <path d="M3223 4223 c4 -3 10 -3 14 0 3 4 0 7 -7 7 -7 0 -10 -3 -7 -7z"/>
 <path d="M5806 4204 c-8 -20 0 -32 14 -18 5 5 5 15 1 22 -6 11 -10 10 -15 -4z"/>
 <path d="M1962 4173 c1 -24 6 -43 10 -43 11 0 10 52 -2 70 -8 11 -10 4 -8 -27z"/>
 <path d="M3180 4158 c-56 -9 -342 -10 -364 -2 -10 4 -22 0 -30 -11 -11 -15 -32 -18 -147 -20 -138 -3 -193 -12 -266 -46 -24 -10 -53 -19 -66 -19 -13 0 -27 -3 -31 -7 -4 -5 -11 -8 -14 -9 -7 0 -55 -20 -82 -33 -8 -5 -25 -7 -37 -6 -13 1 -23 -4 -23 -12 0 -7 -6 -13 -13 -13 -14 0 -51 -39 -53 -55 0 -5 -2 -16 -2 -24 -2 -11 -5 -11 -17 -1 -8 7 -15 8 -15 2 0 -5 7 -15 15 -22 9 -7 13 -22 10 -34 -3 -12 -2 -15 1 -8 3 7 25 12 54 12 39 0 52 5 67 23 21 27 137 92 182 102 17 4 31 11 31 16 0 5 10 9 23 9 13 0 28 5 34 11 6 6 42 12 79 13 38 1 76 6 83 10 10 6 12 5 7 -2 -4 -7 -3 -12 3 -12 5 0 13 5 16 10 3 6 16 10 29 10 12 0 25 3 29 6 10 11 407 21 423 11 5 -3 39 -2 74 2 66 7 240 6 430 -4 58 -3 141 -8 185 -10 201 -10 246 -14 330 -29 50 -9 132 -23 183 -31 52 -9 104 -22 115 -29 12 -7 65 -24 117 -36 52 -13 99 -27 105 -32 5 -4 29 -8 54 -8 47 0 97 -12 144 -36 16 -8 37 -14 47 -14 10 0 22 -4 25 -10 3 -5 15 -10 25 -10 10 0 25 -8 32 -19 15 -21 160 -101 183 -101 9 0 21 -12 27 -26 7 -14 27 -32 45 -39 18 -8 33 -21 33 -29 0 -14 35 -16 101 -7 16 2 18 35 3 52 -9 10 -13 23 -9 28 3 6 0 11 -8 11 -8 0 -25 10 -38 23 -13 13 -40 30 -59 37 -19 8 -51 24 -70 36 -20 12 -49 24 -65 28 -17 4 -48 20 -70 36 -75 53 -169 97 -223 103 -62 7 -122 27 -122 40 0 5 -7 7 -15 3 -24 -9 -129 14 -142 31 -11 14 -15 14 -29 2 -13 -11 -18 -11 -21 -1 -3 6 -17 12 -31 12 -15 1 -52 10 -82 21 -30 12 -67 22 -81 23 -14 2 -30 6 -36 9 -6 4 -27 5 -47 1 -20 -3 -36 -1 -36 4 0 17 -105 32 -232 33 -71 1 -128 6 -128 10 0 5 -42 9 -92 9 -51 0 -122 6 -158 12 -74 13 -322 17 -390 6z"/>
 <path d="M5800 4150 c0 -7 3 -10 7 -7 3 4 3 10 0 14 -4 3 -7 0 -7 -7z"/>
 <path d="M5820 4120 c0 -6 -4 -8 -10 -5 -5 3 -10 -1 -10 -9 0 -9 9 -16 20 -16 21 0 28 24 10 35 -5 3 -10 1 -10 -5z"/>
 <path d="M1985 4080 c-3 -5 -1 -10 4 -10 6 0 11 5 11 10 0 6 -2 10 -4 10 -3 0 -8 -4 -11 -10z"/>
 <path d="M5795 4071 c-3 -5 2 -17 11 -25 8 -9 11 -16 5 -16 -6 0 -11 -6 -11 -14 0 -8 -5 -27 -11 -43 -6 -15 -12 -48 -14 -73 -1 -25 -6 -54 -11 -64 -6 -16 -4 -18 9 -13 11 4 17 1 17 -7 0 -8 -6 -17 -12 -19 -8 -4 -7 -6 3 -6 18 -1 29 26 29 72 0 16 -4 26 -10 22 -15 -9 -12 11 4 24 8 6 16 26 19 44 4 18 9 46 13 64 4 23 2 37 -9 48 -18 17 -24 19 -32 6z m5 -211 c0 -5 -2 -10 -4 -10 -3 0 -8 5 -11 10 -3 6 -1 10 4 10 6 0 11 -4 11 -10z"/>
 <path d="M1985 4050 c3 -5 8 -10 11 -10 2 0 4 5 4 10 0 6 -5 10 -11 10 -5 0 -7 -4 -4 -10z"/>
 <path d="M2000 3980 c0 -5 5 -10 11 -10 5 0 7 5 4 10 -3 6 -8 10 -11 10 -2 0 -4 -4 -4 -10z"/>
 <path d="M3118 3880 c-9 -6 -101 -12 -205 -13 -117 -3 -196 -8 -210 -15 -12 -7 -33 -12 -47 -12 -14 0 -28 -4 -31 -10 -3 -5 -15 -10 -26 -10 -10 0 -19 -4 -19 -9 0 -5 -16 -12 -35 -15 -19 -4 -35 -11 -35 -16 0 -6 -17 -10 -37 -10 -21 -1 -65 -7 -98 -15 -33 -8 -76 -15 -95 -15 -24 0 -40 -7 -50 -20 -8 -11 -20 -20 -27 -20 -7 0 -18 -9 -25 -20 -7 -11 -20 -20 -29 -20 -19 0 -45 -27 -36 -37 21 -21 163 -5 179 20 4 6 33 14 65 18 32 4 76 12 98 19 22 7 55 14 73 17 17 3 32 9 32 14 0 5 9 9 20 9 11 0 20 4 20 9 0 5 15 11 33 14 17 3 59 12 91 22 54 15 109 16 246 5 8 -1 80 4 160 10 193 14 379 14 465 0 39 -7 109 -13 157 -15 48 -2 92 -6 98 -10 6 -4 17 -2 25 5 10 9 21 8 44 -4 16 -9 41 -16 56 -16 14 0 25 -4 25 -10 0 -5 24 -10 54 -10 30 0 58 -4 61 -10 3 -5 34 -10 67 -10 34 0 89 -9 122 -19 34 -10 104 -29 156 -41 52 -11 112 -30 133 -40 21 -10 51 -21 67 -25 16 -3 34 -13 41 -21 6 -8 24 -14 40 -14 15 0 30 -4 33 -9 3 -4 27 -16 53 -26 49 -19 114 -57 145 -85 36 -32 84 -59 115 -66 14 -3 83 -57 83 -65 0 -18 127 -44 147 -30 6 3 12 21 15 40 4 27 1 35 -14 39 -10 2 -18 8 -18 13 0 5 -11 9 -25 9 -14 0 -25 5 -25 10 0 6 -6 10 -14 10 -7 0 -19 6 -25 14 -7 8 -26 18 -42 21 -17 4 -33 13 -35 20 -3 7 -22 16 -42 20 -20 4 -39 10 -42 13 -12 16 -90 72 -99 72 -6 0 -11 5 -11 10 0 6 -11 10 -24 10 -14 0 -28 5 -31 10 -3 6 -16 10 -28 10 -13 0 -33 7 -45 16 -13 9 -26 13 -29 10 -4 -3 -16 0 -29 8 -12 8 -53 25 -90 37 -38 12 -76 31 -86 41 -12 14 -17 15 -21 6 -4 -10 -7 -11 -18 0 -7 6 -21 12 -31 12 -10 0 -27 5 -38 10 -11 6 -29 14 -40 20 -10 5 -26 7 -35 4 -8 -4 -29 0 -47 7 -17 7 -54 14 -82 15 -61 2 -219 34 -226 46 -4 4 -42 9 -87 12 -44 2 -86 6 -92 10 -6 4 -46 7 -88 7 -43 0 -109 7 -148 15 -39 7 -155 16 -260 18 -104 3 -199 7 -210 10 -11 3 -27 1 -37 -4z"/>
 <path d="M5759 3728 c0 -7 -2 -31 -4 -53 l-4 -40 13 41 c7 23 16 46 20 53 4 6 1 11 -8 11 -9 0 -16 -6 -17 -12z"/>
 <path d="M2935 3698 c-16 -5 -52 -11 -80 -12 -27 -2 -70 -8 -95 -15 -68 -18 -143 -34 -162 -36 -10 -1 -21 -4 -24 -8 -4 -4 -29 -7 -56 -7 -26 0 -48 -4 -48 -10 0 -5 -13 -10 -30 -10 -16 0 -30 -4 -30 -9 0 -11 -26 -22 -65 -27 -70 -9 -121 -57 -85 -79 6 -3 10 -14 10 -23 0 -11 14 -21 39 -29 33 -11 44 -10 72 4 18 9 28 18 21 21 -19 6 13 32 40 32 13 0 30 6 36 12 12 12 132 47 177 52 26 3 97 27 110 36 31 24 365 42 510 27 28 -3 111 -11 185 -18 81 -7 144 -18 159 -26 13 -9 51 -17 85 -19 60 -5 182 -27 242 -45 17 -5 49 -9 71 -9 42 0 107 -26 98 -40 -3 -4 17 -11 43 -15 26 -4 61 -13 77 -20 47 -21 124 -45 145 -45 11 0 20 -5 20 -10 0 -6 6 -10 13 -9 20 4 65 -12 78 -27 6 -8 21 -14 33 -14 12 0 33 -11 47 -24 14 -13 39 -26 57 -30 18 -3 46 -9 62 -12 17 -4 30 -10 30 -15 0 -5 13 -9 29 -9 16 0 34 -7 41 -15 7 -8 18 -15 24 -15 6 0 22 -10 36 -22 14 -13 38 -30 53 -38 23 -12 28 -20 25 -47 -3 -38 7 -50 49 -62 24 -7 34 -5 46 9 8 10 19 19 25 21 5 2 12 14 16 26 5 16 2 23 -14 28 -11 3 -20 10 -20 15 0 14 -82 90 -97 90 -7 0 -13 5 -13 10 0 11 -29 25 -73 35 -15 3 -25 10 -22 15 4 6 -7 10 -22 10 -16 0 -38 7 -49 15 -10 8 -25 15 -33 15 -8 0 -22 6 -30 13 -9 8 -41 21 -71 31 -73 22 -130 48 -130 58 0 4 -13 8 -28 8 -15 0 -33 5 -39 11 -15 15 -123 59 -144 59 -9 0 -19 3 -23 7 -9 10 -78 33 -98 33 -10 0 -33 9 -53 20 -20 11 -44 20 -54 20 -28 0 -174 39 -180 49 -4 4 -51 11 -105 14 -55 4 -102 10 -105 14 -3 5 -28 8 -56 9 -96 2 -267 22 -278 33 -14 14 -44 14 -49 -1 -5 -14 -121 -12 -126 2 -5 13 -178 11 -217 -2z"/>
 <path d="M3973 3623 c4 -3 10 -3 14 0 3 4 0 7 -7 7 -7 0 -10 -3 -7 -7z"/>
 <path d="M4563 3533 c9 -2 23 -2 30 0 6 3 -1 5 -18 5 -16 0 -22 -2 -12 -5z"/>
 <path d="M3091 3349 c-13 -5 -58 -11 -101 -14 -42 -2 -88 -8 -101 -13 -13 -5 -49 -12 -79 -16 -30 -4 -59 -11 -64 -16 -6 -6 -21 -10 -36 -10 -14 0 -34 -7 -44 -15 -10 -8 -23 -12 -27 -9 -5 3 -9 -4 -9 -15 0 -12 -4 -21 -10 -21 -5 0 -10 -4 -10 -10 0 -5 9 -10 20 -10 11 0 20 -4 20 -10 0 -5 23 -10 50 -10 28 0 50 4 50 8 0 12 52 36 120 57 69 21 510 35 510 16 0 -7 24 -11 68 -11 101 -1 254 -17 261 -29 4 -5 38 -13 76 -17 39 -4 75 -10 80 -13 6 -4 26 -8 45 -10 19 -2 38 -8 41 -13 4 -6 20 -10 35 -10 16 0 31 -4 34 -7 3 -4 34 -12 70 -19 110 -19 200 -42 223 -57 31 -20 236 -105 253 -105 8 0 14 -4 14 -10 0 -5 11 -10 25 -10 14 0 25 -4 25 -9 0 -5 23 -15 50 -22 28 -7 50 -16 50 -21 0 -4 6 -8 13 -8 15 0 73 -61 69 -72 -1 -5 9 -8 23 -8 14 0 25 -4 25 -10 0 -15 109 -12 124 3 16 15 5 52 -18 60 -9 4 -16 12 -16 19 -1 13 -65 48 -88 48 -7 0 -12 5 -12 10 0 6 -9 10 -20 10 -24 0 -70 21 -70 32 0 4 -11 8 -24 8 -14 0 -27 4 -30 9 -3 4 -19 11 -36 15 -17 3 -60 19 -96 36 -36 16 -72 30 -79 30 -8 0 -17 5 -20 10 -3 6 -15 10 -26 10 -10 0 -19 4 -19 8 0 12 -73 42 -102 42 -14 0 -28 6 -31 13 -5 13 -68 32 -147 44 -19 3 -40 11 -45 18 -6 7 -31 15 -55 18 -25 3 -67 11 -95 17 -27 6 -73 12 -101 14 -27 2 -60 8 -71 15 -12 6 -46 11 -77 11 -30 0 -57 4 -60 9 -3 5 -21 5 -40 1 -19 -4 -41 -3 -51 2 -9 6 -30 8 -45 4 -18 -3 -33 0 -40 9 -9 11 -23 13 -51 9 -21 -4 -46 -3 -56 1 -10 4 -61 9 -113 10 -52 2 -104 5 -115 8 -11 2 -31 1 -44 -4z"/>
 <path d="M4975 3221 c-3 -5 -1 -12 5 -16 5 -3 10 1 10 9 0 18 -6 21 -15 7z"/>
 <path d="M3302 3100 c-13 -6 -57 -10 -98 -11 -41 -1 -77 -5 -80 -10 -3 -5 -20 -7 -38 -4 -23 5 -36 2 -45 -9 -8 -9 -21 -16 -31 -16 -26 0 -33 -29 -14 -57 12 -19 21 -23 37 -18 157 49 545 72 657 40 30 -9 80 -21 110 -26 30 -6 59 -14 64 -20 6 -5 24 -9 41 -9 27 0 111 -33 155 -61 8 -5 23 -12 33 -15 9 -4 17 -10 17 -15 0 -5 6 -9 14 -9 8 0 16 -3 18 -7 2 -5 28 -21 59 -37 31 -16 71 -42 89 -57 18 -16 36 -29 41 -29 4 0 9 -12 11 -27 3 -26 6 -28 60 -31 55 -3 57 -2 60 25 5 44 -10 80 -38 87 -13 4 -24 11 -24 16 0 6 -9 10 -20 10 -10 0 -27 8 -37 18 -10 10 -31 24 -48 32 -16 8 -46 27 -66 42 -19 14 -48 30 -65 34 -16 4 -41 15 -56 25 -14 11 -32 19 -40 19 -7 0 -40 14 -73 30 -33 16 -73 30 -88 30 -15 0 -40 6 -55 14 -15 7 -57 16 -95 20 -37 4 -80 11 -95 17 -36 14 -330 21 -360 9z"/>
 <path d="M3190 2820 c0 -5 -13 -10 -29 -10 -46 0 -63 -9 -48 -25 17 -16 61 -26 172 -37 175 -17 195 -20 195 -26 0 -4 26 -7 58 -8 31 -1 84 -8 117 -17 33 -9 88 -17 123 -17 39 0 79 -7 105 -18 55 -25 133 -19 142 9 13 41 -59 85 -145 88 -30 1 -68 8 -85 16 -19 8 -91 16 -193 20 -104 4 -176 12 -197 21 -40 16 -215 20 -215 4z"/>
 <path d="M4493 2823 c4 -3 10 -3 14 0 3 4 0 7 -7 7 -7 0 -10 -3 -7 -7z"/>
 <path d="M4963 2693 c4 -3 10 -3 14 0 3 4 0 7 -7 7 -7 0 -10 -3 -7 -7z"/>
 <path d="M4920 2680 c0 -5 5 -10 10 -10 6 0 10 5 10 10 0 6 -4 10 -10 10 -5 0 -10 -4 -10 -10z"/>
 <path d="M4810 2640 c-8 -5 -10 -10 -5 -10 6 0 17 5 25 10 8 5 11 10 5 10 -5 0 -17 -5 -25 -10z"/>
 <path d="M4765 2620 c3 -5 8 -10 11 -10 2 0 4 5 4 10 0 6 -5 10 -11 10 -5 0 -7 -4 -4 -10z"/>
 <path d="M4698 2603 c7 -3 16 -2 19 1 4 3 -2 6 -13 5 -11 0 -14 -3 -6 -6z"/>
 <path d="M4608 2571 c-20 -10 -49 -22 -65 -26 -15 -4 -22 -9 -16 -12 7 -2 41 6 75 18 35 12 71 22 81 21 9 0 17 3 17 9 0 15 -52 9 -92 -10z"/>
 <path d="M4217 2553 c-4 -3 -7 -14 -7 -24 0 -12 -5 -16 -14 -13 -7 3 -16 -1 -19 -10 -5 -12 0 -13 26 -5 18 5 34 14 35 19 6 16 42 12 42 -5 0 -17 9 -19 28 -6 11 6 7 13 -14 30 -26 20 -64 28 -77 14z"/>
 </g>
<g id="layer2" fill="#0579c8" stroke="none">
 <path d="M3599 9440 c-37 -38 -38 -41 -22 -60 22 -26 28 -59 36 -202 1 -14 4 -29 7 -32 3 -3 2 -42 -4 -87 -7 -63 -6 -86 4 -102 9 -15 10 -22 1 -25 -13 -4 -15 -34 -2 -47 5 -6 12 -30 15 -55 3 -25 13 -99 21 -165 24 -178 28 -379 10 -439 -8 -26 -12 -52 -9 -57 3 -5 1 -17 -5 -27 -5 -9 -14 -65 -20 -122 -13 -119 -39 -248 -52 -256 -5 -3 -9 -15 -9 -27 0 -12 -7 -42 -16 -66 -20 -60 -50 -266 -58 -408 -2 -35 -10 -73 -20 -87 -8 -14 -18 -45 -21 -69 -3 -23 -10 -58 -15 -77 -5 -18 -8 -36 -5 -38 2 -3 -8 -21 -24 -41 -28 -35 -31 -41 -31 -61 0 -5 -7 -10 -15 -10 -9 0 -18 -7 -21 -15 -4 -9 -11 -15 -18 -14 -6 1 -27 -5 -46 -13 -19 -9 -51 -19 -70 -23 -19 -4 -39 -13 -45 -20 -12 -15 -63 -26 -70 -15 -3 4 9 21 25 38 17 18 31 46 35 69 3 21 10 52 15 69 6 17 10 53 10 80 0 48 -1 49 -86 131 -47 46 -92 83 -100 83 -8 0 -17 7 -21 16 -3 8 -12 13 -19 10 -8 -3 -14 -1 -14 4 0 6 -13 10 -29 10 -17 0 -33 5 -36 11 -4 6 -37 9 -80 8 -39 -1 -77 1 -83 5 -6 3 -13 2 -17 -4 -3 -5 -17 -10 -31 -10 -13 0 -24 -3 -24 -7 0 -5 -19 -17 -41 -28 -23 -10 -45 -29 -49 -40 -4 -12 -27 -41 -50 -66 -53 -55 -80 -98 -80 -126 0 -12 -4 -24 -8 -27 -9 -6 -7 -111 3 -171 9 -51 53 -145 71 -152 8 -3 12 -8 10 -12 -3 -4 20 -24 50 -46 30 -22 54 -43 54 -48 0 -4 -12 -15 -27 -24 -16 -9 -41 -35 -56 -59 -32 -49 -38 -52 -63 -27 -9 10 -34 25 -55 35 -21 9 -49 26 -61 37 -12 12 -28 21 -35 21 -7 0 -13 5 -13 10 0 6 -6 10 -13 10 -7 0 -22 8 -33 18 -10 10 -34 28 -52 41 -50 35 -172 159 -172 175 0 8 -20 23 -45 35 -42 20 -47 20 -70 5 -30 -20 -31 -30 -5 -44 13 -7 20 -21 20 -41 0 -20 4 -28 12 -23 7 4 8 3 4 -4 -4 -7 -14 -12 -22 -12 -8 0 -14 -4 -14 -8 0 -10 42 -34 56 -31 21 4 33 -3 72 -41 22 -22 44 -40 48 -40 6 0 21 -12 105 -85 13 -12 43 -41 66 -65 23 -25 57 -58 77 -73 33 -26 38 -50 16 -67 -16 -12 -72 -104 -91 -147 -11 -26 -24 -50 -28 -53 -4 -3 -16 -27 -26 -55 -10 -27 -33 -84 -52 -125 -71 -155 -78 -162 -103 -115 -7 14 -19 25 -27 25 -7 0 -13 4 -13 9 0 28 -192 191 -225 191 -8 0 -16 4 -19 9 -8 13 -193 14 -201 1 -3 -5 -15 -10 -26 -10 -10 0 -19 -4 -19 -10 0 -5 -12 -13 -27 -16 -34 -9 -65 -39 -84 -82 -7 -17 -17 -32 -21 -32 -5 0 -8 -11 -8 -24 0 -14 -4 -27 -9 -30 -4 -3 -11 -37 -15 -76 -5 -50 -11 -70 -21 -70 -21 0 -44 -40 -47 -80 -1 -19 -10 -50 -20 -68 -22 -40 -22 -42 -3 -42 16 0 39 -46 30 -60 -5 -8 39 -60 50 -60 2 0 17 -12 33 -27 40 -38 100 -74 107 -64 2 5 35 0 72 -10 85 -24 310 -37 343 -19 12 6 24 9 26 7 7 -7 -18 -129 -29 -144 -5 -7 -20 -13 -32 -13 -14 0 -37 -16 -59 -40 -20 -22 -42 -40 -50 -40 -8 0 -16 -4 -18 -8 -5 -13 -78 -52 -98 -52 -10 0 -22 -4 -25 -10 -3 -5 -15 -10 -25 -10 -10 0 -20 -4 -22 -8 -6 -15 -73 -50 -108 -57 -36 -7 -56 -15 -149 -56 -30 -13 -55 -22 -55 -19 -1 3 -15 -5 -32 -17 -17 -12 -49 -24 -72 -27 -23 -3 -47 -8 -53 -11 -19 -13 -144 -35 -191 -35 -27 0 -48 -4 -48 -9 0 -5 -28 -12 -62 -16 -35 -4 -73 -13 -84 -20 -20 -13 -50 -15 -237 -19 -37 0 -67 -5 -67 -9 0 -5 -31 -5 -70 -1 -42 4 -70 3 -70 -3 0 -5 -39 -9 -86 -9 -63 0 -88 -4 -95 -15 -13 -21 -6 -32 34 -54 20 -11 36 -26 34 -34 -3 -20 87 -24 183 -10 114 17 603 13 693 -5 74 -15 112 -22 202 -35 28 -4 66 -12 85 -19 19 -6 85 -23 145 -38 61 -14 115 -30 120 -34 6 -5 44 -19 86 -33 42 -14 86 -34 98 -46 12 -12 28 -21 36 -21 8 0 15 -4 15 -10 0 -5 7 -10 15 -10 8 0 16 -6 16 -12 1 -7 3 -24 6 -38 2 -14 6 -36 8 -50 2 -14 4 -27 6 -30 1 -3 3 -9 4 -15 5 -29 18 -72 25 -90 5 -11 11 -36 13 -55 3 -19 12 -68 21 -109 9 -40 15 -76 12 -78 -6 -7 -132 38 -194 69 -28 14 -236 15 -254 1 -7 -5 -29 -16 -48 -23 -53 -20 -120 -88 -120 -123 0 -17 -10 -38 -25 -53 -16 -16 -32 -50 -42 -87 -8 -34 -19 -67 -25 -74 -5 -7 -5 -13 1 -17 5 -4 7 -21 4 -40 -3 -19 -1 -36 6 -40 6 -4 11 -14 11 -21 0 -19 63 -117 94 -147 30 -29 87 -62 103 -59 7 1 26 -5 41 -13 16 -8 32 -13 35 -10 3 3 23 0 46 -6 29 -7 66 -8 128 0 130 15 163 21 163 30 0 4 20 14 44 21 37 11 47 20 65 55 26 55 60 94 81 94 19 0 60 -44 60 -64 0 -21 74 -127 118 -171 44 -42 54 -75 24 -75 -23 0 -42 -19 -42 -41 0 -21 -148 -243 -197 -297 -19 -20 -49 -55 -66 -77 -29 -35 -91 -107 -125 -143 -7 -8 -19 -26 -26 -40 -15 -30 -60 -72 -76 -72 -13 0 -50 -37 -50 -50 0 -21 78 -87 110 -93 38 -8 50 -2 50 22 0 10 8 27 18 39 9 11 35 44 57 72 22 28 61 79 88 113 26 34 51 67 55 72 4 6 18 24 32 41 14 16 34 43 45 58 11 15 30 39 43 52 12 14 22 28 22 33 0 4 16 24 35 45 19 21 35 44 35 50 0 6 18 30 39 54 21 23 42 49 45 57 8 22 17 19 61 -23 50 -46 110 -92 123 -92 6 0 12 -4 14 -8 6 -15 96 -72 114 -72 9 0 25 -10 36 -22 l19 -23 -31 -8 c-17 -4 -37 -4 -45 1 -21 11 -133 -7 -175 -28 -19 -10 -51 -40 -70 -67 -33 -46 -34 -51 -34 -138 1 -76 -2 -92 -18 -103 -10 -7 -18 -19 -18 -25 0 -7 -9 -18 -20 -25 -16 -10 -20 -23 -20 -74 0 -51 5 -69 28 -102 15 -23 30 -43 35 -44 4 -2 7 -10 7 -18 0 -8 4 -14 9 -14 5 0 16 -6 23 -13 29 -29 181 -97 217 -97 20 0 41 -4 46 -9 16 -15 234 -20 246 -5 5 7 21 15 34 18 14 4 47 20 75 36 28 17 55 30 60 30 6 0 10 3 10 8 0 4 18 27 40 52 23 26 40 55 40 70 3 177 1 219 -11 241 -7 13 -13 27 -14 31 0 3 -3 10 -7 14 -13 12 -9 44 5 44 16 -1 63 -27 60 -34 -8 -18 3 -26 65 -46 37 -13 71 -26 77 -31 5 -5 19 -9 32 -9 13 0 23 -4 23 -10 0 -5 6 -10 14 -10 12 0 101 -73 130 -108 6 -7 45 -47 87 -90 42 -42 82 -88 89 -101 14 -27 16 -30 58 -81 37 -44 92 -137 92 -155 0 -7 4 -15 8 -17 9 -3 81 -149 102 -208 7 -19 17 -39 22 -44 4 -6 8 -17 8 -25 0 -9 6 -28 14 -43 8 -14 19 -43 26 -65 6 -21 15 -47 20 -58 5 -11 11 -33 13 -50 3 -16 13 -52 22 -80 32 -99 35 -112 35 -148 0 -20 5 -37 10 -37 6 0 10 -12 10 -27 0 -28 14 -117 31 -191 5 -24 12 -96 15 -160 3 -64 9 -126 14 -137 17 -40 31 -263 17 -282 -5 -6 -7 -27 -5 -45 3 -37 32 -50 52 -23 12 16 46 12 46 -6 0 -13 37 -11 45 2 10 16 12 69 3 75 -4 3 -8 29 -8 58 0 29 -3 56 -6 59 -4 4 -9 50 -11 104 -5 118 -7 146 -16 159 -3 6 -8 47 -11 91 -3 44 -10 100 -15 124 -5 24 -13 59 -16 78 -3 19 -7 37 -9 40 -2 3 -9 67 -16 141 -6 74 -16 139 -21 144 -5 6 -9 20 -9 32 0 13 -4 26 -10 29 -5 3 -10 24 -10 46 0 22 -9 67 -20 100 -12 34 -21 80 -21 102 0 23 -2 102 -5 175 -4 85 -2 143 5 160 13 34 21 74 27 137 3 28 10 66 16 85 6 19 10 51 9 71 -1 21 2 40 8 44 6 3 11 19 11 34 0 24 5 30 31 35 17 3 35 6 39 6 4 0 10 -30 13 -66 4 -37 10 -71 15 -78 5 -6 17 -31 26 -55 20 -52 110 -190 138 -211 11 -8 30 -24 42 -36 12 -11 49 -36 81 -54 55 -31 68 -34 162 -37 104 -3 245 18 251 37 2 6 10 10 17 10 18 0 94 41 120 65 12 11 37 32 56 46 19 14 44 47 57 72 26 52 40 140 25 159 -6 7 -13 29 -16 49 -3 20 -17 62 -31 93 -14 31 -26 61 -26 66 0 20 -96 120 -115 120 -7 0 -20 9 -30 20 -10 11 -24 20 -32 20 -7 0 -13 4 -13 9 0 5 -12 11 -27 13 -32 3 -40 34 -9 31 11 -1 43 12 71 28 28 16 65 30 81 32 16 2 43 9 59 16 82 35 97 41 108 41 13 0 34 15 90 62 36 31 59 35 77 12 16 -19 128 -104 137 -104 5 0 74 -60 144 -125 14 -14 31 -25 37 -25 6 0 18 -13 26 -29 8 -15 54 -67 101 -114 60 -60 85 -92 85 -109 0 -43 83 -98 165 -109 42 -6 53 -3 72 14 17 15 21 27 16 46 -8 36 -41 81 -59 81 -8 0 -13 4 -9 9 3 5 -11 15 -31 21 -34 11 -56 25 -89 57 -8 7 -17 13 -21 13 -4 0 -31 24 -59 52 -95 97 -131 128 -143 128 -7 0 -16 8 -19 17 -4 9 -20 28 -36 42 -16 14 -36 34 -45 44 -9 9 -22 17 -29 17 -7 0 -13 7 -13 15 0 7 -7 18 -16 23 -33 18 -104 95 -104 113 0 9 -7 24 -15 33 -8 8 -15 16 -15 18 0 2 30 35 66 73 77 82 168 216 178 263 4 17 13 32 20 32 13 0 76 -58 76 -70 0 -7 37 -27 95 -50 17 -7 38 -16 47 -21 10 -5 26 -9 36 -9 10 0 22 -4 28 -8 32 -28 257 -49 273 -25 3 6 12 12 18 14 50 16 225 184 249 238 9 20 21 46 27 59 6 12 11 50 11 85 1 55 -5 74 -47 159 -72 146 -152 220 -247 226 -19 2 -37 7 -41 13 -8 13 -132 39 -184 38 -22 0 -67 2 -100 4 -37 2 -73 -1 -94 -10 -18 -7 -36 -13 -38 -13 -7 0 5 335 13 382 6 37 24 53 24 23 0 -19 14 -19 34 0 8 8 22 15 30 15 9 0 16 6 16 14 0 8 10 17 23 21 39 11 76 28 144 66 18 10 40 19 48 19 8 0 15 5 15 10 0 6 9 10 19 10 11 0 23 5 26 10 3 6 15 10 25 10 11 0 24 9 30 20 8 16 21 20 59 20 53 0 134 24 151 46 9 10 29 12 85 7 41 -3 100 -1 132 5 87 16 235 26 353 24 176 -3 330 -13 363 -24 18 -5 68 -12 112 -14 44 -3 82 -10 83 -15 2 -5 20 -9 39 -9 27 0 34 3 29 15 -4 11 2 15 25 15 36 0 69 16 69 33 0 11 -36 40 -50 42 -3 0 -11 4 -17 8 -7 5 -17 6 -22 3 -5 -4 -11 -1 -13 6 -4 10 -10 10 -29 2 -18 -8 -34 -8 -62 2 -21 7 -55 14 -75 15 -20 2 -42 6 -48 11 -6 4 -42 10 -80 11 -38 2 -77 7 -87 12 -10 4 -29 3 -42 -3 -14 -7 -27 -7 -30 -2 -3 5 -13 6 -21 3 -9 -3 -20 0 -24 8 -7 11 -13 11 -33 0 -15 -8 -31 -10 -38 -5 -18 11 -35 13 -164 20 -60 3 -119 9 -130 14 -11 5 -54 11 -95 14 -41 4 -95 13 -120 20 -25 8 -65 19 -90 26 -25 6 -63 15 -85 21 -22 6 -44 14 -49 20 -6 5 -20 9 -31 9 -12 0 -42 13 -66 30 -24 16 -51 30 -60 30 -9 0 -22 7 -29 15 -7 8 -16 12 -21 9 -11 -6 -109 36 -109 47 0 5 -8 9 -18 9 -10 0 -22 4 -28 9 -5 5 -30 20 -56 33 -46 24 -127 86 -157 121 -8 9 -20 17 -27 17 -15 0 -33 38 -37 78 -1 18 -9 37 -17 42 -29 18 5 25 123 26 141 1 222 9 257 27 30 15 83 63 87 80 33 135 43 196 37 217 -4 14 -6 31 -5 38 1 8 -4 23 -11 35 -8 12 -20 42 -28 66 -20 61 -107 151 -147 151 -16 0 -33 4 -39 9 -24 23 -147 51 -221 51 -118 0 -188 -31 -221 -100 -9 -19 -24 -42 -33 -51 -17 -17 -18 -16 -33 6 -9 14 -16 28 -16 34 0 5 -14 24 -30 41 -17 18 -42 57 -56 86 -14 30 -29 56 -34 59 -5 3 -7 12 -4 19 3 7 -2 21 -11 30 -9 9 -12 16 -6 16 5 0 16 6 23 13 7 6 30 20 50 31 20 10 58 38 84 62 48 45 268 164 304 164 10 0 22 -4 25 -10 16 -26 74 -2 126 53 14 15 31 27 37 27 14 0 8 65 -7 84 -6 8 -27 17 -46 20 -30 6 -42 2 -81 -29 -26 -19 -54 -35 -63 -35 -10 0 -22 -5 -27 -10 -16 -16 -263 -140 -279 -140 -8 0 -15 -4 -15 -10 0 -5 -14 -10 -30 -10 -17 0 -33 -6 -36 -14 -3 -8 -28 -23 -55 -32 -27 -10 -58 -26 -69 -36 -21 -19 -60 -24 -60 -8 0 6 -15 25 -32 43 -18 17 -33 39 -33 47 0 9 -11 16 -25 18 -14 2 -34 15 -44 30 -10 15 -51 54 -89 87 l-71 60 51 6 c70 9 146 45 175 83 46 63 100 229 79 246 -3 3 -12 23 -19 45 -20 61 -45 105 -59 105 -7 0 -13 5 -13 10 0 6 -9 10 -20 10 -18 0 -40 14 -75 48 -8 6 -20 12 -28 12 -8 0 -20 7 -27 15 -7 9 -42 30 -76 46 -54 26 -75 31 -143 31 -60 0 -88 -4 -117 -19 -44 -23 -103 -43 -125 -43 -22 0 -121 -98 -157 -155 -17 -27 -36 -55 -42 -62 -5 -7 -10 -30 -10 -53 0 -22 -4 -40 -10 -40 -16 0 -90 30 -158 63 -57 27 -63 33 -57 55 4 17 0 28 -12 37 -14 11 -15 16 -6 26 10 10 8 15 -9 23 -12 6 -22 18 -24 26 -1 8 -5 22 -9 31 -3 10 -1 20 5 24 8 5 4 11 -10 19 -25 13 -52 80 -44 111 3 14 -3 28 -20 43 -15 12 -26 29 -26 37 0 9 -9 33 -20 55 -12 23 -20 59 -20 87 0 27 -5 64 -10 83 -9 31 -21 95 -34 180 -9 58 -28 146 -36 165 -5 11 -11 40 -14 65 -11 95 -18 130 -27 130 -5 0 -9 9 -9 20 0 11 -5 20 -11 20 -7 0 -9 10 -6 25 2 14 -2 45 -10 68 -14 39 -26 146 -37 329 -3 42 -10 95 -16 118 -6 22 -8 45 -5 50 3 5 0 28 -6 52 -6 24 -12 66 -15 93 -2 28 -6 56 -9 62 -2 7 -5 94 -5 194 -1 106 -6 192 -12 205 -8 17 -8 38 -1 71 14 58 8 73 -27 73 -16 0 -32 5 -35 10 -12 20 -39 9 -76 -30z m-741 -2240 c18 -11 39 -20 47 -20 8 0 19 -9 25 -20 6 -11 17 -20 25 -20 15 0 53 -34 79 -71 16 -23 13 -104 -5 -123 -5 -6 -9 -17 -9 -25 0 -9 -18 -33 -40 -54 -22 -20 -40 -44 -40 -52 0 -23 -17 -18 -37 11 -10 15 -28 37 -40 51 -13 13 -29 36 -37 52 -8 15 -22 33 -30 40 -9 8 -16 26 -16 42 0 16 -4 29 -10 29 -5 0 -10 9 -10 20 0 11 -3 20 -8 20 -4 0 -13 15 -20 33 -8 17 -19 42 -25 54 -12 27 -12 26 33 40 53 17 82 15 118 -7z m-191 -172 c50 -84 104 -181 110 -200 3 -10 9 -18 14 -18 5 0 9 -9 9 -19 0 -11 5 -23 10 -26 19 -12 11 -64 -11 -76 -32 -17 -121 -13 -135 5 -6 9 -17 16 -24 16 -7 0 -32 12 -55 27 -47 29 -62 68 -67 178 l-3 60 37 -3 c41 -3 62 20 56 61 -2 23 8 47 20 47 4 0 22 -24 39 -52z m2287 32 c7 -7 6 -10 -2 -10 -7 0 -21 -19 -32 -42 -22 -46 -63 -98 -78 -98 -5 0 -14 -11 -20 -25 -7 -14 -19 -28 -27 -31 -8 -4 -15 -12 -15 -18 0 -7 -16 -27 -35 -45 -39 -35 -51 -33 -94 13 -14 14 -28 26 -33 26 -5 0 -19 10 -32 23 l-24 22 21 47 c18 39 33 54 86 85 104 61 138 72 211 67 36 -3 69 -9 74 -14z m175 -104 c48 -48 54 -60 57 -103 5 -67 -36 -149 -91 -181 -36 -20 -50 -22 -132 -18 -50 2 -101 9 -112 15 -12 7 -21 9 -21 5 0 -4 -2 -5 -5 -2 -8 8 35 88 46 88 5 0 9 6 9 14 0 8 4 16 8 18 5 2 27 30 50 63 22 33 59 78 81 99 23 22 41 43 41 48 0 18 18 6 69 -46z m-1572 -3 c-4 -3 -10 -3 -14 0 -3 4 0 7 7 7 7 0 10 -3 7 -7z m398 -103 c34 -16 161 -50 184 -50 11 0 21 -5 21 -11 0 -8 4 -8 14 0 10 8 16 9 21 1 3 -5 25 -10 48 -10 29 0 54 -8 79 -25 20 -14 42 -25 47 -25 6 0 11 -3 11 -7 0 -5 35 -19 78 -31 42 -13 85 -28 94 -33 10 -5 27 -9 38 -9 11 0 20 -4 20 -10 0 -5 11 -10 25 -10 18 0 25 -5 25 -20 0 -11 7 -20 15 -20 8 0 15 5 15 10 0 6 7 10 16 10 8 0 12 -4 9 -10 -4 -6 5 -10 19 -10 14 0 26 -4 26 -10 0 -5 11 -10 25 -10 14 0 25 -4 25 -10 0 -5 12 -10 26 -10 15 0 32 -6 38 -14 6 -8 31 -21 56 -30 25 -8 39 -15 33 -16 -23 0 -14 -20 10 -20 37 0 67 -12 67 -26 0 -7 6 -11 13 -8 13 5 57 -38 57 -56 0 -15 63 -80 78 -80 7 0 37 -25 67 -55 31 -30 51 -55 45 -55 -5 0 -10 -7 -10 -15 0 -8 7 -15 16 -15 20 0 44 -24 44 -44 0 -9 8 -16 20 -16 11 0 20 -5 20 -10 0 -6 13 -24 30 -41 16 -17 32 -40 35 -50 4 -11 11 -19 17 -19 6 0 8 -12 4 -32 -4 -23 -3 -28 3 -18 6 8 12 12 14 10 12 -13 47 -91 47 -105 0 -8 5 -15 10 -15 6 0 10 -13 10 -29 0 -16 5 -31 11 -33 9 -3 9 -9 0 -25 -17 -32 -14 -93 4 -93 8 0 15 -6 16 -12 0 -7 5 -2 12 12 l11 25 4 -32 c2 -21 10 -34 23 -38 19 -6 27 -35 9 -35 -5 0 -10 -9 -10 -20 0 -11 5 -20 10 -20 6 0 10 7 10 15 0 8 5 15 10 15 17 0 11 -25 -10 -40 -19 -14 -29 -71 -12 -69 23 4 32 -4 32 -29 0 -16 8 -34 20 -42 11 -8 20 -20 20 -27 0 -7 4 -13 10 -13 14 0 45 -124 55 -222 4 -32 11 -58 16 -58 5 0 9 -31 9 -70 0 -40 4 -70 10 -70 6 0 10 -32 10 -75 0 -41 4 -75 9 -75 12 0 16 -118 12 -335 -4 -223 -11 -335 -22 -335 -5 0 -9 -7 -9 -15 0 -8 5 -15 11 -15 7 0 9 -12 6 -32 -14 -78 -20 -104 -28 -114 -4 -5 -5 -20 -2 -33 6 -24 -10 -108 -33 -176 -13 -36 -26 -89 -41 -170 -3 -16 -9 -32 -14 -35 -4 -3 -9 -31 -12 -63 -2 -31 -7 -60 -10 -64 -4 -3 -7 -14 -7 -24 0 -28 -32 -89 -47 -89 -8 0 -13 -12 -13 -30 0 -64 -107 -203 -239 -310 -24 -19 -49 -40 -55 -45 -32 -29 -95 -75 -103 -75 -14 0 -76 -32 -91 -47 -7 -7 -22 -13 -32 -13 -10 0 -22 -5 -25 -11 -4 -6 -14 -8 -22 -5 -8 3 -32 -3 -53 -14 -22 -11 -46 -20 -54 -20 -8 0 -16 -4 -18 -9 -1 -5 -19 -11 -38 -12 -19 -2 -41 -9 -48 -16 -7 -7 -25 -16 -40 -20 -15 -3 -33 -12 -40 -20 -8 -7 -18 -11 -23 -8 -5 4 -9 1 -9 -4 0 -6 -9 -11 -20 -11 -11 0 -20 -4 -20 -10 0 -5 -10 -10 -21 -10 -12 0 -49 -9 -83 -19 -33 -11 -82 -25 -108 -32 -27 -6 -48 -15 -48 -19 0 -4 -15 -11 -32 -14 -18 -3 -46 -13 -62 -21 -30 -16 -45 -8 -46 23 0 6 -4 12 -10 12 -5 0 -10 7 -10 15 0 19 -27 19 -46 0 -9 -8 -24 -15 -34 -15 -23 0 -56 -41 -65 -80 -9 -41 -48 -51 -220 -57 -120 -4 -152 -2 -225 16 -93 23 -156 43 -166 54 -4 4 -16 7 -26 7 -10 0 -18 4 -18 10 0 5 -12 12 -27 16 -16 3 -39 10 -53 16 -14 6 -34 14 -45 19 -93 39 -133 58 -139 68 -4 6 -18 11 -32 11 -13 0 -24 4 -24 10 0 5 -18 14 -40 20 -21 6 -46 17 -54 25 -8 8 -22 15 -30 15 -9 0 -16 4 -16 8 0 4 -24 20 -54 35 -30 15 -59 34 -66 42 -7 8 -17 15 -22 15 -6 0 -30 14 -55 30 -24 17 -48 30 -54 30 -5 0 -24 16 -42 35 -17 19 -37 35 -44 35 -17 0 -116 62 -131 83 -7 9 -19 17 -26 17 -7 0 -48 35 -89 78 -42 42 -88 89 -103 103 -14 15 -25 29 -23 33 2 3 -6 13 -18 21 -13 9 -23 22 -23 29 0 7 -8 24 -18 37 -11 13 -22 37 -26 53 -4 16 -25 47 -48 70 -61 62 -66 74 -64 146 2 53 -1 68 -16 80 -12 10 -22 40 -29 85 -6 39 -13 77 -17 85 -3 8 -7 29 -9 45 -3 17 -9 34 -14 40 -5 5 -9 26 -9 47 0 21 -4 38 -10 38 -5 0 -10 15 -10 34 0 19 -4 38 -10 41 -5 3 -10 24 -10 46 0 21 -4 39 -8 39 -10 0 -11 1 -13 125 -1 55 -5 111 -10 124 -5 13 -12 60 -15 105 -3 44 -7 91 -9 103 -12 58 -16 161 -6 168 6 3 11 27 11 51 0 25 9 80 19 122 11 43 22 96 26 120 4 23 12 48 18 55 23 25 37 57 37 84 0 44 27 132 61 195 5 10 9 28 9 40 0 12 7 29 16 39 9 10 19 39 21 64 3 25 10 45 15 45 6 0 8 7 4 15 -5 14 0 44 23 145 8 35 40 103 71 150 9 14 34 70 55 125 54 141 102 218 193 313 44 45 83 82 87 82 3 0 27 17 53 38 26 22 63 45 82 52 19 8 47 22 61 32 15 10 53 24 85 32 100 25 154 49 154 69 0 10 6 19 13 21 102 30 128 40 138 52 6 8 20 14 30 14 10 0 31 5 46 11 15 6 37 15 48 19 11 4 33 13 48 19 15 6 37 11 47 11 11 0 20 4 20 9 0 17 108 43 150 36 24 -4 40 -3 40 3 0 11 32 20 100 29 25 3 53 9 64 12 24 9 165 2 191 -9z m-2240 -910 c14 -5 37 -21 50 -34 13 -13 33 -27 44 -31 11 -3 23 -16 27 -28 4 -12 22 -38 41 -57 32 -32 56 -80 70 -136 7 -31 -44 -42 -88 -20 -18 9 -40 16 -50 16 -10 0 -20 4 -23 8 -3 5 -29 9 -58 11 -46 2 -99 19 -160 52 -10 5 -24 9 -31 9 -23 0 -77 67 -77 95 0 31 85 121 121 128 32 6 101 -1 134 -13z m4278 -41 c12 -6 31 -20 42 -30 19 -17 24 -19 45 -19 17 0 90 -79 90 -98 0 -27 -32 -40 -126 -52 -49 -6 -93 -15 -99 -20 -5 -4 -48 -10 -95 -13 -73 -3 -88 -1 -112 16 -22 17 -26 25 -21 51 3 17 10 35 14 41 5 5 9 16 9 25 0 9 17 35 38 59 37 42 38 43 100 40 34 -1 65 1 69 4 9 10 21 9 46 -4z m-4468 -249 c22 -11 58 -23 80 -27 22 -3 48 -12 57 -21 10 -8 24 -12 31 -9 8 3 26 -1 40 -8 15 -7 51 -19 81 -25 31 -6 58 -16 61 -21 4 -5 21 -9 40 -9 40 0 45 -6 34 -45 -13 -47 -79 -78 -164 -76 -10 0 -24 -4 -31 -10 -15 -12 -57 -8 -76 8 -9 8 -38 10 -83 7 -58 -4 -73 -2 -96 15 -16 12 -35 21 -44 21 -8 0 -15 7 -15 15 0 9 -8 27 -17 42 -11 17 -17 48 -18 94 l-1 69 41 0 c22 0 59 -9 80 -20z m4687 -42 c4 -11 -12 -77 -27 -113 -10 -23 -22 -35 -53 -52 -76 -44 -116 -53 -218 -52 -76 1 -92 4 -111 22 -29 26 -30 70 -3 97 11 11 20 27 20 35 0 8 8 16 18 17 32 2 37 4 50 11 6 5 16 6 21 2 5 -3 12 -2 15 3 3 4 26 9 52 11 26 1 51 4 54 6 4 2 40 7 80 10 40 3 76 7 78 10 9 9 20 5 24 -7z m-500 -190 c-9 -9 -12 -7 -12 12 0 19 3 21 12 12 9 -9 9 -15 0 -24z m453 -530 c6 -4 2 -8 -7 -8 -10 0 -18 7 -18 17 0 9 3 12 8 7 4 -5 12 -12 17 -16z m-4568 -364 c-3 -3 -12 -4 -19 -1 -8 3 -5 6 6 6 11 1 17 -2 13 -5z m4564 -736 c97 -2 147 -10 214 -36 60 -24 81 -41 124 -102 36 -51 45 -73 49 -117 l4 -53 -48 0 c-31 0 -61 7 -82 20 -18 11 -41 20 -51 20 -11 0 -61 14 -111 30 -50 17 -98 30 -106 30 -8 0 -22 4 -32 9 -39 20 -99 41 -137 47 -74 11 -77 13 -69 46 7 34 56 88 79 88 8 0 15 4 15 9 0 10 30 20 42 14 3 -2 52 -4 109 -5z m-4448 -22 c18 -7 52 -19 77 -27 50 -14 90 -37 90 -50 0 -4 -19 -14 -42 -21 -24 -6 -45 -15 -48 -18 -3 -3 -50 -14 -105 -25 -55 -10 -102 -21 -105 -25 -3 -3 -16 -11 -30 -18 -25 -12 -44 -23 -92 -55 -17 -11 -36 -15 -52 -11 -23 5 -24 8 -19 62 4 31 15 70 25 87 10 16 18 38 18 47 0 51 202 90 283 54z m237 -195 c7 -14 6 -23 -3 -33 -6 -7 -13 -35 -15 -63 -1 -27 -7 -52 -13 -54 -17 -5 -89 -82 -89 -94 0 -5 -12 -21 -26 -34 -25 -23 -32 -24 -155 -24 -119 1 -131 3 -151 23 -28 27 -68 79 -68 88 0 4 19 15 43 25 69 28 79 34 136 69 30 18 82 39 118 46 34 8 63 17 63 22 0 4 10 8 23 8 12 0 32 6 43 14 11 8 31 16 44 19 14 2 28 5 32 6 4 0 12 -8 18 -18z m4162 -76 c57 -14 125 -32 152 -40 26 -8 63 -15 81 -15 40 0 121 -35 129 -55 3 -8 12 -15 21 -15 8 0 15 -9 15 -20 0 -11 -4 -20 -8 -20 -4 0 -26 -17 -49 -39 -23 -21 -64 -54 -92 -75 -48 -34 -56 -36 -125 -36 -53 0 -77 4 -86 15 -7 8 -23 15 -36 15 -14 0 -32 4 -42 9 -9 5 -38 19 -64 30 -26 11 -57 34 -69 51 -13 16 -27 30 -32 30 -21 0 -39 33 -39 70 1 43 9 63 22 55 9 -6 20 18 20 46 0 16 7 19 50 19 27 0 96 -11 152 -25z m-3342 -900 c19 -12 10 -44 -19 -67 -16 -13 -48 -52 -72 -88 -24 -36 -46 -67 -49 -70 -12 -11 -30 -51 -30 -65 0 -9 -15 -44 -32 -79 -23 -44 -42 -67 -62 -76 -22 -10 -31 -10 -34 -2 -2 7 -12 12 -22 12 -19 0 -27 14 -40 68 -10 42 14 86 64 120 l35 24 -21 55 c-21 55 -21 55 -2 91 27 52 55 80 84 84 35 6 188 0 200 -7z m216 -154 c9 -25 20 -55 24 -66 19 -47 19 -60 -1 -137 -21 -81 -55 -129 -111 -159 -69 -37 -234 -53 -258 -24 -7 8 -11 17 -9 18 2 2 16 11 32 20 26 17 37 47 17 47 -5 0 -10 14 -10 32 0 43 60 158 82 158 9 0 19 8 23 19 3 10 40 53 82 95 72 73 76 76 94 60 10 -9 26 -37 35 -63z m1899 31 c28 -2 52 -7 55 -11 3 -3 32 -20 65 -38 33 -17 65 -40 70 -49 6 -10 17 -25 26 -34 32 -30 83 -188 68 -211 -5 -8 -9 -26 -9 -41 0 -37 -14 -35 -53 8 -18 20 -42 46 -54 57 -13 11 -23 24 -23 28 0 13 -134 143 -164 158 -14 8 -26 18 -26 23 0 5 -13 14 -29 19 -19 7 -33 21 -40 40 -5 16 -15 29 -20 29 -6 0 -11 5 -11 10 0 6 11 10 24 10 14 0 28 5 31 11 4 6 14 7 24 3 9 -4 39 -9 66 -12z m-226 -92 c13 -17 28 -30 35 -30 6 0 19 -8 28 -17 9 -10 38 -36 64 -58 79 -65 209 -219 220 -262 4 -13 14 -23 24 -23 16 0 48 -27 39 -33 -2 -1 -18 -12 -36 -25 -18 -12 -38 -22 -44 -22 -7 0 -22 -9 -34 -20 -15 -14 -38 -20 -88 -23 -37 -2 -70 -7 -74 -10 -13 -13 -70 -7 -111 13 -22 11 -46 20 -52 20 -5 0 -10 5 -10 10 0 6 -4 10 -10 10 -13 0 -100 86 -100 98 0 5 -9 21 -20 35 -46 58 -73 129 -72 190 1 39 6 65 16 76 9 10 16 22 16 27 0 14 37 34 52 29 7 -2 33 6 58 19 60 31 71 31 99 -4z m-589 -236 c0 -8 -4 -12 -10 -9 -5 3 -10 10 -10 16 0 5 5 9 10 9 6 0 10 -7 10 -16z m-260 -14 c0 -5 -9 -10 -20 -10 -11 0 -20 5 -20 10 0 6 9 10 20 10 11 0 20 -4 20 -10z"/>
 <path d="M5300 6130 c19 -13 30 -13 30 0 0 6 -10 10 -22 10 -19 0 -20 -2 -8 -10z"/>
 <path d="M5370 6050 c0 -7 3 -10 7 -7 3 4 3 10 0 14 -4 3 -7 0 -7 -7z"/>
 <path d="M5510 5830 c0 -5 5 -10 10 -10 6 0 10 5 10 10 0 6 -4 10 -10 10 -5 0 -10 -4 -10 -10z"/>
 </g>
<g id="layer3" fill="#f7af00" stroke="none">
 <path d="M4020 6789 c0 -8 -70 -18 -170 -25 -41 -3 -84 -9 -95 -14 -11 -5 -51 -11 -90 -13 -68 -4 -232 -40 -267 -58 -10 -5 -40 -9 -68 -9 -27 0 -50 -4 -50 -10 0 -5 -24 -10 -53 -10 -51 0 -107 -17 -107 -32 0 -5 -9 -8 -20 -8 -11 0 -20 -4 -20 -8 0 -5 -12 -15 -27 -23 -16 -8 -37 -22 -47 -31 -11 -10 -28 -18 -37 -18 -10 0 -19 -3 -21 -7 -5 -12 -58 -48 -100 -68 -21 -9 -38 -21 -38 -26 0 -5 -6 -9 -13 -9 -8 0 -32 -18 -55 -40 -22 -22 -44 -40 -49 -40 -4 0 -24 -14 -43 -30 -19 -16 -38 -30 -43 -30 -12 0 -117 -108 -117 -121 0 -6 -12 -23 -28 -37 -49 -48 -112 -129 -112 -146 0 -9 -4 -16 -10 -16 -5 0 -10 -6 -10 -13 0 -7 -8 -22 -18 -33 -27 -30 -59 -88 -67 -123 -4 -17 -10 -31 -14 -31 -11 0 -51 -93 -51 -118 0 -12 -4 -22 -10 -22 -5 0 -10 -13 -10 -30 0 -16 -4 -30 -10 -30 -5 0 -10 -25 -10 -55 0 -30 -4 -55 -9 -55 -5 0 -12 -21 -15 -47 -6 -50 -21 -151 -32 -216 -3 -20 -10 -40 -15 -43 -5 -3 -9 -25 -9 -49 0 -24 -5 -56 -11 -72 -6 -15 -15 -55 -20 -88 -17 -108 -21 -125 -30 -131 -5 -3 -9 -25 -9 -49 0 -24 -4 -47 -10 -50 -5 -3 -10 -24 -10 -46 0 -22 -5 -49 -11 -60 -14 -27 -19 -199 -6 -224 6 -11 12 -54 14 -95 4 -122 14 -200 24 -194 5 3 9 0 9 -5 0 -6 -6 -11 -12 -11 -10 0 -10 -2 -1 -8 7 -4 13 -23 15 -41 1 -18 6 -35 10 -37 4 -3 8 -20 8 -38 0 -34 28 -74 32 -45 0 8 2 19 2 24 2 16 39 55 53 55 7 0 13 7 13 16 0 8 5 12 11 8 8 -4 8 -1 1 12 -5 11 -12 36 -16 57 -6 34 -9 37 -41 37 -25 0 -39 6 -50 24 -20 30 -11 51 26 66 l29 12 0 133 c0 74 3 140 6 149 10 26 56 18 108 -19 44 -31 98 -52 216 -85 25 -7 54 -16 65 -21 19 -7 43 -12 140 -25 22 -4 44 -10 50 -15 5 -5 18 -9 30 -9 12 0 26 -5 33 -12 24 -24 351 2 360 30 2 8 -10 12 -43 12 -72 0 -244 40 -309 71 -22 10 -53 19 -68 19 -16 0 -48 9 -70 20 -23 11 -61 20 -84 20 -37 0 -63 9 -146 51 -10 5 -30 9 -45 9 -16 0 -45 14 -69 33 -22 17 -64 43 -92 56 -42 20 -52 29 -52 49 0 14 -13 36 -30 52 -35 33 -37 40 -10 40 11 0 20 5 20 10 0 6 8 10 18 10 28 0 41 43 59 193 7 57 28 63 61 17 13 -16 29 -30 37 -30 8 0 19 -9 25 -19 5 -11 20 -23 32 -27 12 -3 31 -15 42 -25 11 -11 26 -19 33 -19 7 0 13 -4 13 -10 0 -5 7 -10 15 -10 8 0 30 -9 50 -20 86 -49 102 -56 135 -59 19 -2 37 -6 40 -10 5 -7 36 -21 88 -43 17 -7 32 -16 32 -20 0 -5 9 -8 19 -8 11 0 23 -4 26 -10 3 -5 18 -10 33 -10 31 0 97 -22 153 -50 21 -11 52 -20 68 -20 16 0 32 -4 35 -9 3 -5 20 -11 38 -14 46 -8 90 -18 108 -24 8 -3 42 -7 75 -9 33 -2 89 -8 125 -13 83 -13 381 -31 620 -37 187 -5 468 14 525 36 15 6 39 10 55 10 16 0 32 5 35 10 3 6 19 10 36 10 16 0 29 5 29 10 0 6 11 10 24 10 14 0 28 5 31 10 3 6 22 10 41 10 19 0 34 4 34 9 0 5 17 11 38 14 20 3 91 17 157 32 66 15 135 29 153 32 18 3 35 9 38 14 3 5 18 9 35 9 16 0 29 3 29 8 0 8 49 32 67 32 7 0 13 5 13 10 0 6 9 10 20 10 11 0 20 5 20 10 0 6 9 10 20 10 11 0 20 5 20 10 0 6 8 10 18 10 10 0 24 9 32 20 8 11 22 20 31 20 10 0 19 4 21 8 2 4 18 18 37 31 27 20 35 21 42 10 5 -8 6 -20 4 -28 -3 -8 -2 -17 4 -20 9 -6 15 -69 31 -311 4 -74 9 -139 10 -145 5 -36 -22 -325 -32 -341 -4 -6 -8 -52 -9 -103 -1 -50 -6 -94 -11 -97 -4 -3 -8 -27 -8 -55 0 -45 -73 -294 -100 -341 -6 -10 -10 -25 -10 -33 0 -8 -4 -15 -10 -15 -5 0 -10 -11 -10 -24 0 -34 -60 -96 -93 -96 -15 0 -27 4 -27 9 0 8 -23 19 -72 35 -29 9 -10 39 20 33 41 -8 52 2 52 44 0 32 -3 39 -20 39 -11 0 -20 4 -20 8 0 4 -17 14 -37 21 -21 8 -40 17 -43 20 -3 4 -35 22 -72 40 -38 19 -68 38 -68 42 0 4 -9 10 -20 14 -11 3 -42 22 -69 41 -28 19 -57 34 -65 34 -18 0 -99 26 -141 45 -56 25 -120 45 -147 45 -15 0 -30 5 -33 10 -3 6 -23 10 -44 10 -20 0 -41 4 -46 9 -6 5 -35 12 -65 15 -102 10 -145 18 -160 31 -19 15 -211 55 -267 55 -23 0 -44 4 -47 9 -14 22 -210 44 -331 36 -321 -19 -470 -34 -530 -53 l-30 -9 32 -7 c18 -4 41 -5 50 -2 10 3 101 1 203 -5 211 -12 194 -11 359 -10 113 1 185 -10 201 -30 6 -8 83 -19 135 -20 37 0 87 -13 178 -45 20 -8 51 -14 67 -14 17 0 40 -5 53 -12 50 -25 58 -28 97 -28 22 0 40 -3 40 -7 0 -5 30 -9 67 -11 37 -1 72 -7 77 -12 6 -6 22 -10 37 -10 15 0 31 -5 34 -10 3 -5 17 -10 31 -10 13 0 24 -4 24 -10 0 -5 9 -10 20 -10 11 0 20 -4 20 -10 0 -5 11 -10 24 -10 14 0 28 -4 31 -10 3 -5 17 -10 31 -10 13 0 24 -4 24 -10 0 -11 84 -70 100 -70 6 0 17 -6 24 -12 18 -18 45 -35 86 -57 21 -11 35 -26 35 -37 0 -25 19 -44 44 -44 12 0 21 -4 21 -9 0 -5 8 -11 18 -13 15 -4 18 -12 14 -39 -3 -19 -9 -37 -14 -40 -15 -10 13 -59 34 -59 10 0 18 -7 18 -16 0 -17 -124 -144 -141 -144 -10 0 -36 -20 -83 -64 -17 -15 -56 -41 -87 -56 -69 -36 -82 -50 -70 -81 13 -35 -8 -49 -76 -49 -36 0 -75 -8 -102 -20 -58 -27 -71 -25 -71 6 0 16 -13 39 -36 62 -19 19 -38 48 -41 64 -3 15 -12 28 -19 28 -8 0 -14 5 -14 10 0 6 -11 10 -25 10 -14 0 -25 5 -25 10 0 6 -6 10 -14 10 -17 0 -204 78 -261 108 -22 12 -50 22 -62 22 -12 0 -42 6 -65 14 -63 22 -148 31 -148 17 0 -6 9 -11 20 -11 11 0 20 -4 20 -10 0 -5 11 -10 24 -10 14 0 28 -4 31 -10 3 -5 26 -10 50 -10 24 0 47 -4 50 -10 3 -5 15 -10 26 -10 10 0 19 -4 19 -10 0 -5 9 -10 19 -10 11 0 21 -4 23 -9 2 -5 36 -25 77 -46 40 -20 85 -47 99 -60 22 -21 24 -26 13 -56 -12 -35 -1 -52 26 -42 8 3 26 -8 42 -26 15 -17 31 -31 34 -31 9 0 57 -50 57 -60 0 -4 -33 -18 -72 -30 -108 -32 -108 -32 -108 -21 0 6 -30 11 -67 13 -66 3 -68 4 -71 31 -2 15 -7 27 -11 27 -7 0 -21 10 -67 49 -7 5 -36 22 -65 38 -30 15 -56 31 -59 34 -10 11 -73 29 -104 29 -20 0 -37 7 -46 20 -12 16 -26 20 -72 20 -32 0 -58 4 -58 10 0 6 -27 10 -60 10 -33 0 -60 4 -60 9 0 4 -24 9 -52 9 -29 0 -65 5 -80 11 -15 5 -95 13 -178 16 -84 3 -160 10 -170 15 -10 6 -38 10 -61 10 -41 0 -55 -3 -142 -30 -27 -8 -42 -9 -49 -2 -6 6 -20 7 -32 3 -39 -15 -85 6 -101 46 -18 42 -15 46 45 68 72 26 112 35 167 35 28 0 55 5 58 10 4 6 55 10 120 10 63 0 116 4 119 8 7 11 560 2 564 -9 5 -12 72 -12 72 0 0 5 -14 9 -31 9 -17 -1 -34 4 -37 9 -4 6 -23 12 -42 14 -19 2 -39 6 -45 10 -5 3 -41 9 -80 13 -38 4 -72 12 -76 17 -16 26 -606 46 -631 21 -7 -7 -25 -12 -40 -12 -15 0 -28 -4 -28 -9 0 -4 -29 -11 -65 -13 -36 -3 -75 -12 -87 -20 -29 -19 -108 -32 -108 -18 0 5 -22 10 -50 10 -27 0 -50 5 -50 10 0 6 -9 10 -20 10 -11 0 -20 5 -20 10 0 6 5 10 10 10 15 0 12 58 -2 62 -16 6 4 26 45 47 15 8 27 18 27 23 0 4 14 8 30 8 17 0 30 4 30 9 0 5 15 11 33 14 61 10 92 19 154 43 34 13 74 24 90 24 15 0 48 8 73 17 43 15 96 26 205 39 28 4 55 10 60 14 6 4 33 8 60 9 28 1 66 6 84 11 18 5 36 9 40 8 24 -3 122 5 106 9 -11 3 -26 10 -33 16 -18 15 -266 39 -270 26 -2 -5 -30 -9 -63 -9 -32 0 -59 -4 -59 -9 0 -5 -28 -11 -62 -14 -114 -11 -168 -19 -174 -28 -3 -5 -20 -9 -39 -9 -19 0 -44 -4 -57 -9 -13 -5 -50 -15 -83 -21 -33 -7 -72 -21 -86 -31 -15 -9 -44 -21 -65 -25 -22 -4 -54 -15 -72 -26 -18 -10 -48 -18 -66 -18 -19 0 -36 -5 -38 -11 -5 -14 -43 5 -69 34 -18 19 -40 22 -56 6 -16 -16 -93 11 -93 33 0 9 -4 20 -10 23 -36 22 15 70 85 79 39 5 65 16 65 27 0 5 14 9 30 9 17 0 30 5 30 10 0 6 22 10 49 10 28 0 53 5 56 10 3 6 22 10 41 10 19 0 34 5 34 10 0 6 9 10 19 10 11 0 23 5 26 10 3 6 17 10 31 10 14 0 44 9 66 20 23 11 53 20 67 20 14 0 39 7 55 15 15 8 36 15 45 15 13 1 13 3 -3 15 -27 20 -165 19 -236 -1 -30 -9 -70 -18 -87 -21 -18 -3 -33 -9 -33 -14 0 -5 -9 -9 -20 -9 -11 0 -20 -4 -20 -10 0 -5 -11 -10 -25 -10 -13 0 -34 -4 -47 -9 -13 -5 -43 -15 -68 -22 -25 -7 -57 -21 -71 -30 -14 -10 -41 -17 -60 -17 -19 0 -52 -2 -74 -5 -22 -3 -43 -6 -47 -6 -4 -1 -10 -21 -14 -46 -6 -40 -3 -48 18 -68 30 -27 58 -71 58 -91 0 -17 42 -99 53 -104 4 -2 7 -9 7 -16 0 -13 77 -66 96 -66 7 0 16 4 19 10 12 20 35 9 82 -37 26 -27 61 -55 77 -63 16 -8 41 -28 55 -43 14 -15 54 -57 89 -91 34 -35 62 -68 62 -72 0 -5 10 -21 23 -36 12 -14 28 -35 36 -46 8 -11 26 -26 40 -33 14 -8 38 -26 53 -41 45 -45 238 -138 286 -138 23 0 44 -4 47 -10 3 -5 25 -10 47 -10 40 0 108 -18 118 -31 3 -4 23 -9 45 -12 91 -13 164 -27 225 -42 68 -17 166 -30 312 -41 87 -6 178 9 178 29 0 5 6 7 14 4 10 -4 16 2 18 16 4 31 47 34 82 6 22 -17 25 -24 14 -31 -8 -6 10 -7 52 -3 36 3 74 6 84 6 19 0 71 19 163 60 24 11 63 19 88 19 25 0 45 5 45 10 0 6 7 10 16 10 8 0 13 4 10 8 -3 5 17 15 44 22 28 8 50 17 50 22 0 4 14 8 30 8 17 0 30 5 30 10 0 6 7 10 16 10 20 0 117 41 125 53 4 6 14 7 22 4 9 -3 18 1 21 9 3 8 10 14 16 14 15 0 30 13 116 98 40 39 77 72 81 72 5 0 19 14 33 30 14 17 34 30 45 30 11 0 27 10 35 22 8 12 32 38 53 57 87 81 127 127 127 149 0 6 5 12 10 12 6 0 10 7 10 16 0 9 10 35 21 58 12 22 25 49 30 58 5 10 9 27 9 39 0 25 21 102 30 109 16 14 31 92 39 213 1 4 8 7 16 7 18 0 21 46 3 53 -10 4 -10 6 0 6 6 1 12 8 12 16 0 9 -6 12 -17 8 -13 -5 -15 -3 -9 13 5 10 10 39 11 64 2 25 8 58 14 73 6 16 11 35 11 43 0 8 5 14 11 14 6 0 3 8 -6 17 -16 16 -16 17 1 30 10 7 12 13 6 13 -7 0 -12 7 -12 16 0 8 5 12 10 9 6 -3 10 -1 10 5 0 6 4 9 9 5 6 -3 11 40 13 105 2 60 -1 110 -6 110 -5 0 -2 8 5 17 12 15 12 16 -3 10 -12 -4 -18 -2 -18 7 0 8 6 16 13 19 9 3 9 7 0 18 -7 8 -10 30 -8 49 3 20 0 38 -8 43 -9 7 -9 10 1 14 6 2 12 12 12 21 0 15 2 15 11 2 9 -12 10 -12 5 3 -3 10 -6 21 -6 23 0 3 -4 2 -10 -1 -6 -4 -10 7 -10 25 0 17 4 29 9 26 5 -3 11 8 13 25 5 33 -9 50 -23 28 -8 -13 -11 4 -14 112 -1 19 -5 41 -9 48 -5 7 -3 18 3 24 6 6 11 16 11 22 0 5 -4 4 -9 -4 -5 -8 -11 -9 -15 -3 -3 6 1 18 10 27 15 15 15 17 -5 22 -11 3 -21 9 -21 13 0 5 9 6 20 3 17 -4 20 0 20 24 0 21 -5 29 -19 29 -12 0 -17 -5 -14 -16 4 -9 -1 -7 -10 5 -9 11 -11 22 -6 23 5 2 7 8 4 12 -3 5 1 27 8 49 12 34 12 41 1 45 -8 3 -14 1 -14 -4 0 -19 -18 -10 -23 11 -4 16 -2 20 12 16 14 -3 17 1 13 19 -3 15 -11 24 -23 24 -11 0 -19 3 -19 8 0 12 20 38 21 27 0 -5 4 2 9 17 10 33 -7 105 -26 112 -9 4 -14 -2 -14 -15 0 -28 -17 -15 -25 20 -3 16 -15 37 -26 47 -10 9 -19 25 -19 35 0 10 -4 20 -9 23 -5 4 -12 24 -16 46 -4 22 -11 40 -16 40 -5 0 -9 5 -9 11 0 6 7 9 15 5 21 -8 19 21 -2 42 -16 16 -16 16 -10 0 3 -10 2 -18 -3 -18 -9 0 -14 17 -13 47 1 7 -3 10 -8 7 -12 -7 -32 45 -30 78 2 22 -1 26 -18 21 -15 -4 -21 -1 -21 11 0 9 6 16 13 17 6 0 3 4 -8 9 -11 5 -14 9 -7 9 6 1 12 8 12 17 0 10 -6 14 -14 11 -8 -3 -17 1 -20 9 -3 8 -1 14 4 14 19 0 4 39 -19 50 -20 9 -22 13 -10 21 11 7 9 9 -9 9 -13 0 -20 4 -17 10 3 6 -1 10 -10 10 -9 0 -13 5 -10 10 3 6 -1 10 -9 10 -8 0 -18 9 -21 20 -3 11 -10 20 -15 20 -4 0 -10 11 -12 25 -3 14 -2 25 2 25 16 0 17 40 3 52 -14 11 -15 10 -9 -9 8 -24 -10 -41 -26 -25 -6 6 -6 12 1 16 14 9 14 36 0 36 -5 0 -7 -6 -3 -12 5 -9 2 -9 -9 1 -18 14 -24 36 -7 26 6 -3 10 -1 10 4 0 6 -4 11 -10 11 -5 0 -10 6 -10 13 0 7 -9 23 -20 35 -11 12 -20 25 -20 30 0 5 -10 14 -22 20 -13 6 -17 11 -10 11 6 1 12 9 12 19 0 13 -13 20 -45 28 -29 7 -48 7 -52 1 -6 -9 -83 68 -83 84 0 4 9 11 20 14 17 6 18 8 6 21 -19 18 -37 18 -30 -1 4 -8 1 -15 -6 -15 -6 0 -8 -5 -4 -11 4 -7 -2 -6 -17 2 -23 12 -23 12 -4 19 19 7 19 8 2 15 -10 4 -28 8 -40 9 -11 1 -22 7 -25 15 -3 9 0 11 8 6 7 -4 2 7 -11 24 -22 29 -28 32 -61 27 -23 -4 -39 -2 -44 6 -5 7 0 9 14 6 14 -4 19 -2 15 8 -7 18 -64 29 -73 14 -4 -7 -13 -9 -19 -6 -6 4 -11 0 -11 -10 0 -9 -7 -22 -17 -29 -19 -14 -9 -35 18 -35 10 0 19 -4 19 -10 0 -5 7 -10 15 -10 8 0 15 -4 15 -9 0 -5 10 -11 22 -13 30 -4 37 -38 9 -38 -12 0 -21 -4 -21 -10 0 -5 -13 -10 -30 -10 -16 0 -30 -4 -30 -10 0 -5 -11 -10 -24 -10 -14 0 -27 -4 -30 -9 -6 -9 -47 -18 -126 -27 -25 -3 -60 -12 -77 -20 -18 -8 -72 -17 -120 -20 -49 -3 -128 -15 -178 -26 -49 -11 -120 -23 -157 -25 -38 -3 -68 -10 -68 -15 0 -6 -33 -7 -82 -4 -46 3 -141 9 -213 14 -105 6 -138 12 -172 30 -23 12 -49 22 -58 22 -8 0 -24 5 -35 10 -11 6 -29 15 -40 20 -11 6 -42 10 -70 10 -27 0 -50 5 -50 10 0 6 -14 10 -32 10 -27 0 -59 7 -118 28 -8 3 -19 6 -25 7 -5 0 -9 7 -7 14 1 7 -1 10 -6 7 -13 -8 -30 8 -37 36 -5 21 -2 29 16 39 13 6 32 20 43 30 11 11 29 19 41 19 11 0 27 6 33 12 10 10 17 10 32 0 11 -6 31 -12 44 -12 14 0 27 -4 30 -9 3 -5 23 -12 43 -15 92 -16 103 -19 103 -27 0 -5 15 -9 33 -9 17 0 59 -13 92 -29 33 -16 65 -27 72 -24 6 3 37 -1 68 -7 71 -15 285 -16 294 -2 3 6 60 12 131 15 126 4 260 24 271 40 3 4 13 9 21 10 24 4 138 61 138 69 0 4 9 8 20 8 11 0 20 5 20 10 0 6 10 10 21 10 12 0 28 8 35 18 16 20 18 68 4 77 -5 3 -10 2 -10 -3 0 -5 -12 -12 -26 -15 -23 -4 -25 -2 -20 19 5 19 2 24 -13 24 -11 0 -23 5 -26 10 -3 6 -19 10 -35 10 -16 0 -32 5 -35 10 -3 6 -22 10 -41 10 -24 0 -33 4 -28 12 4 7 3 8 -5 4 -6 -4 -27 -2 -46 5 -29 11 -37 10 -52 -3 -10 -8 -26 -18 -35 -21 -30 -11 -20 -24 32 -48 28 -12 50 -26 50 -30 0 -4 10 -9 21 -11 12 -2 27 -11 33 -20 8 -13 5 -23 -14 -43 -13 -14 -31 -25 -40 -25 -9 0 -20 -4 -25 -9 -6 -5 -62 -13 -125 -16 -63 -4 -122 -11 -130 -15 -34 -18 -362 -10 -428 10 -38 12 -72 23 -119 39 -16 6 -54 15 -86 22 -43 9 -57 16 -55 28 2 11 19 18 53 23 85 11 104 18 100 38 -2 10 5 26 15 35 21 19 60 15 117 -12 23 -11 48 -13 85 -8 29 3 103 9 163 14 112 7 155 16 155 32 0 5 7 9 15 9 16 0 103 61 104 73 1 4 -11 7 -25 7 -14 0 -23 4 -19 9 3 6 -24 9 -65 8 -38 -1 -70 -5 -70 -8z m457 -116 c-4 -3 -10 -3 -14 0 -3 4 0 7 7 7 7 0 10 -3 7 -7z m73 -33 c0 -13 -11 -13 -30 0 -12 8 -11 10 8 10 12 0 22 -4 22 -10z m277 -127 c-4 -3 -10 -3 -14 0 -3 4 0 7 7 7 7 0 10 -3 7 -7z m83 -49 c0 -2 -7 -4 -15 -4 -8 0 -15 4 -15 10 0 5 7 7 15 4 8 -4 15 -8 15 -10z m-1877 -126 c20 -10 37 -23 37 -28 0 -5 21 -22 48 -37 26 -15 49 -30 52 -33 9 -10 76 -30 102 -30 14 0 33 -9 43 -20 10 -11 25 -20 34 -20 9 0 27 -9 41 -20 14 -11 34 -20 46 -20 11 0 24 -3 28 -7 25 -26 606 -58 606 -34 0 7 27 11 74 11 41 0 78 5 81 10 4 6 30 10 58 10 47 -1 236 35 313 60 17 6 49 10 72 10 23 0 42 5 42 10 0 6 14 10 30 10 17 0 30 5 30 10 0 6 17 10 38 10 21 0 42 4 48 10 5 5 24 10 42 12 17 1 32 5 32 9 0 13 70 31 94 25 12 -3 28 -17 36 -31 7 -14 17 -25 22 -25 4 0 8 -9 8 -21 0 -11 6 -27 14 -35 18 -17 9 -53 -18 -76 -12 -10 -26 -22 -33 -28 -7 -5 -19 -10 -27 -10 -8 0 -21 -6 -29 -14 -29 -29 -151 -76 -198 -76 -15 0 -31 -4 -34 -10 -3 -5 -19 -10 -34 -10 -15 0 -31 -4 -37 -8 -8 -8 -33 -16 -130 -41 -23 -6 -59 -11 -81 -11 -21 0 -43 -4 -48 -9 -11 -10 -36 -13 -210 -31 -60 -6 -124 -15 -141 -21 -41 -12 -171 -12 -179 1 -4 6 -11 8 -16 4 -20 -12 -333 42 -364 63 -11 7 -34 13 -52 13 -18 0 -41 4 -51 9 -9 5 -38 15 -64 23 -27 7 -48 16 -48 20 0 4 -9 8 -21 8 -11 0 -39 13 -62 28 -23 16 -58 35 -77 42 -19 8 -37 16 -40 19 -5 6 -43 22 -130 53 -127 45 -150 59 -151 92 -1 17 -1 37 0 44 1 6 -3 12 -9 12 -20 0 -9 30 18 47 30 20 35 23 77 58 28 23 30 24 55 8 14 -9 42 -25 63 -35z m2137 -84 c0 -8 -6 -11 -15 -8 -8 4 -15 12 -15 20 0 8 6 11 15 8 8 -4 15 -12 15 -20z m54 -60 c5 -14 4 -15 -9 -4 -17 14 -19 20 -6 20 5 0 12 -7 15 -16z m-2514 -22 c0 -7 72 -42 88 -42 4 0 31 -22 60 -50 29 -27 57 -50 62 -50 5 0 15 -6 22 -14 20 -20 74 -46 95 -46 10 0 32 -8 48 -18 17 -10 50 -24 75 -32 25 -8 47 -17 50 -20 11 -11 51 -30 65 -30 8 0 15 -4 15 -10 0 -5 9 -10 20 -10 11 0 20 -4 20 -10 0 -5 13 -10 29 -10 17 0 32 -4 35 -9 6 -8 34 -14 136 -27 25 -4 47 -10 50 -14 5 -8 135 -27 255 -39 68 -6 308 0 470 13 79 6 151 18 230 38 22 5 55 12 73 15 18 3 35 9 38 14 3 5 16 9 29 9 13 0 27 5 30 10 3 6 17 10 30 10 13 0 26 4 29 9 6 8 20 11 124 27 23 3 42 10 42 15 0 5 9 9 20 9 11 0 28 4 38 9 9 5 33 16 52 24 19 9 50 29 69 46 19 17 46 31 59 31 14 0 32 11 44 25 11 14 23 25 28 25 14 0 110 -101 110 -116 0 -8 5 -14 10 -14 6 0 10 -9 10 -20 0 -11 5 -20 10 -20 6 0 10 -8 10 -18 0 -10 5 -23 12 -30 12 -12 35 -69 45 -109 3 -13 9 -23 13 -23 4 0 15 -21 24 -47 10 -27 21 -56 27 -65 15 -29 11 -48 -12 -48 -16 0 -20 -5 -17 -27 1 -16 7 -31 12 -34 17 -13 9 -60 -14 -76 -12 -8 -37 -30 -55 -49 -19 -19 -40 -34 -46 -34 -6 0 -19 -8 -28 -17 -9 -10 -26 -24 -39 -30 -57 -33 -67 -39 -80 -50 -7 -7 -30 -17 -50 -23 -21 -5 -46 -16 -57 -24 -11 -9 -29 -16 -40 -16 -11 -1 -40 -12 -65 -25 -77 -41 -92 -46 -147 -47 -30 -1 -56 -5 -59 -10 -3 -4 -18 -8 -34 -8 -16 0 -32 -4 -35 -10 -3 -5 -28 -10 -55 -10 -27 0 -52 -4 -55 -10 -4 -6 -66 -10 -154 -10 -81 0 -172 -5 -202 -10 -66 -12 -213 -15 -459 -8 -175 5 -240 13 -320 39 -19 6 -69 15 -110 20 -220 28 -250 34 -250 50 0 5 -13 9 -29 9 -17 0 -33 5 -36 10 -3 6 -15 10 -26 10 -10 0 -28 5 -39 10 -11 6 -29 15 -40 20 -11 6 -27 10 -36 10 -9 0 -28 8 -42 18 -15 11 -58 36 -97 58 -38 21 -80 47 -91 59 -37 35 -64 55 -74 55 -6 0 -10 5 -10 10 0 6 -6 10 -14 10 -7 0 -32 18 -55 40 -22 22 -46 40 -51 40 -6 0 -10 4 -10 10 0 5 -16 24 -35 41 -19 18 -35 38 -35 45 0 17 -36 28 -80 25 -31 -2 -36 2 -48 31 -7 18 -18 41 -23 50 -15 29 -11 37 24 43 60 11 72 13 80 14 4 1 7 10 7 21 0 11 5 20 10 20 6 0 10 11 10 25 0 25 13 46 63 98 15 16 27 33 27 38 0 6 7 18 16 26 8 9 14 23 11 32 -4 18 15 41 35 42 7 0 38 27 68 59 48 51 90 76 90 52z m2560 -17 c7 -9 8 -15 2 -15 -5 0 -12 7 -16 15 -3 8 -4 15 -2 15 2 0 9 -7 16 -15z m-2901 -674 c32 -33 70 -63 84 -66 15 -4 27 -11 27 -16 0 -13 87 -99 100 -99 7 0 24 -12 38 -28 15 -15 48 -38 75 -51 26 -13 47 -27 47 -30 0 -7 37 -23 95 -42 22 -7 49 -21 61 -31 11 -10 27 -18 36 -18 14 0 60 -16 113 -40 37 -16 156 -41 226 -47 38 -3 72 -10 75 -14 3 -5 22 -9 43 -9 20 0 41 -4 46 -9 6 -5 39 -12 75 -16 36 -3 88 -9 116 -13 127 -20 1064 7 1064 30 0 4 36 8 79 8 44 0 82 4 85 9 3 5 23 11 43 15 90 13 113 19 113 27 0 5 9 9 19 9 11 0 23 5 26 10 3 6 14 10 23 10 21 0 161 57 182 73 8 7 27 19 43 27 15 7 27 17 27 22 0 4 7 8 15 8 8 0 15 5 15 10 0 6 6 10 13 10 7 0 23 9 35 20 12 11 26 20 32 20 19 0 54 25 88 63 59 64 87 46 95 -64 2 -41 10 -99 18 -130 l13 -56 -35 -42 c-19 -23 -44 -44 -57 -47 -12 -4 -28 -14 -35 -23 -6 -10 -27 -24 -44 -32 -18 -7 -33 -17 -33 -21 0 -5 -6 -8 -13 -8 -7 0 -23 -9 -35 -20 -12 -11 -26 -20 -32 -20 -6 0 -18 -4 -28 -9 -9 -5 -51 -19 -92 -32 -41 -13 -77 -26 -80 -29 -13 -14 -165 -53 -250 -64 -25 -4 -67 -13 -95 -22 -98 -31 -112 -34 -145 -34 -33 0 -100 -19 -110 -31 -10 -12 -125 -36 -215 -44 -109 -10 -515 3 -532 16 -6 6 -71 10 -145 10 -73 -1 -158 4 -188 10 -30 6 -80 14 -110 19 -30 5 -80 14 -110 20 -30 6 -71 13 -90 16 -19 3 -54 14 -77 25 -24 10 -59 19 -78 19 -19 0 -35 4 -35 9 0 5 -17 12 -37 16 -51 9 -166 59 -191 82 -7 7 -30 17 -52 23 -22 6 -45 16 -52 23 -7 8 -34 20 -60 27 -27 8 -48 18 -48 22 0 4 -7 8 -15 8 -8 0 -15 5 -15 10 0 6 -8 10 -18 10 -49 0 -152 73 -152 108 0 34 -11 52 -31 52 -10 0 -19 5 -19 11 0 6 -16 9 -40 8 -52 -4 -63 7 -50 51 6 19 10 48 10 64 0 16 4 43 9 60 6 17 15 58 21 91 7 33 16 68 21 77 5 10 9 27 9 38 0 35 30 22 89 -39z m3367 -228 c-5 -40 -6 -41 -17 -15 -9 24 -5 42 11 42 5 0 7 -12 6 -27z m91 -970 c-4 -3 -7 0 -7 7 0 7 3 10 7 7 3 -4 3 -10 0 -14z m3 -39 c0 -8 -4 -12 -10 -9 -5 3 -10 13 -10 21 0 8 5 12 10 9 6 -3 10 -13 10 -21z m-10 -58 c-14 -14 -22 -2 -14 18 5 14 9 15 15 4 4 -7 4 -17 -1 -22z m-13 -43 c-4 -3 -7 0 -7 7 0 7 3 10 7 7 3 -4 3 -10 0 -14z m-1310 -420 c-4 -3 -10 -3 -14 0 -3 4 0 7 7 7 7 0 10 -3 7 -7z m-857 -862 c19 -5 90 -18 158 -27 67 -10 122 -22 122 -26 0 -4 15 -8 34 -8 19 0 38 -4 41 -10 3 -5 19 -10 36 -10 16 0 29 -4 29 -10 0 -5 14 -10 30 -10 17 0 30 -4 30 -10 0 -5 8 -10 19 -10 10 0 29 -8 42 -18 23 -17 45 -28 102 -51 26 -10 35 -25 20 -34 -13 -8 -524 11 -588 22 -33 5 -80 15 -105 21 -25 7 -64 17 -87 22 -24 6 -43 14 -43 18 0 8 -18 11 -195 28 -113 11 -155 21 -173 38 -11 11 -11 14 0 14 8 0 9 3 3 8 -5 4 -16 17 -23 30 -14 26 -9 29 48 34 74 6 467 -3 500 -11z m1077 -257 c-3 -3 -12 -4 -19 -1 -8 3 -5 6 6 6 11 1 17 -2 13 -5z"/>
 <path d="M2526 5978 c4 -12 1 -18 -9 -18 -12 0 -27 -19 -27 -34 0 -1 23 -26 50 -55 28 -29 50 -58 50 -65 0 -20 47 -58 67 -54 10 2 28 -7 41 -19 13 -13 38 -29 57 -37 18 -8 36 -24 40 -35 3 -12 15 -21 25 -21 10 0 20 -3 22 -8 7 -15 85 -70 138 -97 30 -15 57 -31 58 -36 2 -5 17 -9 33 -9 16 0 29 -4 29 -8 0 -5 23 -15 51 -22 27 -8 52 -18 55 -22 3 -4 18 -8 34 -8 16 0 32 -4 35 -10 3 -5 19 -10 36 -10 16 0 29 -4 29 -9 0 -5 33 -11 73 -15 39 -3 106 -10 147 -16 41 -5 120 -14 175 -20 131 -13 704 -13 775 1 100 19 110 21 116 30 3 5 25 9 49 9 24 0 47 5 50 10 3 6 17 10 31 10 13 0 24 5 24 10 0 6 7 10 15 10 19 0 94 37 112 56 8 7 31 21 51 31 20 9 44 25 53 35 9 10 21 18 28 18 6 0 28 16 48 35 20 19 40 35 44 35 3 0 15 8 27 18 11 9 30 24 41 32 12 8 21 18 21 22 0 4 14 30 30 58 36 61 40 110 10 110 -11 0 -20 -4 -20 -10 0 -5 -7 -10 -17 -10 -18 0 -84 -47 -80 -58 1 -4 -2 -9 -8 -11 -12 -4 -68 -42 -75 -51 -3 -3 -20 -17 -39 -30 -19 -13 -53 -43 -77 -67 -24 -23 -61 -51 -84 -60 -22 -10 -40 -21 -40 -25 0 -5 -9 -8 -20 -8 -11 0 -20 -3 -20 -7 0 -9 -49 -33 -67 -33 -7 0 -28 -9 -48 -20 -20 -11 -47 -20 -60 -20 -14 0 -25 -4 -25 -10 0 -5 -15 -10 -32 -10 -18 0 -52 -7 -75 -15 -64 -22 -126 -24 -423 -14 -289 9 -381 17 -545 43 -148 24 -165 28 -165 36 0 7 -25 13 -112 26 -21 4 -38 10 -38 15 0 5 -11 9 -25 9 -14 0 -25 5 -25 10 0 6 -7 10 -16 10 -8 0 -22 7 -31 15 -8 9 -28 19 -44 22 -16 3 -29 9 -29 14 0 4 -18 15 -40 25 -22 10 -40 22 -40 27 0 11 -26 37 -38 37 -5 0 -29 16 -53 35 -24 19 -47 35 -50 35 -4 0 -26 18 -49 40 -23 22 -46 40 -51 40 -5 0 -18 8 -30 18 -11 9 -33 27 -47 39 -15 13 -33 23 -39 23 -7 0 -13 5 -13 10 0 6 -5 10 -11 10 -7 0 -18 8 -25 18 -13 16 -14 16 -8 0z"/>
 <path d="M5100 6340 c8 -5 20 -10 25 -10 6 0 3 5 -5 10 -8 5 -19 10 -25 10 -5 0 -3 -5 5 -10z"/>
 <path d="M5366 6021 c-9 -13 14 -50 35 -56 9 -3 24 -3 33 1 20 8 21 34 2 34 -8 0 -17 6 -20 13 -3 6 -3 1 0 -13 l6 -25 -25 29 c-15 17 -27 24 -31 17z"/>
 <path d="M5820 4710 c0 -13 5 -18 15 -14 12 5 13 10 4 20 -15 19 -19 18 -19 -6z"/>
 <path d="M5501 4493 c1 -5 1 -18 0 -30 -1 -22 -4 -23 -105 -23 -58 0 -107 -4 -110 -9 -3 -5 -18 -11 -33 -14 -102 -21 -152 -29 -258 -43 -66 -9 -147 -19 -180 -24 -33 -5 -94 -13 -135 -19 -41 -6 -102 -13 -135 -16 -91 -9 -110 -14 -97 -27 15 -15 517 -16 610 -1 41 7 116 13 168 14 52 1 97 6 100 10 3 5 41 9 84 9 43 0 82 5 85 10 3 6 24 10 45 10 21 0 42 5 45 10 3 6 15 10 26 10 11 0 34 13 51 29 37 34 32 63 -15 92 -32 19 -148 28 -146 12z"/>
 <path d="M3240 4240 c-47 -4 -66 -7 -43 -8 23 -1 43 -6 45 -11 2 -5 37 -11 78 -13 41 -2 79 -7 83 -13 6 -6 10 -6 14 3 2 6 18 12 34 12 22 0 30 -6 35 -24 7 -31 26 -35 197 -43 75 -3 137 -9 137 -13 0 -4 60 -8 133 -9 72 -1 148 -6 168 -11 19 -6 64 -10 100 -11 35 -1 73 -8 83 -15 11 -7 29 -11 40 -8 12 2 44 -2 72 -9 28 -7 60 -10 70 -6 11 4 51 0 89 -8 39 -8 114 -17 168 -20 53 -3 97 -9 97 -14 0 -5 9 -9 20 -9 11 0 20 -4 20 -10 0 -5 11 -10 24 -10 14 0 28 -4 31 -10 3 -5 16 -10 29 -10 13 0 31 -9 41 -20 10 -11 25 -20 34 -20 9 0 24 -11 34 -24 10 -13 38 -36 63 -52 24 -15 44 -31 44 -35 0 -12 80 -89 92 -89 7 0 24 -12 37 -25 13 -14 30 -25 39 -25 8 0 12 -3 9 -6 -6 -6 41 -54 53 -54 10 0 40 -57 33 -64 -10 -10 -4 -88 9 -103 6 -8 25 -13 42 -11 l31 3 3 90 c2 49 7 94 12 99 13 13 13 50 -1 78 -6 14 -38 37 -80 57 -38 18 -69 37 -69 42 0 5 -5 9 -11 9 -6 0 -30 14 -54 30 -24 17 -48 30 -54 30 -6 0 -11 5 -11 10 0 6 -6 10 -13 10 -7 0 -26 13 -41 29 -16 16 -41 35 -57 41 -16 7 -29 16 -29 20 0 4 -13 13 -30 20 -16 7 -40 21 -52 31 -13 10 -28 22 -33 27 -23 19 -173 49 -315 63 -58 6 -134 14 -170 19 -36 5 -111 13 -168 18 -57 6 -105 12 -108 15 -3 2 10 8 28 12 31 7 28 8 -37 21 -38 7 -126 16 -195 19 -198 8 -707 11 -800 5z m340 -55 c0 -8 -4 -15 -10 -15 -5 0 -10 7 -10 15 0 8 5 15 10 15 6 0 10 -7 10 -15z"/>
 <path d="M3253 4163 c9 -2 23 -2 30 0 6 3 -1 5 -18 5 -16 0 -22 -2 -12 -5z"/>
 <path d="M2960 4063 c-125 -3 -329 -24 -336 -35 -3 -4 -16 -8 -30 -8 -23 0 -33 -3 -81 -28 -13 -7 -30 -12 -38 -12 -24 0 -95 -24 -95 -32 0 -5 -9 -8 -19 -8 -11 0 -21 -3 -23 -8 -3 -7 -128 -52 -156 -56 -7 -1 -18 -8 -24 -14 -7 -7 -31 -12 -55 -12 -30 0 -43 -4 -43 -14 0 -8 17 -51 38 -95 38 -84 57 -98 80 -61 7 11 17 20 23 20 21 0 39 29 37 60 -3 29 1 32 55 54 31 13 77 30 102 37 25 7 45 17 45 21 0 4 9 8 20 8 11 0 28 4 38 9 9 5 45 15 80 22 34 7 62 17 62 21 0 4 9 8 20 8 11 0 20 5 20 10 0 6 17 10 38 10 20 0 55 5 77 11 46 12 184 43 269 59 41 9 55 15 47 23 -12 12 -22 13 -151 10z"/>
 <path d="M5790 3890 c0 -7 3 -10 7 -7 3 4 3 10 0 14 -4 3 -7 0 -7 -7z"/>
 <path d="M2040 3860 c0 -7 3 -10 7 -7 3 4 3 10 0 14 -4 3 -7 0 -7 -7z"/>
 <path d="M3053 3863 c4 -3 10 -3 14 0 3 4 0 7 -7 7 -7 0 -10 -3 -7 -7z"/>
 <path d="M5785 3860 c3 -5 8 -10 11 -10 2 0 4 5 4 10 0 6 -5 10 -11 10 -5 0 -7 -4 -4 -10z"/>
 <path d="M3870 3630 c0 -5 12 -12 28 -16 15 -3 50 -12 79 -20 28 -8 60 -14 72 -14 11 0 36 -9 56 -20 20 -11 44 -20 55 -20 10 0 32 -5 47 -11 15 -6 37 -15 48 -19 11 -4 36 -13 55 -20 36 -13 71 -19 150 -24 63 -4 119 -17 126 -27 3 -5 20 -9 37 -9 38 0 140 -35 145 -50 2 -6 12 -10 23 -10 10 0 19 -4 19 -10 0 -5 9 -10 20 -10 11 0 20 -4 20 -10 0 -5 10 -10 23 -10 12 0 35 -11 51 -25 16 -13 37 -27 48 -31 15 -4 18 -14 17 -49 -2 -31 3 -48 16 -61 10 -11 19 -17 19 -15 2 10 46 -12 46 -23 0 -29 40 -56 83 -56 69 0 86 30 42 74 -26 26 -32 50 -15 61 6 3 10 22 10 41 0 19 -4 33 -9 30 -5 -3 -20 4 -35 15 -14 11 -26 18 -26 15 0 -3 -21 8 -47 24 -26 17 -65 35 -85 41 -21 5 -48 20 -61 32 -39 38 -85 67 -106 67 -11 0 -23 5 -26 10 -3 6 -15 10 -26 10 -10 0 -19 5 -19 10 0 6 -9 10 -19 10 -11 0 -23 5 -26 10 -3 6 -37 10 -74 10 -40 0 -87 7 -112 17 -24 9 -75 20 -114 24 -100 11 -195 27 -235 39 -19 5 -72 10 -117 10 -45 0 -85 5 -88 10 -8 13 -95 13 -95 0z"/>
 <path d="M1285 2530 c-3 -5 -1 -10 4 -10 6 0 11 5 11 10 0 6 -2 10 -4 10 -3 0 -8 -4 -11 -10z"/>
 </g>

</svg>